<?xml version="1.0" encoding="utf-8"?>
<!-- Generator: Adobe Illustrator 17.0.0, SVG Export Plug-In . SVG Version: 6.00 Build 0)  -->
<!DOCTYPE svg PUBLIC "-//W3C//DTD SVG 1.1//EN" "http://www.w3.org/Graphics/SVG/1.1/DTD/svg11.dtd">
<svg version="1.1" id="图层_1" xmlns="http://www.w3.org/2000/svg" xmlns:xlink="http://www.w3.org/1999/xlink" x="0px" y="0px"
	 width="39px" height="39px" viewBox="0 0 39 39" enable-background="new 0 0 39 39" xml:space="preserve">
<g>
	<circle fill="#0F4083" cx="19.5" cy="19.684" r="18"/>
	<g>
		<g>
			<path fill="#FFFFFF" d="M29.433,19.684h-1.132c0-4.853-3.949-8.803-8.803-8.803c-4.135,0-7.756,2.933-8.61,6.975l-1.108-0.234
				c0.964-4.562,5.05-7.873,9.718-7.873C24.977,9.749,29.433,14.206,29.433,19.684z"/>
		</g>
		<g>
			<path fill="#FFFFFF" d="M19.499,29.618c-5.447,0-9.902-4.432-9.932-9.88l1.132-0.006c0.026,4.827,3.974,8.754,8.8,8.754
				c4.109,0,7.725-2.913,8.597-6.927l1.106,0.24C28.218,26.33,24.137,29.618,19.499,29.618z"/>
		</g>
		<g>
			<path fill="#FFFFFF" d="M17.553,17.739"/>
		</g>
		<g>
			<rect x="9.567" y="19.735" fill="#FFFFFF" width="1.132" height="8.077"/>
		</g>
		<g>
			<rect x="28.301" y="11.313" fill="#FFFFFF" width="1.132" height="8.077"/>
		</g>
	</g>
</g>
</svg>
