<?xml version="1.0" encoding="utf-8"?>
<!-- Generator: Adobe Illustrator 17.0.0, SVG Export Plug-In . SVG Version: 6.00 Build 0)  -->
<!DOCTYPE svg PUBLIC "-//W3C//DTD SVG 1.1//EN" "http://www.w3.org/Graphics/SVG/1.1/DTD/svg11.dtd">
<svg version="1.1" id="图层_1" xmlns="http://www.w3.org/2000/svg" xmlns:xlink="http://www.w3.org/1999/xlink" x="0px" y="0px"
	 width="63px" height="63px" viewBox="0 0 63 63" enable-background="new 0 0 63 63" xml:space="preserve">
<g>
	<path fill="#13438B" d="M61.906,29.379L33.621,1.094c-1.172-1.172-3.071-1.172-4.243,0L1.094,29.379
		c-1.172,1.172-1.172,3.071,0,4.243l28.284,28.284c1.172,1.172,3.071,1.172,4.243,0l28.284-28.284
		C63.077,32.45,63.077,30.55,61.906,29.379z M33.621,60.845c-1.172,1.172-3.071,1.172-4.243,0L2.155,33.621
		c-1.172-1.172-1.172-3.071,0-4.243L29.379,2.155c1.172-1.172,3.071-1.172,4.243,0l27.224,27.224c1.172,1.172,1.172,3.071,0,4.243
		L33.621,60.845z"/>
	<g>
		<g>
			<g>
				<path fill="#13438B" d="M14.772,42.524c-0.117,0-0.192-0.013-0.207-0.016l0.109-0.59c0.07,0.012,1.661,0.231,2.482-3.059
					l1.636-5.214c0.054-0.228,0.391-1.47,1.171-1.575c0.479-0.067,0.946,0.311,1.411,1.156l2.979,6.845
					c0.011,0.073,0.305,1.782,2.351,1.853l22.009-0.648l0.017,0.601l-22.028,0.648c-2.368-0.082-2.868-1.995-2.935-2.317
					l-2.932-6.716c-0.444-0.806-0.719-0.835-0.792-0.826c-0.268,0.036-0.563,0.685-0.673,1.14l-1.636,5.216
					C16.935,42.222,15.343,42.524,14.772,42.524z"/>
			</g>
			<circle fill="#EB973B" cx="13.514" cy="41.686" r="0.251"/>
			<circle fill="#EB973B" cx="14.377" cy="41.499" r="0.251"/>
			<circle fill="#EB973B" cx="14.017" cy="40.623" r="0.251"/>
			<circle fill="#EB973B" cx="15.118" cy="41.323" r="0.251"/>
			<circle fill="#EB973B" cx="15.919" cy="40.573" r="0.251"/>
			<circle fill="#EB973B" cx="17.015" cy="38.094" r="0.251"/>
			<circle fill="#EB973B" cx="17.518" cy="36.259" r="0.251"/>
			<circle fill="#EB973B" cx="18.02" cy="35.021" r="0.251"/>
			<circle fill="#EB973B" cx="18.407" cy="34.163" r="0.251"/>
			<circle fill="#EB973B" cx="19.026" cy="32.233" r="0.251"/>
			<circle fill="#EB973B" cx="20.075" cy="32.233" r="0.251"/>
			<circle fill="#EB973B" cx="21.219" cy="32.736" r="0.251"/>
			<circle fill="#EB973B" cx="21.982" cy="32.736" r="0.251"/>
			<circle fill="#EB973B" cx="22.101" cy="34.77" r="0.251"/>
			<circle fill="#EB973B" cx="22.864" cy="36.952" r="0.251"/>
			<circle fill="#EB973B" cx="24.992" cy="40.321" r="0.251"/>
			<circle fill="#EB973B" cx="24.74" cy="41.323" r="0.251"/>
			<circle fill="#EB973B" cx="24.146" cy="42.44" r="0.251"/>
			<circle fill="#EB973B" cx="23.235" cy="42.551" r="0.251"/>
			<circle fill="#EB973B" cx="23.487" cy="43.85" r="0.251"/>
			<circle fill="#EB973B" cx="24.489" cy="43.599" r="0.251"/>
			<circle fill="#EB973B" cx="25.729" cy="41.072" r="0.251"/>
			<circle fill="#EB973B" cx="26.466" cy="41.072" r="0.251"/>
			<circle fill="#EB973B" cx="26.466" cy="40.321" r="0.251"/>
			<circle fill="#EB973B" cx="27.355" cy="42.048" r="0.251"/>
			<circle fill="#EB973B" cx="27.104" cy="43.096" r="0.251"/>
			<circle fill="#EB973B" cx="27.606" cy="43.599" r="0.251"/>
			<circle fill="#EB973B" cx="26.358" cy="43.85" r="0.251"/>
			<circle fill="#EB973B" cx="25.642" cy="44.352" r="0.251"/>
			<circle fill="#EB973B" cx="27.858" cy="41.072" r="0.251"/>
			<circle fill="#EB973B" cx="28.36" cy="40.07" r="0.251"/>
			<circle fill="#EB973B" cx="28.743" cy="41.072" r="0.251"/>
			<circle fill="#EB973B" cx="30.391" cy="43.096" r="0.251"/>
			<circle fill="#EB973B" cx="29.723" cy="43.599" r="0.251"/>
			<circle fill="#EB973B" cx="29.09" cy="44.199" r="0.251"/>
			<circle fill="#EB973B" cx="29.974" cy="40.821" r="0.251"/>
			<circle fill="#EB973B" cx="30.642" cy="39.819" r="0.251"/>
			<circle fill="#EB973B" cx="31.145" cy="40.925" r="0.251"/>
			<circle fill="#EB973B" cx="31.647" cy="41.797" r="0.251"/>
			<circle fill="#EB973B" cx="31.898" cy="43.455" r="0.251"/>
			<circle fill="#EB973B" cx="32.295" cy="41.072" r="0.251"/>
			<circle fill="#EB973B" cx="32.798" cy="40.321" r="0.251"/>
			<circle fill="#EB973B" cx="33.3" cy="41.072" r="0.251"/>
			<circle fill="#EB973B" cx="34.836" cy="42.845" r="0.251"/>
			<circle fill="#EB973B" cx="34.415" cy="40.674" r="0.251"/>
			<circle fill="#EB973B" cx="34.917" cy="40.07" r="0.251"/>
			<circle fill="#EB973B" cx="35.748" cy="40.569" r="0.251"/>
			<circle fill="#EB973B" cx="35.999" cy="41.323" r="0.251"/>
			<circle fill="#EB973B" cx="36.251" cy="42.691" r="0.251"/>
			<circle fill="#EB973B" cx="36.502" cy="43.455" r="0.251"/>
			<circle fill="#EB973B" cx="37.49" cy="43.096" r="0.251"/>
			<circle fill="#EB973B" cx="37.49" cy="41.072" r="0.251"/>
			<circle fill="#EB973B" cx="37.901" cy="39.819" r="0.251"/>
			<circle fill="#EB973B" cx="38.626" cy="40.674" r="0.251"/>
			<circle fill="#EB973B" cx="39.739" cy="40.318" r="0.251"/>
			<circle fill="#EB973B" cx="40.416" cy="41.546" r="0.251"/>
			<circle fill="#EB973B" cx="39.99" cy="42.845" r="0.251"/>
			<circle fill="#EB973B" cx="39.129" cy="43.599" r="0.251"/>
			<circle fill="#EB973B" cx="40.667" cy="43.706" r="0.251"/>
			<circle fill="#EB973B" cx="41.359" cy="43.203" r="0.251"/>
			<circle fill="#EB973B" cx="41.862" cy="42.593" r="0.251"/>
			<circle fill="#EB973B" cx="42.365" cy="41.427" r="0.251"/>
			<circle fill="#EB973B" cx="42.727" cy="42.952" r="0.251"/>
			<circle fill="#EB973B" cx="43.23" cy="40.821" r="0.251"/>
			<circle fill="#EB973B" cx="43.23" cy="39.567" r="0.251"/>
			<circle fill="#EB973B" cx="43.875" cy="40.422" r="0.251"/>
			<circle fill="#EB973B" cx="44.866" cy="40.318" r="0.251"/>
			<circle fill="#EB973B" cx="45.369" cy="39.567" r="0.251"/>
			<circle fill="#EB973B" cx="46.052" cy="40.422" r="0.251"/>
			<circle fill="#EB973B" cx="46.303" cy="41.323" r="0.251"/>
			<circle fill="#EB973B" cx="45.118" cy="42.593" r="0.251"/>
			<circle fill="#EB973B" cx="44.615" cy="43.347" r="0.251"/>
			<circle fill="#EB973B" cx="43.875" cy="43.706" r="0.251"/>
			<circle fill="#EB973B" cx="47.14" cy="42.952" r="0.251"/>
			<circle fill="#EB973B" cx="47.14" cy="41.546" r="0.251"/>
			<circle fill="#EB973B" cx="47.551" cy="40.674" r="0.251"/>
			<circle fill="#EB973B" cx="47.643" cy="39.699" r="0.251"/>
			<circle fill="#EB973B" cx="48.252" cy="40.422" r="0.251"/>
			<circle fill="#EB973B" cx="49.486" cy="40.422" r="0.251"/>
			<circle fill="#EB973B" cx="49.235" cy="42.952" r="0.251"/>
			<circle fill="#EB973B" cx="48.504" cy="43.455" r="0.251"/>
			<circle fill="#EB973B" cx="41.359" cy="40.07" r="0.251"/>
			<circle fill="#EB973B" cx="34.163" cy="43.347" r="0.251"/>
			<circle fill="#EB973B" cx="33.552" cy="44.101" r="0.251"/>
			<circle fill="#EB973B" cx="16.882" cy="42.189" r="0.251"/>
			<circle fill="#EB973B" cx="17.385" cy="42.952" r="0.251"/>
			<circle fill="#EB973B" cx="15.919" cy="43.347" r="0.251"/>
			<circle fill="#EB973B" cx="14.78" cy="44.473" r="0.251"/>
		</g>
		<g>
			<circle fill="#EB973B" cx="18.161" cy="20.577" r="1.57"/>
			<circle fill="#EB973B" cx="22.892" cy="20.577" r="1.57"/>
			<circle fill="#EB973B" cx="18.161" cy="25.848" r="1.57"/>
			<circle fill="#EB973B" cx="22.892" cy="25.848" r="1.57"/>
		</g>
		<g>
			<polygon fill="#38BEED" points="45.066,23.39 43.492,25.882 45.066,28.047 46.575,25.719 			"/>
			<polygon fill="#38BEED" points="41.087,18.275 39.513,20.767 41.087,22.932 42.596,20.604 			"/>
			<polygon fill="#38BEED" points="45.066,18.275 43.492,20.767 45.066,22.932 46.575,20.604 			"/>
			<polygon fill="#38BEED" points="41.087,23.39 39.513,25.882 41.087,28.047 42.596,25.719 			"/>
		</g>
		<g>
			
				<rect x="31.075" y="28.517" transform="matrix(0.866 -0.5 0.5 0.866 -9.6735 21.5013)" fill="#EB973B" width="8.42" height="0.569"/>
			<g>
				
					<rect x="24.067" y="28.517" transform="matrix(-0.866 -0.5 0.5 -0.866 38.3659 67.8836)" fill="#EB973B" width="8.42" height="0.569"/>
			</g>
			<g>
				<rect x="31.497" y="30.817" fill="#EB973B" width="0.569" height="8.264"/>
			</g>
			<circle fill="#EB973B" cx="31.781" cy="30.817" r="0.646"/>
		</g>
	</g>
</g>
</svg>
