<?xml version="1.0" encoding="utf-8"?>
<!-- Generator: Adobe Illustrator 17.0.0, SVG Export Plug-In . SVG Version: 6.00 Build 0)  -->
<!DOCTYPE svg PUBLIC "-//W3C//DTD SVG 1.1//EN" "http://www.w3.org/Graphics/SVG/1.1/DTD/svg11.dtd">
<svg version="1.1" id="图层_1" xmlns="http://www.w3.org/2000/svg" xmlns:xlink="http://www.w3.org/1999/xlink" x="0px" y="0px"
	 width="63px" height="63px" viewBox="0 0 63 63" enable-background="new 0 0 63 63" xml:space="preserve">
<path fill="#666464" d="M61.906,29.379L33.621,1.094c-1.172-1.172-3.071-1.172-4.243,0L1.094,29.379
	c-1.172,1.172-1.172,3.071,0,4.243l28.284,28.284c1.172,1.172,3.071,1.172,4.243,0l28.284-28.284
	C63.077,32.45,63.077,30.55,61.906,29.379z M33.621,60.845c-1.172,1.172-3.071,1.172-4.243,0L2.155,33.621
	c-1.172-1.172-1.172-3.071,0-4.243L29.379,2.155c1.172-1.172,3.071-1.172,4.243,0l27.224,27.224c1.172,1.172,1.172,3.071,0,4.243
	L33.621,60.845z"/>
<g>
	<g>
		<polygon fill="#38BEED" points="24.682,19.803 37.631,21.077 45.994,31.612 33.498,35.073 25.414,42.207 21.002,31.612 		"/>
	</g>
	<g>
		<polygon fill="#EB973B" points="27.064,23.929 35.936,23.929 40.374,31.612 37.631,42.231 24.241,44.186 17.195,31.612 		"/>
		<path fill="#EB973B" d="M24.18,44.308l-0.038-0.068L17.05,31.583l9.976-7.766h8.975l4.494,7.779l-0.011,0.044l-2.762,10.691
			l-0.074,0.011L24.18,44.308z M17.34,31.642l6.961,12.422l13.24-1.933l2.713-10.502l-4.383-7.587h-8.769L17.34,31.642z"/>
	</g>
	<g>
		<path fill="#666464" d="M31.5,43.883c-6.766,0-12.271-5.505-12.271-12.271c0-6.766,5.505-12.271,12.271-12.271
			c6.766,0,12.271,5.505,12.271,12.271C43.771,38.378,38.266,43.883,31.5,43.883z M31.5,19.398c-6.735,0-12.215,5.479-12.215,12.215
			c0,6.735,5.479,12.215,12.215,12.215c6.735,0,12.214-5.479,12.214-12.215C43.715,24.877,38.235,19.398,31.5,19.398z"/>
	</g>
	<g>
		<path fill="#666464" d="M31.5,40.514c-4.909,0-8.902-3.993-8.902-8.902c0-4.909,3.993-8.902,8.902-8.902
			c4.908,0,8.902,3.993,8.902,8.902C40.402,36.521,36.409,40.514,31.5,40.514z M31.5,22.766c-4.878,0-8.846,3.968-8.846,8.846
			c0,4.878,3.968,8.846,8.846,8.846c4.878,0,8.846-3.968,8.846-8.846C40.346,26.735,36.378,22.766,31.5,22.766z"/>
	</g>
	<g>
		<path fill="#666464" d="M31.5,37.146c-3.051,0-5.534-2.482-5.534-5.533c0-3.051,2.482-5.533,5.534-5.533
			c3.051,0,5.533,2.482,5.533,5.533C37.033,34.663,34.551,37.146,31.5,37.146z M31.5,26.135c-3.02,0-5.477,2.457-5.477,5.477
			c0,3.02,2.457,5.477,5.477,5.477c3.02,0,5.477-2.457,5.477-5.477C36.977,28.592,34.52,26.135,31.5,26.135z"/>
	</g>
	<g>
		<path fill="#666464" d="M31.5,33.777c-1.194,0-2.165-0.971-2.165-2.165c0-1.194,0.971-2.164,2.165-2.164
			c1.194,0,2.164,0.971,2.164,2.164C33.665,32.806,32.694,33.777,31.5,33.777z M31.5,29.504c-1.163,0-2.109,0.946-2.109,2.108
			c0,1.163,0.946,2.109,2.109,2.109c1.163,0,2.108-0.946,2.108-2.109C33.609,30.45,32.663,29.504,31.5,29.504z"/>
	</g>
	<g>
		<polygon fill="#666464" points="31.5,31.725 23.646,18.121 23.743,18.064 31.5,31.5 39.257,18.064 39.354,18.121 		"/>
	</g>
	<g>
		<rect x="15.888" y="31.556" fill="#666464" width="31.223" height="0.112"/>
	</g>
	<g>
		<polygon fill="#666464" points="39.257,45.16 31.5,31.725 23.743,45.16 23.646,45.104 31.5,31.5 39.354,45.104 		"/>
	</g>
	<g>
		<path fill="#666464" d="M31.5,47.336c-8.67,0-15.724-7.054-15.724-15.724c0-8.67,7.053-15.724,15.724-15.724
			c8.67,0,15.724,7.054,15.724,15.724C47.224,40.282,40.17,47.336,31.5,47.336z M31.5,16.113c-8.546,0-15.499,6.953-15.499,15.499
			c0,8.546,6.953,15.499,15.499,15.499c8.546,0,15.499-6.953,15.499-15.499C46.999,23.066,40.046,16.113,31.5,16.113z"/>
	</g>
	<g>
		<circle fill="#666464" cx="37.631" cy="21.077" r="0.855"/>
	</g>
	<g>
		<circle fill="#13438B" cx="27.064" cy="23.929" r="0.855"/>
	</g>
	<g>
		<circle fill="#13438B" cx="17.195" cy="31.612" r="0.855"/>
	</g>
	<g>
		<circle fill="#13438B" cx="24.195" cy="44.186" r="0.855"/>
	</g>
	<g>
		<circle fill="#13438B" cx="37.631" cy="42.207" r="0.855"/>
	</g>
	<g>
		<circle fill="#13438B" cx="40.374" cy="31.612" r="0.855"/>
	</g>
	<g>
		<circle fill="#13438B" cx="35.936" cy="23.929" r="0.856"/>
	</g>
	<g>
		<circle fill="#666464" cx="24.55" cy="19.803" r="0.855"/>
	</g>
	<g>
		<circle fill="#666464" cx="21.002" cy="31.612" r="0.856"/>
	</g>
	<g>
		<circle fill="#666464" cx="25.414" cy="42.207" r="0.855"/>
	</g>
	<g>
		<circle fill="#666464" cx="33.498" cy="35.073" r="0.855"/>
	</g>
	<g>
		<circle fill="#666464" cx="45.994" cy="31.612" r="0.855"/>
	</g>
</g>
</svg>
