<?xml version="1.0" encoding="utf-8"?>
<!-- Generator: Adobe Illustrator 17.0.0, SVG Export Plug-In . SVG Version: 6.00 Build 0)  -->
<!DOCTYPE svg PUBLIC "-//W3C//DTD SVG 1.1//EN" "http://www.w3.org/Graphics/SVG/1.1/DTD/svg11.dtd">
<svg version="1.1" id="图层_1" xmlns="http://www.w3.org/2000/svg" xmlns:xlink="http://www.w3.org/1999/xlink" x="0px" y="0px"
	 width="39px" height="39px" viewBox="0 0 39 39" enable-background="new 0 0 39 39" xml:space="preserve">
<g>
	<circle fill="#666564" cx="19.5" cy="19.622" r="18"/>
	<g>
		<g>
			<path fill="#FFFFFF" d="M12.323,16.125"/>
		</g>
		<g>
			<path fill="#FFFFFF" d="M19.5,16.125"/>
		</g>
		<g>
			<rect x="18.933" y="9.682" fill="#FFFFFF" width="1.133" height="10.21"/>
		</g>
		<g>
			<path fill="#FFFFFF" d="M19.5,29.562c-5.086,0-9.223-4.138-9.223-9.223c0-4.043,2.705-7.676,6.579-8.834l0.301,1.007
				c-3.432,1.026-5.829,4.245-5.829,7.827c0,4.506,3.666,8.172,8.172,8.172s8.172-3.666,8.172-8.172c0-3.582-2.397-6.801-5.83-7.827
				l0.301-1.007c3.874,1.158,6.579,4.791,6.579,8.834C28.723,25.424,24.586,29.562,19.5,29.562z"/>
		</g>
		<g>
			<path fill="#FFFFFF" d="M19.5,12.008"/>
		</g>
	</g>
</g>
</svg>
