<?xml version="1.0" encoding="utf-8"?>
<!-- Generator: Adobe Illustrator 17.0.0, SVG Export Plug-In . SVG Version: 6.00 Build 0)  -->
<!DOCTYPE svg PUBLIC "-//W3C//DTD SVG 1.1//EN" "http://www.w3.org/Graphics/SVG/1.1/DTD/svg11.dtd">
<svg version="1.1" id="图层_1" xmlns="http://www.w3.org/2000/svg" xmlns:xlink="http://www.w3.org/1999/xlink" x="0px" y="0px"
	 width="25px" height="25px" viewBox="0 0 25 25" enable-background="new 0 0 25 25" xml:space="preserve">
<g>
	<g>
		<path fill="#FFFFFF" d="M13.813,13.708v1.164c0,0.171-0.063,0.322-0.19,0.454c-0.126,0.132-0.358,0.209-0.696,0.229
			c-0.338,0.021-0.592-0.042-0.763-0.19c-0.17-0.147-0.256-0.361-0.256-0.644v-1.04c0-0.646,0.09-1.129,0.269-1.45
			c0.18-0.32,0.428-0.613,0.745-0.877l0.45-0.353c0.288-0.223,0.545-0.478,0.771-0.767c0.226-0.288,0.325-0.578,0.295-0.873
			c-0.035-0.323-0.226-0.606-0.573-0.851C13.52,8.268,13.138,8.134,12.72,8.11c-0.494-0.023-0.898,0.062-1.212,0.256
			c-0.314,0.194-0.539,0.403-0.674,0.626c-0.135,0.224-0.235,0.491-0.3,0.802c-0.064,0.312-0.132,0.525-0.203,0.639
			s-0.179,0.198-0.326,0.251c-0.147,0.053-0.285,0.079-0.414,0.079c-0.223,0.007-0.426-0.044-0.608-0.15
			c-0.182-0.106-0.3-0.27-0.353-0.494C8.577,9.897,8.58,9.624,8.638,9.3C8.733,8.813,8.853,8.421,9,8.123
			C9.147,7.827,9.345,7.549,9.595,7.29c0.25-0.258,0.542-0.467,0.877-0.626c0.335-0.159,0.676-0.278,1.023-0.357
			c0.347-0.079,0.705-0.121,1.075-0.128c0.488-0.005,0.936,0.056,1.344,0.185c0.409,0.13,0.761,0.299,1.058,0.507
			c0.297,0.209,0.539,0.419,0.727,0.63c0.188,0.212,0.357,0.516,0.507,0.912c0.15,0.397,0.216,0.822,0.198,1.274
			c-0.023,0.465-0.128,0.863-0.313,1.195c-0.185,0.333-0.521,0.687-1.009,1.062c-0.488,0.377-0.79,0.62-0.908,0.732
			c-0.117,0.112-0.207,0.245-0.269,0.397C13.844,13.226,13.813,13.438,13.813,13.708z M12.852,18.821
			c-0.311,0.007-0.613-0.102-0.904-0.326c-0.291-0.223-0.459-0.543-0.507-0.961c-0.047-0.416,0.075-0.767,0.366-1.049
			c0.291-0.282,0.628-0.424,1.009-0.428c0.382-0.002,0.716,0.132,1.001,0.405c0.285,0.273,0.428,0.602,0.428,0.983
			c-0.006,0.4-0.15,0.73-0.432,0.987C13.531,18.692,13.211,18.821,12.852,18.821z"/>
	</g>
</g>
<g>
	<path fill="#FFFFFF" d="M12.5,24.762c-6.761,0-12.262-5.501-12.262-12.262S5.739,0.238,12.5,0.238S24.762,5.739,24.762,12.5
		S19.261,24.762,12.5,24.762z M12.5,2.142C6.789,2.142,2.142,6.789,2.142,12.5S6.789,22.858,12.5,22.858S22.858,18.212,22.858,12.5
		S18.211,2.142,12.5,2.142z"/>
</g>
</svg>
