<?xml version="1.0" encoding="utf-8"?>
<!-- Generator: Adobe Illustrator 17.0.0, SVG Export Plug-In . SVG Version: 6.00 Build 0)  -->
<!DOCTYPE svg PUBLIC "-//W3C//DTD SVG 1.1//EN" "http://www.w3.org/Graphics/SVG/1.1/DTD/svg11.dtd">
<svg version="1.1" id="图层_1" xmlns="http://www.w3.org/2000/svg" xmlns:xlink="http://www.w3.org/1999/xlink" x="0px" y="0px"
	 width="200px" height="48px" viewBox="0 0 200 48" enable-background="new 0 0 200 48" xml:space="preserve">
<g>
	<g>
		<path fill="#13438B" d="M40.387,25.554l-0.969-0.106C39.417,25.448,39.971,25.564,40.387,25.554z"/>
		<path fill="#13438B" d="M11.153,14.149h2.695c2.445,0,4.07,0.095,4.874,0.284c1.078,0.243,1.922,0.709,2.53,1.398
			c0.608,0.689,1.006,1.648,1.195,2.877c0.188,1.23,0.08,2.992-0.325,5.289c-0.405,2.297-0.927,4.11-1.567,5.441
			c-0.64,1.331-1.332,2.287-2.076,2.867c-0.744,0.581-1.624,0.993-2.64,1.236c-0.776,0.189-2.002,0.284-3.677,0.284H7.684
			l2.28-13.437H3.966L0.803,38.83H12.09c2.216,0,4.022-0.209,5.42-0.628c1.87-0.567,3.414-1.358,4.633-2.371
			c1.614-1.337,2.983-3.087,4.107-5.248c0.92-1.769,1.595-3.877,2.027-6.322c0.491-2.783,0.579-5.123,0.265-7.021
			c-0.314-1.898-0.977-3.502-1.988-4.813c-1.012-1.31-2.344-2.222-3.996-2.736c-1.23-0.378-3.081-0.567-5.554-0.567H2.21
			l-0.918,5.025H11.153z"/>
		<path fill="#13438B" d="M31.387,27.766c0.333-1.891,1.122-3.721,2.367-5.491c1.244-1.77,2.803-3.121,4.676-4.053
			c1.873-0.932,3.864-1.398,5.971-1.398c3.256,0,5.737,1.057,7.445,3.171c1.707,2.114,2.277,4.786,1.707,8.014
			c-0.574,3.256-2.1,5.954-4.578,8.095c-2.478,2.141-5.312,3.212-8.5,3.212c-1.972,0-3.775-0.446-5.407-1.337
			c-1.633-0.892-2.763-2.199-3.392-3.921C31.047,32.335,30.951,30.238,31.387,27.766z M37.169,28.07
			c-0.376,2.135-0.158,3.769,0.655,4.904c0.813,1.135,1.962,1.702,3.449,1.702c1.486,0,2.832-0.567,4.039-1.702
			c1.206-1.135,2-2.783,2.381-4.944c0.372-2.107,0.154-3.729-0.652-4.863c-0.807-1.135-1.953-1.702-3.439-1.702
			c-1.486,0-2.836,0.568-4.049,1.702C38.34,24.301,37.545,25.936,37.169,28.07z"/>
		<path fill="#13438B" d="M75.84,38.83h-5.289l0.557-3.161c-1.095,1.229-2.293,2.145-3.595,2.746s-2.56,0.902-3.776,0.902
			c-2.472,0-4.414-0.996-5.826-2.989c-1.412-1.992-1.803-4.772-1.174-8.339c0.643-3.647,1.99-6.42,4.04-8.318
			c2.05-1.898,4.386-2.847,7.007-2.847c2.404,0,4.309,1,5.712,2.999l1.887-10.699h5.694L75.84,38.83z M62.621,27.604
			c-0.405,2.297-0.381,3.958,0.073,4.985c0.656,1.486,1.809,2.229,3.457,2.229c1.31,0,2.523-0.557,3.638-1.672
			c1.115-1.114,1.868-2.779,2.259-4.995c0.436-2.472,0.304-4.252-0.396-5.339c-0.7-1.087-1.746-1.631-3.137-1.631
			c-1.351,0-2.577,0.537-3.678,1.611C63.736,23.865,62.998,25.47,62.621,27.604z"/>
	</g>
	<g>
		<path fill="#38BEED" d="M96.63,19.803l-1.082-0.118C95.548,19.685,96.165,19.814,96.63,19.803z"/>
		<path fill="#38BEED" d="M120.903,9.872c0,0-2.818-3.054-5.496-2.391c0,0-1.763,0.5-1.713-3.3c0,0,0.617-4.373-4.709-3.726
			c0,0-7.89,0.469-10.127,9.1c-0.548,2.119-0.878,4.717,5.098,6.785c0.319-0.02,0.64-0.032,0.965-0.032
			c3.633,0,6.403,1.18,8.309,3.539c0.516,0.639,0.935,1.325,1.265,2.055c-0.041-2.602-0.775-5.797-3.692-7.714
			c0,0-0.268-0.652,0.284-0.577c0,0,5.505-0.525,6.429,2.363c0.234,0.733-0.069,2.264,0.165,3.064
			c0.138,0.486,0.523,0.621,1.985-0.353C119.665,18.686,125.327,15.196,120.903,9.872z"/>
		<path fill="#38BEED" d="M90.383,28.769c0.372-2.111,1.252-4.153,2.641-6.128c1.389-1.975,3.128-3.483,5.219-4.523
			c2.091-1.04,4.312-1.56,6.664-1.56c3.633,0,6.403,1.18,8.309,3.539c1.905,2.36,2.541,5.341,1.905,8.944
			c-0.641,3.634-2.344,6.645-5.11,9.034c-2.766,2.39-5.928,3.585-9.486,3.585c-2.201,0-4.213-0.497-6.035-1.493
			c-1.823-0.995-3.084-2.454-3.785-4.376S89.897,31.528,90.383,28.769z M96.836,29.108c-0.42,2.382-0.176,4.206,0.731,5.473
			c0.907,1.266,2.19,1.899,3.849,1.899c1.658,0,3.161-0.633,4.508-1.899c1.346-1.267,2.232-3.106,2.658-5.518
			c0.415-2.352,0.172-4.161-0.728-5.428c-0.9-1.266-2.179-1.9-3.838-1.9c-1.659,0-3.165,0.633-4.519,1.9
			C98.144,24.902,97.256,26.726,96.836,29.108z"/>
		<g>
			<path fill="#38BEED" d="M97.817,41.169c0.168,0.053,0.334,0.106,0.507,0.16c0.878,0.278,2.625,1.482,2.288,2.887
				c0,0-3.123-0.08-2.137,1.107c0.17,0.205,0.394,0.488,3.093,0.244c0,0,5.019,1.276,5.831,1.331
				c0.245,0.017,1.199-0.395,0.074-0.975l-2.531-0.749c0,0,2.839-0.122,2.946-0.207c0.188-0.156,0.663-0.67-0.621-0.769
				c-0.674-0.05-2.701-0.018-2.701-0.018l2.045-0.357c0,0,0.656-0.581-0.376-0.711l-3.093-0.093c0,0-1.369-0.339-1.369-1.67
				c0,0,0.732-0.064,1.466-0.254c-0.955,0.196-1.941,0.298-2.961,0.298C99.429,41.393,98.609,41.317,97.817,41.169z"/>
			<path fill="#38BEED" d="M109.764,37.981c-1.641,1.418-3.423,2.325-5.343,2.902c0.052,0.087,0.09,0.18,0.034,0.378
				c0,0-1.82,0.072-2.1,0.409c0,0-0.596,0.708,0.507,0.739c0.52,0.015,1.564-0.187,2.08-0.119c0.825,0.11,1.892,0.617,3.207,0.86
				c0,0,1.704,0.58,2.361,0.43c0,0,0.676-0.468-0.394-0.974l-1.63-0.489c0,0,2.162,0.248,2.813-0.019
				c0.252-0.103,0.713-0.694-0.619-0.899l-1.769-0.193c-0.266-0.022-0.462-0.05-0.462-0.05l0.462,0.05
				c0.471,0.04,1.166,0.247,1.411,0.065c0.163-0.121,0.358-0.071-0.56-0.071h-2.852c0,0,4.501-2,6.75-8c0,0,0.032,0,0.077,0h-0.059
				C112.779,34,111.476,36.502,109.764,37.981z"/>
			<path fill="#38BEED" d="M108.911,41.006l-0.462-0.05C108.448,40.955,108.644,40.983,108.911,41.006z"/>
		</g>
		<path fill="#38BEED" d="M91.013,35.543c-0.701-1.922-0.809-4.263-0.322-7.022c0.205-1.164,0.571-2.307,1.085-3.429
			c-0.585,0.179-1.423,0.342-2.627,0.414c0,0-3.501-3.15-5.75,1.575c0,0-0.961,3.043,1.213,4.168c0,0-0.44,1.28,0.362,2.358
			c1.937,2.604,4.076,4.151,9.519,6.13C92.837,38.747,91.673,37.353,91.013,35.543z"/>
	</g>
	<g>
		<path fill="#13438B" d="M137.684,31.04l0.639-3.624h9.362l-1.511,8.569c-1.065,0.88-2.52,1.656-4.365,2.326
			c-1.845,0.67-3.653,1.005-5.423,1.005c-2.25,0-4.128-0.472-5.634-1.416c-1.506-0.944-2.526-2.294-3.057-4.05
			c-0.532-1.756-0.615-3.666-0.252-5.73c0.395-2.24,1.216-4.231,2.462-5.972c1.246-1.741,2.856-3.076,4.83-4.006
			c1.505-0.714,3.285-1.071,5.339-1.071c2.67,0,4.658,0.56,5.962,1.68c1.304,1.12,1.997,2.668,2.079,4.644l-4.456,0.807
			c-0.117-1.056-0.54-1.89-1.268-2.502c-0.729-0.611-1.719-0.917-2.971-0.917c-1.898,0-3.513,0.602-4.845,1.805
			c-1.332,1.203-2.207,2.989-2.624,5.356c-0.45,2.553-0.221,4.468,0.689,5.745c0.91,1.277,2.284,1.915,4.123,1.915
			c0.91,0,1.853-0.178,2.831-0.536c0.977-0.357,1.839-0.79,2.584-1.299l0.481-2.729H137.684z"/>
		<path fill="#13438B" d="M159.526,33.99l3.987,0.69c-0.794,1.507-1.83,2.654-3.109,3.441c-1.278,0.788-2.774,1.181-4.486,1.181
			c-2.71,0-4.559-0.885-5.548-2.656c-0.777-1.418-0.975-3.209-0.594-5.371c0.455-2.582,1.487-4.605,3.095-6.067
			c1.608-1.462,3.444-2.194,5.508-2.194c2.318,0,4.013,0.766,5.083,2.297c1.07,1.531,1.297,3.876,0.682,7.036h-10.33
			c-0.186,1.223-0.022,2.174,0.494,2.854c0.516,0.68,1.248,1.02,2.197,1.02c0.646,0,1.22-0.176,1.722-0.528
			C158.73,35.34,159.163,34.773,159.526,33.99z M160.496,29.823c0.181-1.193,0.033-2.101-0.444-2.722
			c-0.477-0.621-1.137-0.932-1.978-0.932c-0.9,0-1.701,0.328-2.404,0.983c-0.702,0.655-1.148,1.546-1.337,2.671H160.496z"/>
		<path fill="#13438B" d="M180.515,38.949h-4.123l1.402-7.953c0.297-1.682,0.401-2.771,0.312-3.265
			c-0.089-0.494-0.308-0.878-0.655-1.152c-0.348-0.274-0.801-0.411-1.358-0.411c-0.714,0-1.389,0.196-2.026,0.587
			c-0.637,0.391-1.117,0.91-1.441,1.555c-0.324,0.646-0.64,1.839-0.947,3.58l-1.245,7.058h-4.123l2.748-15.583h3.83l-0.404,2.289
			c1.67-1.761,3.537-2.641,5.601-2.641c0.91,0,1.712,0.164,2.408,0.492c0.695,0.328,1.191,0.746,1.488,1.255
			c0.297,0.509,0.464,1.086,0.502,1.731c0.038,0.646-0.05,1.57-0.262,2.773L180.515,38.949z"/>
		<path fill="#13438B" d="M194.596,33.99l3.987,0.69c-0.794,1.507-1.83,2.654-3.109,3.441c-1.278,0.788-2.774,1.181-4.486,1.181
			c-2.71,0-4.559-0.885-5.548-2.656c-0.777-1.418-0.975-3.209-0.594-5.371c0.455-2.582,1.487-4.605,3.095-6.067
			c1.608-1.462,3.444-2.194,5.508-2.194c2.318,0,4.013,0.766,5.083,2.297c1.07,1.531,1.297,3.876,0.682,7.036h-10.33
			c-0.186,1.223-0.022,2.174,0.494,2.854c0.516,0.68,1.248,1.02,2.197,1.02c0.646,0,1.22-0.176,1.722-0.528
			C193.8,35.34,194.233,34.773,194.596,33.99z M195.565,29.823c0.181-1.193,0.033-2.101-0.444-2.722
			c-0.477-0.621-1.137-0.932-1.978-0.932c-0.9,0-1.701,0.328-2.404,0.983c-0.702,0.655-1.148,1.546-1.337,2.671H195.565z"/>
	</g>
</g>
</svg>
