<?xml version="1.0" encoding="utf-8"?>
<!-- Generator: Adobe Illustrator 17.0.0, SVG Export Plug-In . SVG Version: 6.00 Build 0)  -->
<!DOCTYPE svg PUBLIC "-//W3C//DTD SVG 1.1//EN" "http://www.w3.org/Graphics/SVG/1.1/DTD/svg11.dtd">
<svg version="1.1" id="图层_1" xmlns="http://www.w3.org/2000/svg" xmlns:xlink="http://www.w3.org/1999/xlink" x="0px" y="0px"
	 width="38px" height="38px" viewBox="0 0 38 38" enable-background="new 0 0 38 38" xml:space="preserve">
<g>
	<path fill="#515151" d="M18.961,37.923C8.506,37.923,0,29.416,0,18.961S8.506,0,18.961,0s18.962,8.506,18.962,18.961
		S29.417,37.923,18.961,37.923z M18.961,1.86C9.532,1.86,1.86,9.532,1.86,18.961c0,9.43,7.672,17.101,17.101,17.101
		c9.43,0,17.101-7.671,17.101-17.101C36.062,9.532,28.392,1.86,18.961,1.86z"/>
	<g>
		<polygon fill="#515151" points="14.42,29.27 13.195,28.043 22.277,18.961 13.195,9.879 14.42,8.653 24.729,18.961 		"/>
	</g>
</g>
</svg>
