<?xml version="1.0" encoding="utf-8"?>
<!-- Generator: Adobe Illustrator 17.0.0, SVG Export Plug-In . SVG Version: 6.00 Build 0)  -->
<!DOCTYPE svg PUBLIC "-//W3C//DTD SVG 1.1//EN" "http://www.w3.org/Graphics/SVG/1.1/DTD/svg11.dtd">
<svg version="1.1" id="隔离模式" xmlns="http://www.w3.org/2000/svg" xmlns:xlink="http://www.w3.org/1999/xlink" x="0px"
	 y="0px" width="153.864px" height="36.005px" viewBox="0 0 153.864 36.005" enable-background="new 0 0 153.864 36.005"
	 xml:space="preserve">
<g>
	<g>
		<path fill="#FFFFFF" d="M30.437,19.482l-0.75-0.082C29.686,19.4,30.115,19.489,30.437,19.482z"/>
		<path fill="#FFFFFF" d="M8.012,10.652h2.087c1.893,0,3.151,0.073,3.773,0.22c0.835,0.188,1.488,0.549,1.958,1.082
			c0.471,0.533,0.779,1.276,0.925,2.228s0.062,2.317-0.251,4.095c-0.314,1.778-0.718,3.182-1.213,4.212s-1.031,1.77-1.607,2.22
			s-1.257,0.769-2.043,0.957c-0.601,0.147-1.55,0.22-2.847,0.22H5.327l1.765-10.403H2.449L0,29.76h8.738
			c1.715,0,3.114-0.162,4.196-0.486c1.447-0.439,2.643-1.051,3.587-1.835c1.249-1.035,2.309-2.39,3.18-4.063
			c0.712-1.37,1.235-3.001,1.569-4.894c0.38-2.154,0.448-3.966,0.206-5.436c-0.243-1.469-0.756-2.711-1.539-3.726
			c-0.783-1.014-1.815-1.72-3.094-2.118c-0.952-0.293-2.385-0.439-4.299-0.439H1.089l-0.711,3.89h7.634V10.652z"/>
		<path fill="#FFFFFF" d="M23.677,21.194c0.258-1.464,0.869-2.881,1.832-4.251c0.963-1.37,2.17-2.416,3.62-3.138
			c1.45-0.722,2.991-1.082,4.623-1.082c2.52,0,4.441,0.819,5.764,2.455c1.322,1.637,1.763,3.705,1.322,6.204
			c-0.444,2.521-1.626,4.61-3.544,6.267c-1.919,1.658-4.112,2.487-6.58,2.487c-1.527,0-2.922-0.345-4.186-1.035
			s-2.139-1.702-2.626-3.036C23.414,24.731,23.339,23.108,23.677,21.194z M28.153,21.429c-0.291,1.653-0.122,2.918,0.507,3.797
			c0.629,0.878,1.519,1.318,2.67,1.318c1.15,0,2.193-0.439,3.127-1.318c0.934-0.879,1.549-2.154,1.844-3.828
			c0.288-1.632,0.119-2.887-0.505-3.765s-1.512-1.318-2.662-1.318c-1.151,0-2.195,0.439-3.134,1.318
			C29.06,18.511,28.444,19.777,28.153,21.429z"/>
		<path fill="#FFFFFF" d="M58.091,29.759h-4.095l0.432-2.447c-0.848,0.952-1.775,1.66-2.783,2.126s-1.982,0.698-2.923,0.698
			c-1.914,0-3.417-0.771-4.51-2.314c-1.093-1.542-1.396-3.694-0.909-6.455c0.498-2.824,1.54-4.97,3.128-6.44
			c1.587-1.469,3.395-2.204,5.424-2.204c1.861,0,3.336,0.774,4.422,2.322l1.461-8.283h4.408L58.091,29.759z M47.858,21.068
			c-0.314,1.778-0.295,3.064,0.057,3.859c0.508,1.151,1.4,1.726,2.676,1.726c1.014,0,1.953-0.431,2.817-1.294
			c0.863-0.863,1.446-2.152,1.749-3.867c0.337-1.914,0.235-3.292-0.306-4.134c-0.542-0.842-1.352-1.263-2.429-1.263
			c-1.046,0-1.995,0.416-2.848,1.247C48.721,18.174,48.149,19.416,47.858,21.068z"/>
	</g>
	<g>
		<path fill="#FFFFFF" d="M73.979,15.029l-0.838-0.092C73.141,14.938,73.619,15.038,73.979,15.029z"/>
		<path fill="#FFFFFF" d="M92.77,7.341c0,0-2.182-2.364-4.255-1.851c0,0-1.365,0.387-1.326-2.554c0,0,0.478-3.386-3.645-2.885
			c0,0-6.108,0.363-7.84,7.045c-0.424,1.64-0.68,3.652,3.947,5.253c0.247-0.015,0.496-0.025,0.747-0.025
			c2.813,0,4.957,0.914,6.433,2.74c0.399,0.495,0.724,1.026,0.979,1.591c-0.032-2.014-0.6-4.488-2.858-5.972
			c0,0-0.207-0.505,0.22-0.446c0,0,4.262-0.406,4.977,1.83c0.181,0.568-0.054,1.752,0.128,2.372
			c0.107,0.376,0.405,0.481,1.536-0.273C91.812,14.165,96.196,11.462,92.77,7.341z"/>
		<path fill="#FFFFFF" d="M69.35,21.97c0.288-1.634,0.97-3.215,2.045-4.744s2.422-2.696,4.04-3.502
			c1.618-0.805,3.338-1.208,5.159-1.208c2.813,0,4.957,0.914,6.432,2.74c1.475,1.827,1.967,4.135,1.475,6.924
			c-0.496,2.813-1.815,5.145-3.956,6.994c-2.141,1.85-4.589,2.775-7.344,2.775c-1.704,0-3.261-0.385-4.672-1.156
			c-1.411-0.77-2.387-1.9-2.93-3.388S68.973,24.106,69.35,21.97z M74.346,22.233c-0.325,1.844-0.136,3.256,0.566,4.237
			c0.702,0.98,1.696,1.471,2.98,1.471s2.447-0.49,3.49-1.471c1.042-0.981,1.728-2.404,2.058-4.272
			c0.321-1.821,0.133-3.222-0.563-4.202c-0.697-0.98-1.687-1.471-2.971-1.471s-2.45,0.49-3.498,1.471
			C75.358,18.976,74.671,20.389,74.346,22.233z"/>
		<g>
			<path fill="#FFFFFF" d="M74.897,31.57c0.13,0.041,0.259,0.082,0.393,0.124c0.68,0.215,2.032,1.147,1.771,2.235
				c0,0-2.418-0.062-1.655,0.857c0.132,0.159,0.305,0.378,2.394,0.189c0,0,3.886,0.988,4.514,1.03
				c0.189,0.013,0.928-0.306,0.058-0.755l-1.959-0.58c0,0,2.198-0.094,2.281-0.16c0.145-0.121,0.513-0.519-0.481-0.595
				c-0.522-0.039-2.091-0.014-2.091-0.014l1.583-0.277c0,0,0.508-0.45-0.291-0.551l-2.394-0.072c0,0-1.06-0.262-1.06-1.293
				c0,0,0.567-0.05,1.135-0.197c-0.739,0.152-1.503,0.231-2.293,0.231C76.146,31.743,75.511,31.685,74.897,31.57z"/>
			<path fill="#FFFFFF" d="M84.146,29.211c-1.27,1.098-2.65,1.746-4.136,2.192c0.04,0.067,0.07,0.112,0.026,0.266
				c0,0-1.409,0.042-1.626,0.303c0,0-0.461,0.542,0.393,0.566c0.402,0.012,1.211-0.148,1.61-0.095
				c0.638,0.085,1.465,0.476,2.482,0.664c0,0,1.319,0.448,1.827,0.332c0,0,0.523-0.363-0.305-0.755l-1.262-0.379
				c0,0,1.674,0.192,2.178-0.015c0.195-0.08,0.552-0.537-0.479-0.696l-1.369-0.15c-0.206-0.017-0.358-0.039-0.358-0.039l0.358,0.039
				c0.365,0.031,0.903,0.203,1.092,0.062c0.126-0.093,0.277-0.043-0.434-0.043h-2.208c0,0,3.485-1,5.226-6c0,0,0.025,0,0.059,0
				h-0.046C86.481,26.463,85.472,28.066,84.146,29.211z"/>
			<path fill="#FFFFFF" d="M83.486,31.444l-0.358-0.039C83.128,31.405,83.28,31.426,83.486,31.444z"/>
		</g>
		<path fill="#FFFFFF" d="M69.63,27.215c-0.543-1.488-0.626-3.3-0.25-5.436c0.159-0.901,0.442-1.786,0.84-2.655
			c-0.453,0.138-1.102,0.264-2.034,0.32c0,0-2.71-2.438-4.451,1.219c0,0-0.744,2.356,0.939,3.227c0,0-0.341,0.991,0.28,1.825
			c1.499,2.016,3.156,3.214,7.369,4.745C71.043,29.695,70.142,28.616,69.63,27.215z"/>
	</g>
	<g>
		<path fill="#FFFFFF" d="M105.969,23.729l0.495-2.806h7.248l-1.17,6.634c-0.824,0.682-1.951,1.282-3.379,1.801
			s-2.828,0.778-4.198,0.778c-1.742,0-3.196-0.365-4.362-1.096c-1.166-0.731-1.955-1.776-2.367-3.135
			c-0.412-1.359-0.477-2.838-0.195-4.436c0.306-1.734,0.941-3.275,1.906-4.623s2.211-2.382,3.739-3.101
			c1.165-0.553,2.543-0.829,4.134-0.829c2.067,0,3.606,0.434,4.615,1.301c1.01,0.867,1.546,2.066,1.61,3.595l-3.45,0.625
			c-0.091-0.818-0.418-1.463-0.982-1.937c-0.564-0.473-1.331-0.71-2.3-0.71c-1.469,0-2.72,0.466-3.751,1.397
			s-1.709,2.314-2.032,4.146c-0.349,1.977-0.171,3.459,0.534,4.447c0.704,0.988,1.768,1.482,3.192,1.482
			c0.704,0,1.435-0.138,2.192-0.415c0.757-0.276,1.424-0.611,2-1.005l0.373-2.113H105.969z"/>
		<path fill="#FFFFFF" d="M122.878,26.012l3.087,0.534c-0.615,1.166-1.417,2.054-2.407,2.664c-0.99,0.61-2.147,0.915-3.473,0.915
			c-2.098,0-3.53-0.685-4.295-2.056c-0.602-1.098-0.755-2.484-0.46-4.158c0.353-1.999,1.151-3.565,2.396-4.697
			s2.666-1.698,4.264-1.698c1.795,0,3.106,0.593,3.935,1.778s1.004,3.001,0.528,5.447h-7.997c-0.144,0.947-0.017,1.683,0.383,2.209
			c0.399,0.527,0.966,0.79,1.701,0.79c0.5,0,0.944-0.136,1.333-0.409C122.262,27.057,122.597,26.618,122.878,26.012z
			 M123.629,22.786c0.14-0.924,0.025-1.626-0.344-2.107c-0.37-0.481-0.88-0.721-1.531-0.721c-0.697,0-1.317,0.254-1.861,0.761
			s-0.889,1.197-1.035,2.068h4.771V22.786z"/>
		<path fill="#FFFFFF" d="M139.127,29.852h-3.192l1.086-6.157c0.23-1.302,0.31-2.145,0.241-2.528
			c-0.069-0.382-0.238-0.68-0.507-0.892c-0.269-0.212-0.62-0.318-1.051-0.318c-0.553,0-1.076,0.152-1.568,0.454
			c-0.493,0.303-0.865,0.704-1.116,1.204s-0.495,1.424-0.733,2.772l-0.963,5.464h-3.192l2.127-12.064h2.965l-0.312,1.772
			c1.293-1.363,2.738-2.045,4.336-2.045c0.704,0,1.326,0.127,1.864,0.381c0.538,0.254,0.922,0.578,1.152,0.971
			c0.23,0.394,0.359,0.841,0.389,1.34c0.029,0.5-0.038,1.216-0.203,2.147L139.127,29.852z"/>
		<path fill="#FFFFFF" d="M150.028,26.012l3.087,0.534c-0.615,1.166-1.417,2.054-2.407,2.664c-0.99,0.61-2.147,0.915-3.473,0.915
			c-2.098,0-3.53-0.685-4.295-2.056c-0.602-1.098-0.755-2.484-0.46-4.158c0.353-1.999,1.151-3.565,2.396-4.697
			s2.666-1.698,4.264-1.698c1.795,0,3.106,0.593,3.935,1.778c0.828,1.185,1.004,3.001,0.528,5.447h-7.997
			c-0.144,0.947-0.017,1.683,0.383,2.209c0.399,0.527,0.967,0.79,1.701,0.79c0.5,0,0.944-0.136,1.333-0.409
			C149.412,27.057,149.747,26.618,150.028,26.012z M150.779,22.786c0.14-0.924,0.025-1.626-0.344-2.107
			c-0.37-0.481-0.88-0.721-1.531-0.721c-0.697,0-1.317,0.254-1.861,0.761s-0.889,1.197-1.035,2.068h4.771V22.786z"/>
	</g>
</g>
</svg>
