<?xml version="1.0" encoding="utf-8"?>
<!-- Generator: Adobe Illustrator 17.0.0, SVG Export Plug-In . SVG Version: 6.00 Build 0)  -->
<!DOCTYPE svg PUBLIC "-//W3C//DTD SVG 1.1//EN" "http://www.w3.org/Graphics/SVG/1.1/DTD/svg11.dtd">
<svg version="1.1" id="隔离模式" xmlns="http://www.w3.org/2000/svg" xmlns:xlink="http://www.w3.org/1999/xlink" x="0px"
	 y="0px" width="73.565px" height="73.565px" viewBox="498.889 710.419 73.565 73.565"
	 enable-background="new 498.889 710.419 73.565 73.565" xml:space="preserve">
<g>
	<rect x="498.889" y="710.419" fill="#FFFFFF" width="73.565" height="73.565"/>
	<g>
		<path fill="#595757" d="M534.665,716.638v1.677h-1.813v-3.355h1.904v-2.04h-5.531v5.667h-1.904v7.163h-1.859v-5.44h-3.717v3.627
			h-2.04v1.768h-1.632l-0.091,1.949h-7.48v1.904h-1.904v1.949h1.949v1.859h3.672v-1.904h-1.859v-1.904h1.859v1.904h1.949v-1.813
			h1.859v1.859h3.672v1.995h3.717v1.768h2.04v-1.949h-2.131v-1.904h-1.768v-1.813h1.859v1.859h3.627v-1.813h-1.768v-1.949h1.904
			v-5.485h1.859v-3.581h1.859v1.859h1.859v-1.859h1.859v-1.995h-1.95V716.638z M523.559,727.699h-1.904v1.949h-1.813l0.045-3.672
			h1.995v-2.04h1.677V727.699z"/>
		<polygon fill="#595757" points="519.977,720.491 519.977,716.683 523.695,716.683 523.695,714.87 525.372,714.87 525.372,716.593 
			527.457,716.593 527.457,712.921 523.468,712.921 523.468,714.734 519.796,714.734 519.796,716.547 518.028,716.547 
			518.028,714.598 516.124,714.598 516.033,725.705 518.073,725.705 518.073,720.491 		"/>
		<polygon fill="#595757" points="504.935,727.677 506.915,727.677 506.915,731.424 508.599,731.424 508.599,733.404 
			503.168,733.404 503.168,738.865 504.988,738.865 504.988,737.044 506.808,737.044 506.808,735.224 508.789,735.224 
			508.789,737.152 507.022,737.152 507.022,740.685 505.095,740.685 505.095,744.325 503.329,744.325 503.329,746.038 
			505.042,746.038 505.095,744.325 508.521,744.325 508.521,738.757 510.395,738.757 510.395,736.83 512.322,736.83 
			512.322,735.224 514.195,735.224 514.195,737.098 512.536,737.098 512.536,738.704 514.249,738.704 514.249,740.577 
			516.336,740.577 516.336,742.612 514.195,742.612 514.195,740.899 512.429,740.899 512.429,738.865 510.662,738.865 
			510.662,742.558 514.195,742.612 514.195,744.378 512.482,744.378 512.482,745.984 516.122,745.984 516.122,749.785 
			514.356,749.785 514.356,748.125 512.482,748.125 512.482,750.052 510.662,750.052 510.662,751.712 508.628,751.712 
			508.628,748.232 506.969,748.232 506.969,751.712 503.168,751.712 503.168,753.746 501.134,753.746 501.134,749.945 
			504.881,749.945 504.881,748.125 503.061,748.125 503.061,746.359 501.241,746.359 501.241,744.378 503.008,744.378 
			503.008,742.558 501.241,742.558 501.241,731.424 503.168,731.424 503.168,729.871 504.988,729.871 		"/>
		<polygon fill="#595757" points="516.318,735.17 518.002,735.17 518.002,737.09 519.76,737.09 519.76,735.049 525.318,735.049 
			525.318,736.75 521.859,736.75 521.859,740.72 523.617,740.72 523.617,738.792 525.545,738.792 525.545,736.807 529.175,736.807 
			529.175,742.535 523.73,742.535 523.73,744.35 525.262,744.35 525.262,748.036 526.736,748.036 526.736,750.078 525.488,750.078 
			525.488,748.32 523.447,748.32 523.447,744.52 521.802,744.52 521.802,742.535 519.874,742.535 519.874,744.52 521.405,744.52 
			521.405,748.093 522.993,748.093 522.993,750.192 525.035,750.192 525.035,751.61 523.56,751.61 523.56,753.708 529.118,753.708 
			529.118,759.266 536.435,759.266 536.435,761.081 534.676,761.081 534.676,762.953 536.661,762.953 536.661,766.299 
			538.647,766.299 538.647,764.881 540.518,764.881 540.518,761.081 542.333,761.081 542.333,757.508 544.205,757.508 
			544.205,762.783 542.447,762.783 542.447,766.526 540.348,766.526 540.348,768.397 534.96,768.397 534.96,766.753 
			530.933,766.753 530.933,764.881 532.975,764.881 532.975,762.839 530.876,762.839 530.876,760.968 525.375,760.968 
			525.375,762.896 530.656,762.896 530.656,764.672 525.346,764.672 525.346,768.479 523.513,768.479 523.513,765.001 
			521.821,765.001 521.821,763.074 523.654,763.074 523.654,759.221 525.44,759.221 525.44,755.414 523.607,755.414 
			523.654,759.221 521.633,759.221 521.633,755.508 519.988,755.508 519.988,759.033 516.182,759.033 516.182,757.435 
			517.827,757.435 517.827,753.675 521.633,753.675 521.633,749.822 519.8,749.822 519.8,746.25 517.874,746.25 517.874,740.705 
			519.847,740.705 519.847,738.778 517.968,738.778 518.002,737.09 516.182,737.09 		"/>
		<polygon fill="#595757" points="567.971,744.479 567.971,742.559 566.155,742.559 566.155,744.324 564.286,744.324 
			564.286,748.008 560.809,748.008 560.809,744.428 558.889,744.428 558.889,742.611 560.654,742.611 560.654,740.639 
			562.418,740.639 562.418,742.404 564.234,742.404 564.234,740.847 566.206,740.847 566.206,736.695 564.39,736.695 
			564.39,738.926 560.757,738.926 560.757,740.328 558.889,740.328 558.889,742.3 556.917,742.3 556.917,744.376 555.204,744.376 
			555.204,742.559 556.657,742.559 556.657,740.691 558.422,740.691 558.422,738.823 560.446,738.823 560.446,737.006 
			558.733,737.006 558.733,735.138 555.256,735.138 555.256,737.162 551.52,737.162 551.52,740.847 553.128,740.847 
			553.128,739.134 554.997,739.134 554.997,740.587 553.44,740.587 553.44,742.559 551.416,742.559 551.416,746.452 
			549.444,746.452 549.444,749.513 547.887,749.513 547.887,748.216 546.018,748.216 546.018,746.4 547.575,746.4 547.575,740.691 
			545.915,740.691 545.915,738.978 549.547,738.978 549.547,736.902 545.966,736.902 545.966,733.477 547.887,733.477 
			547.887,731.349 540.258,731.349 540.258,727.717 542.126,727.717 542.126,729.689 544.046,729.689 544.046,722.319 
			542.23,722.319 542.23,718.323 540.413,718.323 540.413,716.714 544.15,716.714 544.15,714.794 545.811,714.794 545.811,716.611 
			547.627,716.611 547.627,720.243 545.915,720.243 545.915,718.427 543.943,718.427 543.943,720.191 545.707,720.191 
			545.707,722.215 547.679,722.215 547.679,720.451 549.547,720.451 549.547,718.686 551.52,718.686 551.52,712.926 
			547.523,712.926 547.523,714.69 545.811,714.69 545.811,712.926 543.891,712.926 543.891,714.586 540.413,714.586 
			540.413,712.926 538.441,712.926 538.441,718.427 540.154,718.427 540.154,723.876 542.178,723.876 542.178,726.004 
			540.258,726.004 540.258,724.084 538.493,724.084 538.493,726.056 536.625,726.056 536.625,721.904 532.785,721.904 
			532.785,723.669 530.923,723.669 530.923,725.855 532.777,725.855 532.777,723.909 534.63,723.909 534.63,727.801 529.18,727.801 
			529.18,729.649 532.684,729.649 532.684,733.269 534.63,733.269 534.63,729.469 536.391,729.469 536.391,727.894 538.337,727.894 
			538.337,733.176 536.762,733.176 536.762,738.18 538.152,738.18 538.152,737.068 540.191,737.068 540.191,742.443 
			544.732,742.443 546.029,742.443 546.029,746.15 543.527,746.15 543.527,748.282 545.932,748.282 545.932,750.114 
			547.682,750.114 547.682,751.591 543.715,751.591 543.715,755.442 549.432,755.442 549.432,753.614 547.682,753.614 
			547.682,751.786 549.743,751.786 549.743,749.88 553.166,749.88 553.166,751.63 551.494,751.63 551.494,755.52 549.627,755.52 
			549.627,757.27 556.939,757.27 556.939,759.175 558.805,759.175 558.805,762.87 560.75,762.87 560.75,755.559 562.578,755.559 
			562.578,753.717 566.362,753.717 566.362,751.953 568.334,751.953 568.334,750.136 569.995,750.136 569.995,744.479 		"/>
		<polygon fill="#595757" points="509.024,753.68 510.634,753.68 510.634,755.512 512.298,755.512 512.298,753.549 514.304,753.549 
			514.304,755.469 516.224,755.469 516.224,757.435 514.346,757.435 514.346,755.512 512.511,755.512 512.511,757.346 
			514.175,757.346 514.175,758.968 512.426,758.968 512.426,761.144 514.304,761.144 514.304,759.267 516.266,759.267 
			516.266,762.936 510.634,762.936 510.634,761.059 508.628,761.059 508.628,759.224 510.634,759.224 510.634,757.389 
			508.628,757.389 508.628,753.762 506.665,753.762 506.665,751.712 509.024,751.712 		"/>
		<polygon fill="#595757" points="549.556,735.233 551.197,735.233 551.197,733.347 553.165,733.347 553.165,731.378 
			555.133,731.378 555.133,733.511 560.464,733.511 560.464,729.41 568.091,729.41 568.091,731.46 566.369,731.46 566.369,733.511 
			568.009,733.511 568.009,735.069 566.369,735.069 566.369,737.119 568.173,737.119 568.173,741.056 569.977,741.056 
			569.977,729.41 568.501,729.41 568.501,727.36 558.742,727.36 558.742,729.328 556.937,729.328 556.937,731.542 555.133,731.378 
			555.133,729.738 551.443,729.738 551.443,732.936 549.556,732.936 		"/>
		<polygon fill="#595757" points="560.71,735.315 562.514,735.315 562.514,733.182 564.401,733.182 564.401,737.037 560.71,737.037 
					"/>
		<polygon fill="#595757" points="551.525,727.688 555.051,727.688 555.051,722.275 553.329,722.275 553.329,725.719 
			551.443,725.719 551.443,724.161 549.638,724.161 549.638,726.047 551.38,726.047 		"/>
		<polygon fill="#595757" points="545.942,724.088 547.755,724.133 547.755,727.623 549.522,727.623 549.522,729.934 
			547.71,729.934 547.71,727.94 545.806,727.94 		"/>
		<polygon fill="#595757" points="556.939,759.278 555.286,759.278 555.286,761.083 553.411,761.083 553.411,759.208 
			551.397,759.208 551.397,762.82 549.66,762.82 549.66,761.361 547.785,761.361 547.785,758.93 549.66,758.93 549.66,757.472 
			545.909,757.472 545.84,763.098 544.034,763.098 544.034,764.626 545.909,764.626 545.909,768.446 547.785,768.446 
			547.785,770.599 549.66,770.599 549.66,766.362 547.646,766.362 547.646,763.098 549.521,763.098 549.521,764.904 
			553.411,764.904 553.411,762.681 556.939,762.681 		"/>
		<polygon fill="#595757" points="562.578,755.559 564.455,755.559 564.455,757.333 566.608,757.333 566.608,755.666 
			568.205,755.666 568.205,753.929 569.942,753.929 569.942,757.402 568.136,757.402 568.136,758.93 569.942,758.93 
			569.942,764.834 566.052,764.834 566.052,763.028 568.344,763.028 568.344,761.083 566.122,761.083 566.122,759.139 
			562.44,759.139 		"/>
		<path fill="#595757" d="M564.316,768.307v-1.806h-1.806v-1.598h1.806v-3.751h-1.667l-0.347,3.334h-3.496v-1.459h-2.2v1.875h-3.473
			v5.696h-3.612v3.403h1.736v3.403h2.084v-3.612h5.348v2.153h1.736v-1.667h2.014v-2.153h2.014v-1.945h1.667v-1.875h-1.804V768.307z
			 M560.565,772.127h-5.418v-5.487h5.418V772.127z"/>
		<polygon fill="#595757" points="501.37,761.094 503.173,761.094 503.173,759.366 501.37,759.366 501.37,757.488 503.173,757.488 
			503.173,759.141 505.126,759.141 505.126,761.319 508.732,761.319 508.732,762.596 510.634,762.596 510.634,764.849 
			508.581,764.849 508.581,766.502 506.779,766.502 506.779,764.549 505.126,764.549 505.126,766.652 501.37,766.652 
			501.37,764.699 504.75,764.699 504.75,762.821 501.37,762.821 		"/>
		<polygon fill="#595757" points="516.243,766.652 518.121,766.652 518.121,764.624 516.393,764.624 516.393,762.936 
			518.121,762.936 518.121,761.169 519.548,761.169 519.548,759.033 521.633,759.033 521.633,762.821 519.999,762.821 
			519.999,766.652 521.801,766.652 521.801,768.305 523.513,768.305 523.513,770.258 521.952,770.258 521.952,768.755 
			518.121,768.755 518.121,772.286 516.243,772.286 		"/>
		<polygon fill="#595757" points="516.243,775.966 517.971,775.966 517.971,773.938 519.848,773.938 519.848,770.258 
			521.952,770.258 521.952,772.135 523.679,772.135 523.679,770.258 525.332,770.258 525.332,773.938 523.379,773.938 
			523.379,775.891 521.801,775.891 521.801,774.164 519.924,774.164 519.924,777.619 523.604,777.619 523.604,779.497 
			521.576,779.497 521.576,781.299 519.698,781.299 519.698,777.844 516.243,777.844 		"/>
		<polygon fill="#595757" points="544.07,775.734 549.415,775.734 549.415,777.664 547.708,777.664 547.708,779.891 
			545.926,779.891 545.926,777.887 543.922,777.887 		"/>
		<polygon fill="#595757" points="549.786,777.813 551.345,777.813 551.345,779.817 553.052,779.817 553.052,777.813 
			555.353,777.813 555.353,775.957 556.912,775.957 556.912,778.036 555.377,778.036 555.377,781.352 549.784,781.352 		"/>
		<polygon fill="#595757" points="557.01,779.511 558.851,779.511 558.851,777.6 560.518,777.6 560.518,775.759 562.567,775.759 
			562.567,774.127 566.284,774.127 566.284,775.898 564.408,775.898 564.408,777.67 562.463,777.67 562.463,779.58 564.443,779.58 
			564.443,781.63 560.657,781.63 560.657,779.545 558.885,779.545 558.885,781.421 557.044,781.421 		"/>
		<polygon fill="#595757" points="566.527,773.988 568.09,773.988 568.09,770.306 570.105,770.306 570.105,766.623 566.423,766.623 
			566.423,768.464 568.09,768.464 568.09,770.167 566.122,770.167 566.122,773.988 		"/>
		<polygon fill="#595757" points="568.231,774.167 568.185,775.887 566.343,775.887 566.343,777.684 570.012,777.684 
			570.012,773.954 568.215,773.954 		"/>
		<polygon fill="#595757" points="540.338,770.414 542.244,770.414 542.244,768.473 544.042,768.473 544.042,770.486 
			545.876,770.486 545.876,772.069 543.754,772.069 543.754,774.262 547.853,774.262 547.853,770.199 545.984,770.199 
			545.984,768.329 544.042,768.329 544.042,766.639 542.172,766.639 542.172,768.149 540.302,768.149 		"/>
		<polygon fill="#595757" points="538.432,772.176 542.1,772.176 542.1,773.866 540.338,773.866 540.338,775.952 542.208,775.952 
			542.208,777.966 540.374,777.966 540.374,779.908 538.216,779.908 538.216,777.75 540.086,777.75 540.086,776.096 
			538.468,776.096 		"/>
		<polygon fill="#595757" points="529.2,770.167 532.714,770.167 532.714,768.359 534.677,768.359 534.677,770.425 536.64,770.425 
			536.64,772.234 534.522,772.234 534.522,770.787 532.662,770.787 532.662,774.249 530.957,774.249 530.957,777.865 
			532.972,777.865 532.972,776.109 534.677,776.109 534.677,777.865 536.537,777.865 536.537,779.932 527.289,779.932 
			527.289,781.482 523.724,781.482 523.724,779.57 527.289,779.57 527.289,777.917 525.635,777.917 525.635,773.887 
			527.134,773.887 527.134,777.452 528.994,777.452 528.994,774.042 530.802,774.042 530.802,772.389 529.097,772.389 
			529.097,773.835 527.34,773.835 527.34,772.027 529.2,772.027 		"/>
		<polygon fill="#595757" points="504.892,757.327 506.766,757.327 506.766,759.358 508.628,759.358 508.628,757.389 
			506.922,757.389 506.922,755.218 504.892,755.218 		"/>
		<polygon fill="#595757" points="516.294,751.86 518.09,751.86 518.09,750.142 519.808,750.142 519.808,751.787 518.233,751.787 
			518.233,753.675 516.25,753.675 		"/>
		<polygon fill="#595757" points="534.771,757.322 536.501,757.322 536.501,759.2 538.528,759.2 538.528,757.519 540.357,757.519 
			540.357,756.234 534.721,756.234 		"/>
		<polygon fill="#595757" points="530.598,737.027 532.586,737.027 532.586,738.22 534.772,738.22 534.772,734.94 532.784,734.94 
			532.784,733.269 530.995,733.269 530.995,731.362 529.044,731.362 529.044,733.151 530.598,733.151 		"/>
		<rect x="516.211" y="731.556" fill="#595757" width="2.033" height="2.033"/>
		<rect x="512.587" y="750.204" fill="#595757" width="1.856" height="1.856"/>
		<rect x="512.411" y="764.609" fill="#595757" width="2.121" height="2.121"/>
		<rect x="527.258" y="766.554" fill="#595757" width="3.624" height="2.033"/>
		<rect x="531.058" y="756.213" fill="#595757" width="1.944" height="1.149"/>
		<rect x="553.33" y="714.764" fill="#595757" width="1.591" height="5.479"/>
		<rect x="555.274" y="727.844" fill="#595757" width="1.679" height="1.679"/>
		<rect x="549.618" y="740.79" fill="#595757" width="1.902" height="1.902"/>
		<rect x="557.13" y="768.233" fill="#595757" width="1.944" height="1.944"/>
		<rect x="542.106" y="779.457" fill="#595757" width="2.121" height="2.121"/>
		<rect x="568.266" y="779.634" fill="#595757" width="1.944" height="1.944"/>
		<path fill="#595757" d="M556.858,712.773V726.1h13.326v-13.326L556.858,712.773L556.858,712.773z M568.01,724.02h-9.168v-9.168
			h9.168V724.02z"/>
		<rect x="560.827" y="716.648" fill="#595757" width="5.576" height="5.576"/>
		<path fill="#595757" d="M501.173,712.773V726.1H514.5v-13.326L501.173,712.773L501.173,712.773z M512.326,724.02h-9.168v-9.168
			h9.168V724.02z"/>
		<rect x="505.143" y="716.648" fill="#595757" width="5.576" height="5.576"/>
		<path fill="#595757" d="M501.173,768.181v13.326H514.5v-13.326H501.173z M512.326,779.428h-9.168v-9.168h9.168V779.428z"/>
		<rect x="505.143" y="772.056" fill="#595757" width="5.576" height="5.576"/>
		<g>
			<path fill="#898989" d="M543.954,755.977c0,0.459-0.372,0.83-0.83,0.83h-15.836c-0.459,0-0.83-0.372-0.83-0.83v-15.836
				c0-0.459,0.372-0.83,0.83-0.83h15.836c0.459,0,0.83,0.372,0.83,0.83V755.977z"/>
			<path fill="#FFFFFF" d="M543.56,755.621c0,0.438-0.355,0.793-0.793,0.793h-15.123c-0.438,0-0.793-0.355-0.793-0.793v-15.123
				c0-0.438,0.355-0.793,0.793-0.793h15.123c0.438,0,0.793,0.355,0.793,0.793V755.621z"/>
			<g>
				<path fill="#13438B" d="M539.703,745.891c1.216-1.247,1.197-3.239-0.036-4.464c-1.225-1.233-3.217-1.252-4.464-0.036
					c-0.597,0.582-0.723,1.086-0.876,1.744c-0.097,0.417-0.321,0.832-0.62,1.176c-0.344,0.299-0.758,0.523-1.176,0.62
					c-0.658,0.153-1.162,0.279-1.744,0.876c-0.004,0.004-0.008,0.008-0.012,0.013c-0.01,0.01-0.021,0.02-0.031,0.03
					c-1.233,1.225-1.251,3.217-0.036,4.464c0.582,0.597,1.086,0.723,1.744,0.876c0.417,0.097,0.832,0.321,1.176,0.62
					c0.299,0.344,0.523,0.758,0.62,1.176c0.153,0.658,0.279,1.162,0.876,1.744c1.247,1.216,3.239,1.197,4.464-0.036
					c1.233-1.225,1.252-3.217,0.036-4.464c-0.582-0.597-1.086-0.723-1.744-0.876c-0.417-0.097-0.832-0.321-1.176-0.62
					c-0.157-0.18-0.292-0.38-0.4-0.589c0.117-0.27,0.281-0.529,0.479-0.756c0.344-0.299,0.758-0.523,1.176-0.62
					c0.492-0.114,0.898-0.213,1.314-0.506"/>
				<g>
					<path fill="#40BFEC" d="M532.009,745.555c0,0-0.491-0.903,1.382-1.394c0,0,3.073-0.674,3.325-1.394
						c0,0,0.571,0.903-1.725,1.405C534.991,744.173,532.272,744.732,532.009,745.555z"/>
					<path fill="#D3D5E4" d="M531.978,747.286c0,0-0.491-0.903,1.382-1.394c0,0,3.073-0.674,3.324-1.394
						c0,0,0.571,0.903-1.725,1.405C534.96,745.904,532.241,746.464,531.978,747.286z"/>
					<path fill="#40BFEC" d="M531.757,751.417c0,0,0.022-1.26,3.626-1.687c0,0,1.201-0.224,1.273-0.814c0,0,0.499-1.069-1.639-1.761
						c0,0-2.817-0.837-3.007-1.599c0,0-0.302,0.815,1.123,1.385c0,0,2.565,0.804,2.993,1.344c0,0,0.804,0.784-1.364,1.12
						c0,0-1.415,0.234-1.955,0.448C532.807,749.852,531.559,750.186,531.757,751.417z"/>
					<path fill="#D3D5E4" d="M531.757,753.094c0,0,0.022-1.26,3.626-1.687c0,0,1.201-0.224,1.273-0.814c0,0,0.499-1.069-1.639-1.761
						c0,0-2.817-0.837-3.007-1.599c0,0-0.302,0.815,1.123,1.385c0,0,2.565,0.804,2.993,1.344c0,0,0.804,0.784-1.364,1.12
						c0,0-1.415,0.234-1.955,0.448C532.807,751.529,531.559,751.864,531.757,753.094z"/>
				</g>
			</g>
		</g>
	</g>
</g>
</svg>
