<?xml version="1.0" encoding="utf-8"?>
<!-- Generator: Adobe Illustrator 17.0.0, SVG Export Plug-In . SVG Version: 6.00 Build 0)  -->
<!DOCTYPE svg PUBLIC "-//W3C//DTD SVG 1.1//EN" "http://www.w3.org/Graphics/SVG/1.1/DTD/svg11.dtd">
<svg version="1.1" id="icons" xmlns="http://www.w3.org/2000/svg" xmlns:xlink="http://www.w3.org/1999/xlink" x="0px" y="0px"
	 width="44px" height="50.991px" viewBox="0 0 44 50.991" enable-background="new 0 0 44 50.991" xml:space="preserve">
<path fill="#FFFFFF" d="M42.124,37.991c-1.104,0-2-0.896-2-2c0-5.421-8.243-10-18-10s-18,4.579-18,10c0,1.104-0.896,2-2,2
	s-2-0.896-2-2c0-7.851,9.663-14,22-14s22,6.149,22,14C44.124,37.096,43.228,37.991,42.124,37.991z"/>
<path fill="#FFFFFF" d="M22.124,26c-7.168,0-13-5.832-13-13s5.832-13,13-13s13,5.832,13,13S29.292,26,22.124,26z M22.124,4
	c-4.963,0-9,4.038-9,9s4.037,9,9,9s9-4.038,9-9S27.087,4,22.124,4z"/>
<path fill="#FFFFFF" d="M41.095,50.991H3.154c-1.816,0-3.279-1.879-3.279-3.435v-6.565c0-1.104,0.896-2,2-2s2,0.896,2,2v6h36v-6
	c0-1.104,0.896-2,2-2s2,0.896,2,2v6.565C43.874,49.579,42.732,50.991,41.095,50.991z"/>
</svg>
