<?xml version="1.0" encoding="utf-8"?>
<!-- Generator: Adobe Illustrator 17.0.0, SVG Export Plug-In . SVG Version: 6.00 Build 0)  -->
<!DOCTYPE svg PUBLIC "-//W3C//DTD SVG 1.1//EN" "http://www.w3.org/Graphics/SVG/1.1/DTD/svg11.dtd">
<svg version="1.1" id="隔离模式" xmlns="http://www.w3.org/2000/svg" xmlns:xlink="http://www.w3.org/1999/xlink" x="0px"
	 y="0px" width="106.727px" height="57.415px" viewBox="156.069 165.538 106.727 57.415"
	 enable-background="new 156.069 165.538 106.727 57.415" xml:space="preserve">
<g>
	<g>
		<path fill="#13438B" d="M193.598,186.021c4.611-4.731,4.539-12.286-0.137-16.932c-4.646-4.675-12.201-4.747-16.932-0.136
			c-2.265,2.206-2.742,4.117-3.322,6.614c-0.368,1.583-1.217,3.155-2.351,4.46c-1.305,1.135-2.876,1.984-4.46,2.351
			c-2.497,0.58-4.408,1.057-6.614,3.321c-0.015,0.016-0.029,0.032-0.044,0.048c-0.039,0.038-0.08,0.074-0.118,0.113
			c-4.675,4.646-4.747,12.201-0.136,16.932c2.207,2.265,4.118,2.742,6.614,3.321c1.583,0.368,3.155,1.217,4.46,2.351
			c1.134,1.305,1.984,2.876,2.351,4.46c0.579,2.497,1.057,4.408,3.321,6.615c4.731,4.611,12.286,4.539,16.932-0.137
			c4.675-4.646,4.747-12.201,0.137-16.932c-2.207-2.265-4.118-2.742-6.614-3.321c-1.583-0.368-3.155-1.217-4.46-2.351
			c-0.595-0.684-1.108-1.442-1.518-2.236c0.444-1.024,1.066-2.005,1.816-2.868c1.305-1.135,2.876-1.984,4.46-2.351
			c1.866-0.433,3.405-0.809,4.985-1.917"/>
		<g>
			<path fill="#38BEED" d="M164.705,184.579c0,0-1.834-3.369,5.16-5.202c0,0,11.471-2.516,12.409-5.202c0,0,2.132,3.369-6.439,5.245
				C175.835,179.419,165.686,181.509,164.705,184.579z"/>
			<path fill="#D3D5E4" d="M164.589,191.041c0,0-1.834-3.369,5.16-5.202c0,0,11.471-2.516,12.409-5.202c0,0,2.132,3.369-6.439,5.245
				C175.719,185.881,165.57,187.971,164.589,191.041z"/>
			<path fill="#38BEED" d="M163.762,206.46c0,0,0.082-4.702,13.533-6.298c0,0,4.484-0.836,4.75-3.04c0,0,1.862-3.99-6.118-6.574
				c0,0-10.514-3.123-11.223-5.969c0,0-1.126,3.043,4.193,5.171c0,0,9.575,3.002,11.171,5.016c0,0,3.002,2.926-5.092,4.18
				c0,0-5.282,0.874-7.296,1.672C167.682,200.618,163.025,201.866,163.762,206.46z"/>
			<path fill="#D3D5E4" d="M163.762,212.719c0,0,0.082-4.702,13.533-6.298c0,0,4.484-0.836,4.75-3.04c0,0,1.862-3.99-6.118-6.574
				c0,0-10.514-3.123-11.223-5.969c0,0-1.126,3.043,4.193,5.171c0,0,9.575,3.002,11.171,5.016c0,0,3.002,2.926-5.092,4.18
				c0,0-5.282,0.874-7.296,1.672C167.682,206.878,163.025,208.126,163.762,212.719z"/>
		</g>
	</g>
	<g>
		<path fill="#13438B" d="M209.789,183.612c-0.792,0.284-1.604,0.569-2.417,0.833v5.159c0,1.178-0.203,1.767-0.894,2.112
			c-0.671,0.386-1.646,0.447-3.087,0.447c-0.062-0.629-0.387-1.584-0.671-2.193c0.812,0.02,1.646,0.02,1.909,0.02
			c0.284,0,0.386-0.102,0.386-0.386v-4.367c-0.711,0.244-1.381,0.467-2.03,0.67l-0.69-2.295c0.771-0.203,1.705-0.487,2.721-0.772
			v-3.392h-2.559v-2.234h2.559v-3.838h2.356v3.838h2.152v2.234h-2.152v2.64c0.67-0.223,1.32-0.447,1.99-0.67L209.789,183.612z
			 M215.312,176.971c-0.446,1.584-0.975,3.229-1.665,4.772h6.986v10.48h-2.376v-1.036h-4.732v1.138h-2.274v-6.418
			c-0.467,0.609-0.954,1.158-1.462,1.666c-0.387-0.528-1.117-1.401-1.585-1.869c2.255-2.071,3.778-5.605,4.55-8.733h-3.128v-2.295
			h11.678v2.295H215.312z M218.258,184.018h-4.732v4.915h4.732V184.018z"/>
		<path fill="#13438B" d="M234.643,187.43c1.442,1.563,3.798,2.396,7.189,2.66c-0.528,0.528-1.157,1.564-1.441,2.254
			c-4.083-0.548-6.54-1.889-8.186-4.509c-1.056,2.194-3.29,3.636-8.326,4.468c-0.163-0.65-0.731-1.666-1.198-2.173
			c3.96-0.528,5.869-1.401,6.864-2.701h-5.829v-2.173h6.702c0.062-0.325,0.122-0.69,0.163-1.056h-7.475v-2.092h7.799v-1.076h-6.011
			v-2.031h6.011v-1.036h-6.945v-2.132h3.636c-0.305-0.609-0.731-1.259-1.138-1.788l2.152-0.853c0.63,0.711,1.26,1.686,1.523,2.376
			l-0.589,0.264h4.468c0.508-0.792,1.117-1.849,1.442-2.641l2.6,0.67c-0.447,0.711-0.914,1.381-1.36,1.97h3.736v2.132h-7.027v1.036
			h6.215v2.031h-6.215v1.076h8.084v2.092h-8.348c-0.04,0.366-0.102,0.711-0.162,1.056h8.062v2.173h-6.396V187.43z"/>
		<path fill="#13438B" d="M249.688,186.313c-0.244-0.569-0.731-1.422-1.219-2.234v8.246h-2.336v-7.312
			c-0.67,1.564-1.422,3.006-2.214,4.021c-0.223-0.69-0.751-1.686-1.116-2.295c1.137-1.3,2.274-3.473,3.006-5.443h-2.742v-2.254
			h3.066v-2.295c-0.792,0.122-1.543,0.244-2.295,0.325c-0.081-0.548-0.386-1.34-0.649-1.869c2.315-0.345,4.854-0.975,6.539-1.666
			l1.361,1.97c-0.792,0.305-1.686,0.548-2.62,0.751v2.782h2.681v2.254h-2.681v0.163c0.589,0.569,2.254,2.478,2.64,2.945
			L249.688,186.313z M259.7,187.186v5.118h-2.377v-4.691l-6.133,1.056l-0.386-2.295l6.519-1.117v-11.901h2.377v11.495l2.01-0.345
			l0.387,2.254L259.7,187.186z M254.603,184.363c-0.63-0.894-2.052-2.193-3.229-3.107l1.543-1.381
			c1.158,0.812,2.661,2.071,3.331,2.945L254.603,184.363z M255.13,179.001c-0.568-0.873-1.889-2.173-3.025-3.046l1.584-1.381
			c1.097,0.833,2.519,2.031,3.127,2.924L255.13,179.001z"/>
	</g>
	<g>
		<path fill="#13438B" d="M202.562,210.509c0-1.756,1.158-2.932,2.389-3.583v-0.09c-0.995-0.706-1.792-1.701-1.792-3.113
			c0-2.081,1.61-3.438,3.801-3.438c2.316,0,3.764,1.448,3.764,3.529c0,1.357-0.923,2.516-1.755,3.131v0.091
			c1.194,0.688,2.244,1.719,2.244,3.529c0,1.973-1.737,3.493-4.308,3.493C204.407,214.056,202.562,212.572,202.562,210.509z
			 M209.239,210.509c0-1.629-1.466-2.244-3.275-2.986c-0.924,0.633-1.557,1.629-1.557,2.787c0,1.321,1.104,2.244,2.533,2.244
			C208.298,212.554,209.239,211.758,209.239,210.509z M208.968,203.94c0-1.23-0.742-2.154-2.045-2.154c-1.086,0-1.9,0.742-1.9,1.937
			c0,1.448,1.267,2.117,2.751,2.696C208.569,205.677,208.968,204.827,208.968,203.94z"/>
		<path fill="#13438B" d="M212.911,208.862c0-3.33,2.226-5.248,4.687-5.248c2.462,0,4.688,1.918,4.688,5.248
			c0,3.293-2.226,5.194-4.688,5.194C215.137,214.056,212.911,212.156,212.911,208.862z M220.149,208.862
			c0-2.117-0.977-3.529-2.552-3.529c-1.556,0-2.533,1.412-2.533,3.529c0,2.099,0.978,3.493,2.533,3.493
			C219.173,212.355,220.149,210.961,220.149,208.862z"/>
		<path fill="#13438B" d="M224.727,203.868h1.701l0.163,1.393h0.054c0.851-0.905,1.846-1.646,3.077-1.646
			c1.483,0,2.316,0.688,2.75,1.828c0.978-1.05,1.991-1.828,3.239-1.828c2.082,0,3.059,1.412,3.059,3.945v6.262h-2.081v-6.008
			c0-1.719-0.543-2.407-1.665-2.407c-0.688,0-1.411,0.452-2.244,1.357v7.058h-2.081v-6.008c0-1.719-0.524-2.407-1.665-2.407
			c-0.669,0-1.411,0.452-2.243,1.357v7.058h-2.063v-9.954H224.727z"/>
		<path fill="#13438B" d="M241.481,200.773c0-0.742,0.561-1.23,1.321-1.23s1.339,0.488,1.339,1.23c0,0.724-0.579,1.23-1.339,1.23
			C242.042,202.003,241.481,201.497,241.481,200.773z M241.771,203.868h2.063v9.953h-2.063V203.868z"/>
		<path fill="#13438B" d="M246.258,208.862c0-3.33,2.299-5.248,4.923-5.248c1.267,0,2.189,0.506,2.913,1.14l-1.031,1.357
			c-0.543-0.488-1.104-0.778-1.792-0.778c-1.664,0-2.859,1.412-2.859,3.529c0,2.099,1.141,3.493,2.806,3.493
			c0.832,0,1.574-0.398,2.172-0.905l0.851,1.375c-0.905,0.814-2.082,1.23-3.222,1.23
			C248.321,214.056,246.258,212.156,246.258,208.862z"/>
		<path fill="#13438B" d="M255.269,212.681l0.978-1.339c0.887,0.706,1.755,1.14,2.823,1.14c1.194,0,1.755-0.579,1.755-1.339
			c0-0.905-1.122-1.303-2.208-1.719c-1.32-0.507-2.841-1.212-2.841-2.896c0-1.665,1.339-2.914,3.529-2.914
			c1.339,0,2.425,0.543,3.239,1.176l-0.978,1.285c-0.688-0.506-1.394-0.869-2.226-0.869c-1.086,0-1.593,0.543-1.593,1.23
			c0,0.851,1.031,1.177,2.117,1.575c1.394,0.525,2.932,1.14,2.932,3.022c0,1.665-1.321,3.022-3.782,3.022
			C257.64,214.056,256.228,213.477,255.269,212.681z"/>
	</g>
</g>
</svg>
