<?xml version="1.0" encoding="utf-8"?>
<!-- Generator: Adobe Illustrator 17.0.0, SVG Export Plug-In . SVG Version: 6.00 Build 0)  -->
<!DOCTYPE svg PUBLIC "-//W3C//DTD SVG 1.1//EN" "http://www.w3.org/Graphics/SVG/1.1/DTD/svg11.dtd">
<svg version="1.1" id="图层_1" xmlns="http://www.w3.org/2000/svg" xmlns:xlink="http://www.w3.org/1999/xlink" x="0px" y="0px"
	 width="1455.118px" height="1141.116px" viewBox="0 0 1455.118 1141.116" enable-background="new 0 0 1455.118 1141.116"
	 xml:space="preserve">
<g>
	<g>
		<path fill="#FFFFFF" d="M1023.407,469.795c-15.242,28.572-32.772,53.341-46.104,83.822c-43.814,1.141-60.963-24.77-97.926-30.48
			c-17.52,126.112-3.048,285.761-7.621,424.065c-242.701,0-485.406,0-728.112,0c0-141.353,0-282.712,0-424.065
			c-32.769,10.283-67.06,19.051-91.445,37.716C25.147,542.948,22.482,500.275,0,477.414C157.741,309.383,342.152,167.646,500.272,0
			C684.304,146.694,844.708,317.004,1023.407,469.795z M866.808,405.399c-120.017-110.11-237.372-221.75-344.056-330.72
			c-7.62,0-14.859,0-22.48,0C386.73,189.745,273.95,291.479,158.502,397.78c-32.767,29.718-92.205,42.296-77.346,97.162
			c37.72,10.667,77.727-19.436,124.592-25.146c0,146.686-4.572,293.381-4.572,439.689c60.58-1.908,45.341,10.284,86.872,0
			c0-148.979,0-297.576,0-446.933c49.913,4.572,121.161-10.285,159.264,7.243c0,146.686,0,293.381,0,439.689
			c75.821,1.902,273.188-0.383,373.012,0c5.335-143.646-9.905-298.715,7.622-430.167c33.528,6.857,97.54,37.338,116.968,8.004
			C964.347,436.264,897.667,434.356,866.808,405.399z"/>
		<path fill="#FFFFFF" d="M765.457,462.552c0,80.774,0,161.933,0,242.325c-83.062,0-166.884,0-250.325,0
			c0-80.392,0-161.55,0-242.325C598.573,462.552,682.396,462.552,765.457,462.552z"/>
	</g>
	<path fill="#FFFFFF" d="M1148.758,69.728c-168.023-85.347-357.39-76.965-512.464,3.427L679.35,156.6
		c129.545-67.442,286.901-74.678,426.736-3.432c229.753,117.353,321.197,398.165,204.6,627.912
		c-117.353,229.755-397.776,320.814-628.29,204.223c-36.956-19.05-68.962-43.435-99.062-70.105l-62.487,69.345
		c35.815,32.004,74.3,61.723,118.877,84.207c276.617,140.591,613.435,30.481,754.408-245.374
		C1534.346,547.52,1424.612,210.705,1148.758,69.728z"/>
</g>
</svg>
