<?xml version="1.0" encoding="utf-8"?>
<!-- Generator: Adobe Illustrator 17.0.0, SVG Export Plug-In . SVG Version: 6.00 Build 0)  -->
<!DOCTYPE svg PUBLIC "-//W3C//DTD SVG 1.1//EN" "http://www.w3.org/Graphics/SVG/1.1/DTD/svg11.dtd">
<svg version="1.1" id="图层_1" xmlns="http://www.w3.org/2000/svg" xmlns:xlink="http://www.w3.org/1999/xlink" x="0px" y="0px"
	 width="67px" height="53px" viewBox="0 0 67 53" enable-background="new 0 0 67 53" xml:space="preserve">
<g>
	<path fill-rule="evenodd" clip-rule="evenodd" fill="#FFFFFF" d="M20.684,13.569c0,1.69,0,3.361,0,5.033c2.57,0,5.141,0,7.711,0
		c0.611-1.132,0.09-3.433,0.252-5.033c1.851,0,3.739,0,5.572,0c-1.33,10.407,7.316,13.912,9.329,21.534
		c0.719,2.75,0,5.644,0.252,9.85c-12.672,0-25.344,0-38.034,0c-2.067-10.839,5.159-18.137,9.329-25.272c0-2.049,0-4.08,0-6.111
		C16.946,13.569,18.815,13.569,20.684,13.569z M17.485,25.522c1.15,0,2.301,0,3.451,0c-0.054-0.899,0.216-2.139-0.252-2.642
		c-1.078,0-2.139,0-3.2,0C17.485,23.76,17.485,24.641,17.485,25.522z M23.075,25.522c1.042-0.162,2.822,0.342,3.451-0.252
		c-0.396-0.072,0.431-1.977-0.27-2.391c-1.042,0-2.139,0-3.181,0C23.075,23.76,23.075,24.641,23.075,25.522z M28.396,25.522
		c1.132,0,2.301,0,3.433,0c-0.054-0.899,0.216-2.139-0.234-2.642c-1.097,0-2.139,0-3.199,0
		C28.396,23.76,28.396,24.641,28.396,25.522z M17.485,29.782c1.15,0,2.301,0,3.451,0c-0.054-0.899,0.216-2.157-0.252-2.66
		c-1.078,0-2.139,0-3.2,0C17.485,28.02,17.485,28.901,17.485,29.782z M23.075,29.782c1.15,0,2.283,0,3.451,0
		c-0.396-0.989,0.359-1.69-0.27-2.66c-1.042,0-2.139,0-3.181,0C23.075,28.02,23.075,28.901,23.075,29.782z M28.396,29.782
		c1.132,0,2.301,0,3.433,0c-0.054-0.899,0.216-2.157-0.234-2.66c-1.097,0-2.139,0-3.199,0C28.396,28.02,28.396,28.901,28.396,29.782
		z M17.485,33.772c1.15,0,2.301,0,3.451,0c0-0.881,0-1.762,0-2.66c-1.15,0-2.301,0-3.451,0
		C17.485,32.011,17.485,32.891,17.485,33.772z M23.075,33.772c1.15,0,2.283,0,3.451,0c0-0.881,0-1.762,0-2.66
		c-1.168,0-2.301,0-3.451,0C23.075,32.011,23.075,32.891,23.075,33.772z M28.396,33.772c1.132,0,2.301,0,3.433,0
		c0-0.881,0-1.762,0-2.66c-1.132,0-2.301,0-3.433,0C28.396,32.011,28.396,32.891,28.396,33.772z"/>
	<path fill-rule="evenodd" clip-rule="evenodd" fill="#FFFFFF" d="M12.434,16.211c3.972,8.538-14.506,11.791-12.241,1.618
		C4.148,19.321,9.9,18.458,12.434,16.211z"/>
	<path fill-rule="evenodd" clip-rule="evenodd" fill="#FFFFFF" d="M36.61,16.211c2.894,1.833,8.179,2.858,12.528,1.618
		C50.738,27.661,33.285,24.767,36.61,16.211z"/>
	<path fill-rule="evenodd" clip-rule="evenodd" fill="#FFFFFF" d="M0.445,16.211c0.252-3.307,1.69-5.41,2.678-7.963
		c11.504-4.566,31.6-4.638,43.067,0c1.15,2.498,2.391,4.889,2.948,7.963c-0.054,0.306-0.288,0.162-0.288,0
		c-2.984,1.941-9.796-0.108-12.241-1.06c-3.254-5.069-20.941-5.77-23.637,0.288c-1.977-0.288-6.201,2.409-9.85,1.851
		C2.098,17.128,1.433,16.481,0.445,16.211z"/>
</g>
<path fill="#FFFFFF" d="M52.032,2.982c-7.891-4.008-16.824-3.631-24.158,0.18l2.049,3.918c6.094-3.164,13.517-3.505,20.096-0.162
	c10.893,5.536,15.171,18.802,9.67,29.622c-5.536,10.839-18.766,15.135-29.64,9.634c-1.743-0.899-3.253-2.049-4.655-3.307
	l-2.966,3.271c1.69,1.51,3.523,2.912,5.626,3.972c13.032,6.633,28.939,1.456,35.572-11.558C70.241,25.522,65.064,9.632,52.032,2.982
	z"/>
</svg>
