<?xml version="1.0" encoding="utf-8"?>
<!-- Generator: Adobe Illustrator 17.0.0, SVG Export Plug-In . SVG Version: 6.00 Build 0)  -->
<!DOCTYPE svg PUBLIC "-//W3C//DTD SVG 1.1//EN" "http://www.w3.org/Graphics/SVG/1.1/DTD/svg11.dtd">
<svg version="1.1" id="图层_1" xmlns="http://www.w3.org/2000/svg" xmlns:xlink="http://www.w3.org/1999/xlink" x="0px" y="0px"
	 width="791px" height="380px" viewBox="0 0 791 380" enable-background="new 0 0 791 380" xml:space="preserve">
<g>
	<g>
		<g>
			<path fill="#40BEEB" d="M346.668,352.168c1.436-0.593,2.083-1.635,2.044-3.186c-0.027-1.086-0.659-2.292-1.654-2.781
				c-2.11-1.038-3.932-0.407-5.382,1.531c-2.05,2.74-1.118,7.17,0.304,9.936c1.168,2.272,3.418,3.353,5.736,4.14
				c3.278,1.114,6.906-0.701,9.629-2.431c2.18-1.384,3.87-3.685,4.811-6.062c0.93-2.349,0.543-4.972-1.452-6.605
				c-0.878-0.719-2.043-1.15-3.061-1.622c-0.438-0.203-0.878-0.424-1.334-0.586c-0.749-0.265-1.521,0.48-2.068,0.974
				c-2.256,2.036-2.401,5.607-2.09,8.398c0.343,3.071,1.453,6.232,3.361,8.681c1.498,1.923,4.229,3.043,6.509,3.721
				c3.734,1.111,7.527-0.779,9.165-4.207c0.478-1.001,0.552-1.923-0.494-2.428c-1.165-0.563-2.045-1.201-3.348-0.853
				c-2.445,0.654-4.391,2.65-4.971,5.085c-0.977,4.1,1.627,8.371,5.252,10.103c1.873,0.895,3.62,1.886,5.67,0.894
				c2.502-1.212,4.179-4.564,4.292-7.238c0.097-2.303-1.806-3.84-3.885-4.376c-1.253-0.323-2.294,0.928-2.741,1.915
				c-0.616,1.358-0.217,3.108,0.94,4.034c0.173,0.138,0.463,0.147,0.625,0.294c-2.191-1.994,0.009-6.707,3.006-5.449
				c-0.437-0.206-0.873-0.412-1.309-0.619c3.569,2.097,0.797,7.044-1.349,9.187c-0.989,0.987-2.251,1.549-3.646,1.573
				c-1.143,0.019-2.573-0.996-0.216,0.383c-0.559-0.327-1.051-0.76-1.508-1.214c-1.952-1.943-3.03-4.842-2.803-7.581
				c0.115-1.391,0.702-2.68,1.609-3.729c0.994-1.15,3.177-2.622,4.733-2.233c-0.805-0.379-1.61-0.758-2.416-1.137
				c1.134,0.651-0.135,2.582-0.583,3.301c-1.047,1.679-2.772,2.7-4.658,3.164c-0.87,0.214-1.779,0.209-2.665,0.137
				c-0.456-0.037-0.903-0.145-1.345-0.251c-1.393-0.333,0.811,0.611,0.008,0.023c-1.143-0.837-1.964-2.103-2.645-3.321
				c-1.582-2.827-2.356-6.185-2.231-9.413c0.055-1.426,0.392-2.829,1.036-4.102c0.299-0.591,0.72-1.105,1.184-1.571
				c0.234-0.236,0.507-0.428,0.778-0.618c0.735-0.518,1.301-0.205,0.14-0.879c5.207,3.024,1.057,10.045-2.188,12.781
				c-2.28,1.922-5.663,3.641-8.697,3.23c-3.489-0.471-4.844-5.755-4.96-8.639c-0.101-2.506,1.752-7.909,5.254-6.316
				c-0.267-0.127-0.534-0.253-0.801-0.38c2.293,1.396,1.957,4.641-0.022,6.138C346.294,351.916,346.586,352.202,346.668,352.168
				L346.668,352.168z"/>
		</g>
	</g>
	<g>
		<g>
			<path fill="#40BEEB" d="M621.497,59.148c-1.94-0.199-3.275,0.568-4.155,2.306c-0.616,1.217-0.635,2.925,0.173,4.058
				c1.715,2.403,4.103,2.79,6.859,1.511c3.896-1.808,5.502-7.259,5.576-11.163c0.061-3.207-1.783-5.74-3.876-7.989
				c-2.961-3.182-8.05-3.334-12.089-3.043c-3.233,0.232-6.471,1.77-8.925,3.838c-2.426,2.043-3.558,5.172-2.326,8.165
				c0.543,1.317,1.574,2.487,2.418,3.615c0.363,0.486,0.718,0.991,1.126,1.441c0.67,0.739,1.967,0.374,2.865,0.154
				c3.705-0.907,5.991-4.768,7.307-8.039c1.448-3.599,2.102-7.752,1.451-11.595c-0.512-3.018-2.864-5.88-4.98-7.987
				c-3.466-3.45-8.783-3.618-12.633-0.804c-1.124,0.822-1.755,1.796-0.899,2.978c0.953,1.315,1.545,2.545,3.193,2.935
				c3.092,0.733,6.43-0.316,8.52-2.663c3.52-3.951,3.183-10.22,0.207-14.293c-1.538-2.104-2.879-4.239-5.735-4.362
				c-3.487-0.15-7.334,2.557-9.051,5.446c-1.478,2.487-0.289,5.319,1.69,7.148c1.193,1.102,3.087,0.339,4.169-0.485
				c1.488-1.135,2.089-3.306,1.361-5.018c-0.109-0.256-0.424-0.438-0.515-0.697c1.235,3.507-4.002,7.408-6.565,4.234
				c0.36,0.488,0.72,0.976,1.079,1.463c-2.696-4.442,3.311-8.26,6.958-9.351c1.68-0.503,3.41-0.372,4.966,0.432
				c1.275,0.659,2.251,2.632,0.467-0.295c0.423,0.694,0.709,1.465,0.944,2.239c1.002,3.31,0.468,7.155-1.413,10.047
				c-0.955,1.469-2.371,2.545-3.998,3.164c-1.783,0.68-5.071,1.007-6.56-0.348c0.665,0.898,1.329,1.796,1.993,2.694
				c-0.867-1.395,1.686-2.774,2.608-3.301c2.156-1.233,4.67-1.335,7.032-0.725c1.089,0.281,2.09,0.828,3.027,1.434
				c0.482,0.312,0.912,0.697,1.338,1.077c1.342,1.198-0.533-1.158,0.005-0.03c0.765,1.606,0.919,3.494,0.947,5.244
				c0.066,4.066-1.076,8.238-3.135,11.732c-0.909,1.543-2.117,2.894-3.587,3.917c-0.682,0.475-1.453,0.792-2.244,1.032
				c-0.399,0.121-0.816,0.171-1.228,0.22c-1.121,0.135-1.56-0.547-0.678,0.888c-3.956-6.441,4.809-11.732,10.024-12.824
				c3.664-0.767,8.426-0.654,11.535,1.605c3.575,2.597,1.929,9.243,0.341,12.5c-1.379,2.83-6.643,7.699-9.566,3.854
				c0.22,0.299,0.44,0.598,0.66,0.897c-1.703-2.907,0.599-6.294,3.677-6.771C621.761,59.649,621.608,59.159,621.497,59.148
				L621.497,59.148z"/>
		</g>
	</g>
	<g>
		<g>
			<g>
				<polygon fill="#40BEEB" points="242.005,312.861 238.027,329.709 458.585,329.709 458.585,335.648 674.733,335.648 
					746.751,100.942 607.41,100.942 590.025,78.024 242.005,78.024 221.231,112.796 72.663,112.796 11.813,311.94 				"/>
				<polygon fill="#11438A" points="241.034,79.785 591.36,79.785 607.41,101.78 745.367,101.78 703.726,237.567 716.516,232.851 
					758.871,92.004 620.472,92.004 605.125,69.237 247.291,69.237 				"/>
				<polygon fill="#11438A" points="452.95,335.648 674.67,335.648 705.302,237.179 701.928,221.62 464.62,275.604 				"/>
				<polygon fill="#11438A" points="72.663,112.796 79.061,104.746 226.04,104.746 221.231,112.796 				"/>
			</g>
			<g>
				<g>
					<path fill="#FFFFFF" d="M303.432,147.448h-69.253l9.522-17.746h-32.029l-25.97,41.119h-58.865l4.328-6.493h6.06l3.896-12.552
						h10.821l-3.246,12.552h30.947l4.761-12.552h10.821l5.627-19.477h-11.254l4.328-15.149h-31.164l-4.328,15.149h-13.418
						l5.627-15.149h-34.626l-3.03,15.149H96.538l-4.943,19.129h14.352l-2.126,11.96h-4.784l-27.64,48.104h10.631l-15.149,56.875
						l52.357,0.266l19.721-67.081H112.12l6.493-11.686h29.865l-24.671,83.104H64.942l-6.06,18.612h90.895l26.836-91.327
						l9.955,37.656l-33.761,53.671h29.865l10.821-17.313l5.627,17.313h32.462l-13.851-56.701l53.671-85.268l6.06,21.209h32.029
						L303.432,147.448z M102.954,249.372h-8.945l8.945-28.49h7.288L102.954,249.372z M210.373,200.91l-2.342-9.838h-28.22
						l1.673-4.997h28.109l11.868-20.457h8.745L210.373,200.91z"/>
					<polygon fill="#FFFFFF" points="261.056,175.367 307.117,175.367 284.087,259.113 290.367,259.113 286.18,275.862 
						242.446,293.542 269.896,192.116 249.89,192.116 					"/>
					<polygon fill="#FFFFFF" points="346.198,170.249 315.026,170.249 318.748,156.342 351.316,156.342 354.573,146.521 
						384.814,146.521 382.488,156.342 415.056,156.342 410.403,170.249 379.852,170.249 377.144,175.367 404.452,175.367 
						400.841,190.29 373.308,190.29 371.051,195.706 405.129,195.706 401.067,212.633 301.089,212.633 306.054,196.158 
						340.132,196.158 342.389,190.064 309.491,189.387 315.758,175.367 344.194,175.367 					"/>
					<path fill="#FFFFFF" d="M304.93,217.423l-24.412,87.273h30.21l9.155-33.872h28.379l-1.831,10.07h28.379l19.109-63.471H304.93z
						 M351.618,256.177h-28.379l1.526-5.798h28.379L351.618,256.177z M358.894,238.177h-30.792l1.79-6.624h31.329L358.894,238.177z"
						/>
					<polygon fill="#FFFFFF" points="326.29,284.556 379.692,284.556 395.865,261.059 422.718,261.059 393.919,304.696 
						320.493,304.696 					"/>
					<polygon fill="#FFFFFF" points="593.533,212.633 630.043,212.633 633.173,244.077 646.212,244.077 656.122,207.045 
						589.882,207.045 595.62,188.79 662.381,188.79 666.553,179.577 696.805,179.577 693.675,188.79 707.758,188.79 
						703.585,207.566 689.503,207.566 673.334,261.059 626.392,261.059 621.698,250.379 598.227,250.379 					"/>
					<path fill="#FFFFFF" d="M717.146,139.762l4.694-17.733h-31.816l3.129-15.647H658.73l-4.173,13.561h-34.945l-4.173,20.932
						h33.381l-4.172,15.468h-36.51l9.91-12.929h-17.733l29.208-37.032h-32.859l-37.553,40.14h19.298L549.2,186.703l9.91-37.553
						h-60.502l-30.251,107.027l-12.518,26.701v-20.024H426.63v26.6h25.557l-10.953,11.996h27.643l23.992-34.424l7.302-22.949h4.694
						l-14.604,57.373h25.557l31.816-110.573h8.867l-19.298,70.183h34.424l20.863-76.963h-4.287l15.815-22.503l-1.097,13.774H711.93
						l5.216-19.025h-37.032l3.651-16.58H717.146z M511.71,229.835h-7.815l7.125-24.824h7.125L511.71,229.835z M522.85,189.55h-7.815
						l7.126-24.824h7.125L522.85,189.55z"/>
					<path fill="#FFFFFF" d="M491.276,147.844h-28.338l-4.408,16.881h-10.705l4.828-16.881h-27.079l-4.618,16.881h-5.9
						l-5.015,14.851h6.297l-17.423,62.098h-7.767l-4.408,14.502h78.507l5.038-14.922h-6.717l17.003-61.678h6.927l3.778-14.851
						h-5.878L491.276,147.844z M436.467,241.842h-11.501l3.882-12.076h12.11L436.467,241.842z M443.353,216.176h-10.577
						l3.905-12.261h10.577L443.353,216.176z M451.084,189.55h-10.127l2.25-9.973h10.352L451.084,189.55z"/>
					<polygon fill="#FFFFFF" points="536.907,265.912 675.175,265.912 664.645,304.485 527.292,304.485 					"/>
				</g>
				<g>
					<path fill="#11438A" d="M540.019,296.951l3.737-21.194h4.28l-3.737,21.194H540.019z"/>
					<path fill="#11438A" d="M551.971,275.815h4.062l-0.512,2.907c-0.208,1.175-0.473,2.103-0.795,2.783
						c-0.321,0.679-0.811,1.288-1.47,1.828c-0.66,0.54-1.45,0.964-2.372,1.272l-0.5-1.675c0.868-0.27,1.516-0.641,1.947-1.115
						c0.429-0.471,0.726-1.117,0.89-1.937h-1.966L551.971,275.815z"/>
					<path fill="#11438A" d="M558.975,281.598h3.745l-0.37,2.097c1.627-1.63,3.366-2.444,5.215-2.444
						c0.983,0,1.801,0.203,2.452,0.608c0.652,0.405,1.137,1.017,1.455,1.836c0.818-0.819,1.654-1.431,2.507-1.836
						c0.852-0.405,1.721-0.608,2.607-0.608c1.129,0,2.041,0.23,2.742,0.687c0.701,0.458,1.164,1.13,1.393,2.017
						c0.165,0.655,0.117,1.715-0.14,3.181l-1.731,9.815h-4.062l1.547-8.774c0.269-1.523,0.301-2.507,0.1-2.95
						c-0.273-0.578-0.802-0.868-1.582-0.868c-0.567,0-1.134,0.174-1.696,0.521c-0.563,0.347-1.014,0.856-1.354,1.526
						c-0.339,0.67-0.636,1.727-0.891,3.174l-1.3,7.371h-4.062l1.484-8.414c0.263-1.493,0.36-2.457,0.292-2.891
						c-0.068-0.435-0.235-0.757-0.501-0.969c-0.265-0.212-0.66-0.319-1.179-0.319c-0.626,0-1.22,0.169-1.782,0.506
						c-0.56,0.339-1.004,0.825-1.334,1.461c-0.328,0.636-0.624,1.69-0.884,3.166l-1.315,7.459h-4.062L558.975,281.598z"/>
					<path fill="#11438A" d="M590.466,292.57l4.187-0.62c0.034,0.788,0.279,1.391,0.737,1.8c0.458,0.409,1.165,0.614,2.12,0.614
						c1.05,0,1.874-0.193,2.472-0.578c0.405-0.27,0.647-0.632,0.726-1.085c0.054-0.309,0.003-0.564-0.154-0.766
						c-0.169-0.193-0.591-0.371-1.265-0.535c-3.15-0.724-5.11-1.384-5.881-1.982c-1.069-0.828-1.473-1.981-1.212-3.455
						c0.235-1.33,0.957-2.448,2.167-3.354c1.21-0.906,2.919-1.36,5.125-1.36c2.101,0,3.603,0.343,4.504,1.026
						c0.901,0.684,1.426,1.697,1.576,3.036l-3.957,0.709c-0.058-0.598-0.288-1.056-0.689-1.373
						c-0.402-0.319-1.027-0.478-1.875-0.478c-1.071,0-1.862,0.15-2.378,0.448c-0.346,0.212-0.549,0.487-0.609,0.825
						c-0.051,0.289,0.041,0.535,0.275,0.736c0.319,0.27,1.516,0.652,3.593,1.142c2.078,0.493,3.483,1.095,4.215,1.808
						c0.72,0.722,0.967,1.731,0.74,3.021c-0.248,1.407-1.05,2.616-2.405,3.629c-1.354,1.011-3.182,1.517-5.485,1.517
						c-2.093,0-3.674-0.424-4.743-1.272C591.179,295.178,590.585,294.026,590.466,292.57z"/>
					<path fill="#11438A" d="M608.043,289.058c0.238-1.35,0.801-2.656,1.689-3.919c0.887-1.261,1.998-2.225,3.335-2.891
						c1.337-0.664,2.757-0.998,4.261-0.998c2.322,0,4.093,0.755,5.311,2.263c1.219,1.509,1.624,3.414,1.218,5.719
						c-0.409,2.322-1.499,4.247-3.266,5.776c-1.769,1.527-3.788,2.29-6.063,2.29c-1.407,0-2.693-0.317-3.859-0.954
						c-1.165-0.635-1.971-1.567-2.419-2.797C607.8,292.317,607.731,290.821,608.043,289.058z M612.168,289.274
						c-0.267,1.524-0.112,2.689,0.467,3.499c0.582,0.809,1.401,1.214,2.461,1.214c1.06,0,2.021-0.405,2.882-1.214
						c0.86-0.81,1.427-1.986,1.698-3.529c0.266-1.501,0.111-2.658-0.466-3.468c-0.575-0.81-1.393-1.215-2.453-1.215
						s-2.022,0.405-2.889,1.215C613.005,286.586,612.436,287.751,612.168,289.274z"/>
					<path fill="#11438A" d="M629.568,296.951h-4.062l2.707-15.353h3.772l-0.385,2.183c0.829-1.03,1.528-1.711,2.102-2.039
						c0.574-0.327,1.188-0.491,1.844-0.491c0.923,0,1.77,0.257,2.538,0.767l-1.882,3.543c-0.606-0.444-1.204-0.666-1.79-0.666
						c-0.57,0-1.079,0.155-1.53,0.47c-0.451,0.313-0.86,0.879-1.233,1.698c-0.371,0.819-0.786,2.534-1.246,5.148L629.568,296.951z"
						/>
					<path fill="#11438A" d="M641.089,296.951h-4.062l2.707-15.353h3.772l-0.385,2.183c0.829-1.03,1.528-1.711,2.102-2.039
						c0.574-0.327,1.188-0.491,1.844-0.491c0.923,0,1.77,0.257,2.538,0.767l-1.882,3.543c-0.606-0.444-1.204-0.666-1.79-0.666
						c-0.57,0-1.079,0.155-1.53,0.47c-0.451,0.313-0.86,0.879-1.233,1.698c-0.371,0.819-0.786,2.534-1.246,5.148L641.089,296.951z"
						/>
					<path fill="#11438A" d="M649.506,281.598h4.323l1.75,10.901l5.507-10.901h4.207l-8.026,14.775l-1.441,2.675
						c-0.514,0.896-0.975,1.58-1.381,2.053c-0.406,0.473-0.845,0.855-1.315,1.149c-0.473,0.293-1.027,0.522-1.669,0.687
						c-0.64,0.163-1.347,0.244-2.118,0.244c-0.78,0-1.531-0.081-2.255-0.244l0.2-3.182c0.613,0.127,1.176,0.189,1.686,0.189
						c0.945,0,1.692-0.278,2.244-0.83c0.551-0.555,1.022-1.261,1.414-2.118L649.506,281.598z"/>
				</g>
			</g>
			<g>
				<defs>
					<rect id="SVGID_1_" x="50.336" y="202.799" width="664.507" height="103.988"/>
				</defs>
				<clipPath id="SVGID_2_">
					<use xlink:href="#SVGID_1_"  overflow="visible"/>
				</clipPath>
				<g clip-path="url(#SVGID_2_)">
					<g>
						<path fill="#F2F2F2" d="M303.527,147.428h-69.253l9.522-17.746h-32.029l-25.97,41.119h-58.865l4.328-6.492h6.06l3.896-12.552
							h10.821l-3.246,12.552h30.947l4.761-12.552h10.821l5.627-19.477h-11.254l4.328-15.149h-31.164l-4.328,15.149h-13.418
							l5.627-15.149h-34.626l-3.03,15.149H96.634l-4.943,19.129h14.352l-2.126,11.96h-4.784l-27.64,48.104h10.631l-15.149,56.875
							l52.357,0.266l19.721-67.081h-26.836l6.493-11.686h29.865l-24.671,83.104H65.037l-6.06,18.612h90.895l26.836-91.327
							l9.955,37.656l-33.761,53.671h29.865l10.821-17.313l5.627,17.313h32.462l-13.851-56.701l53.671-85.268l6.06,21.209h32.029
							L303.527,147.428z M103.049,249.353h-8.945l8.945-28.49h7.288L103.049,249.353z M210.469,200.89l-2.342-9.838h-28.22
							l1.673-4.997h28.109l11.868-20.457h8.745L210.469,200.89z"/>
						<polygon fill="#F2F2F2" points="261.152,175.347 307.212,175.347 284.182,259.093 290.463,259.093 286.276,275.842 
							242.542,293.522 269.992,192.097 249.986,192.097 						"/>
						<polygon fill="#F2F2F2" points="346.293,170.23 315.121,170.23 318.843,156.322 351.411,156.322 354.668,146.502 
							384.909,146.502 382.583,156.322 415.151,156.322 410.498,170.23 379.948,170.23 377.24,175.347 404.547,175.347 
							400.936,190.27 373.403,190.27 371.146,195.687 405.224,195.687 401.162,212.613 301.184,212.613 306.149,196.138 
							340.228,196.138 342.484,190.045 309.587,189.368 315.854,175.347 344.29,175.347 						"/>
						<path fill="#F2F2F2" d="M305.025,217.403l-24.412,87.273h30.21l9.155-33.872h28.379l-1.831,10.07h28.379l19.109-63.471
							H305.025z M351.713,256.157h-28.379l1.526-5.798h28.379L351.713,256.157z M358.989,238.157h-30.792l1.79-6.624h31.329
							L358.989,238.157z"/>
						<polygon fill="#F2F2F2" points="326.386,284.536 379.787,284.536 395.96,261.039 422.813,261.039 394.014,304.676 
							320.588,304.676 						"/>
						<polygon fill="#F2F2F2" points="593.629,212.613 630.139,212.613 633.268,244.057 646.308,244.057 656.217,207.025 
							589.978,207.025 595.715,188.77 662.476,188.77 666.649,179.557 696.9,179.557 693.771,188.77 707.853,188.77 
							703.681,207.547 689.598,207.547 673.429,261.039 626.488,261.039 621.794,250.359 598.323,250.359 						"/>
						<path fill="#F2F2F2" d="M717.241,139.742l4.694-17.733H690.12l3.129-15.647h-34.424l-4.173,13.561h-34.945l-4.173,20.932
							h33.381l-4.173,15.468h-36.51l9.91-12.929h-17.733l29.208-37.032h-32.859l-37.553,40.14h19.298l-29.208,40.182l9.91-37.553
							h-60.502l-30.251,107.027l-12.518,26.701v-20.024h-29.208v26.6h25.557l-10.953,11.996h27.643l23.992-34.424l7.302-22.949
							h4.694l-14.604,57.373h25.557l31.816-110.573h8.867l-19.298,70.183h34.424l20.863-76.963h-4.287l15.815-22.503l-1.097,13.774
							h109.009l5.216-19.025H680.21l3.651-16.58H717.241z M511.806,229.815h-7.815l7.125-24.824h7.125L511.806,229.815z
							 M522.945,189.53h-7.815l7.126-24.824h7.125L522.945,189.53z"/>
						<path fill="#F2F2F2" d="M491.372,147.825h-28.338l-4.408,16.881H447.92l4.828-16.881h-27.079l-4.618,16.881h-5.9
							l-5.015,14.851h6.297l-17.423,62.098h-7.767l-4.408,14.502h78.507l5.038-14.922h-6.717l17.003-61.678h6.927l3.778-14.851
							h-5.878L491.372,147.825z M436.562,241.822h-11.501l3.882-12.076h12.11L436.562,241.822z M443.448,216.156h-10.577
							l3.905-12.261h10.577L443.448,216.156z M451.179,189.53h-10.127l2.25-9.973h10.352L451.179,189.53z"/>
					</g>
				</g>
			</g>
		</g>
		<g>
			<path fill="#11438A" d="M272.707,117.746c-0.092,1.397-0.032,3.495,0.194,4.543c-8.992,5.504-10.669,6.64-11.697,7.646
				c-0.17-1.092-1.048-2.927-1.621-3.67c1.152-0.83,2.892-2.491,3.55-4.806l3.936-13.849h-6.248l1.416-4.98h11.315l-4.993,17.563
				L272.707,117.746z M270.777,100.402c-0.484-2.141-2.017-5.504-3.207-8.082l4.583-2.751c1.351,2.314,2.986,5.635,3.537,7.687
				L270.777,100.402z M299.798,111.891c-2.835,3.059-6.146,5.942-9.748,8.476c1.993,2.052,4.22,4.369,5.363,6.03l-4.983,3.232
				c-0.969-1.659-3.026-4.107-5.039-6.248c-4.794,2.885-10.084,5.201-15.636,6.904c-0.296-1.268-1.14-3.364-1.791-4.458
				c10.949-3.013,21.261-9.173,27.087-15.988L299.798,111.891z M299.903,102.762c-6.512,7.382-15.714,13.936-25.726,17.648
				c-0.331-1.135-1.214-3.103-1.802-4.106c4.871-1.616,9.642-4.108,13.77-6.946c-7.182,0.524-8.711,0.829-9.827,1.223
				c0.11-1.31,0.031-3.802-0.07-4.98c1.21-0.262,3.127-0.701,4.16-1.573c0.942-0.699,3.398-3.189,5.291-5.242h-8.257l1.341-4.719
				h11.098c-0.078-1.266-0.273-2.577-0.461-3.757l5.515-1.266c0.439,1.528,0.723,3.452,0.712,5.024h8.781l-1.341,4.719h-11.533
				c-1.882,2.009-4.025,4.324-5.982,6.29l6.29-0.305c1.279-1.266,2.455-2.49,3.483-3.801L299.903,102.762z"/>
			<path fill="#11438A" d="M319.153,118.008c-6.251,1.704-13.039,3.451-18.217,4.762l0.261-5.373
				c1.904-0.394,4.224-0.875,6.713-1.485l4.818-16.952h-5.68l1.391-4.893h16.427l-1.391,4.893h-5.592l-4.458,15.684
				c2.159-0.524,4.317-1.049,6.476-1.573L319.153,118.008z M346.423,98.611c0,0-0.497,1.747-0.714,2.359
				c-5.553,17.693-7.847,24.071-10.015,26.169c-1.54,1.573-2.769,2.053-4.503,2.314c-1.548,0.22-3.908,0.22-6.329,0.132
				c0.335-1.485,0.343-3.67-0.12-5.111c2.222,0.176,4.363,0.176,5.368,0.176c0.786,0,1.261-0.132,1.915-0.744
				c1.428-1.179,3.473-6.684,7.74-20.315h-5.854c-4.058,11.665-9.212,20.883-20.407,26.605c-0.401-1.353-1.484-3.232-2.477-4.193
				c9.842-4.806,14.23-12.407,17.642-22.412h-5.899l1.416-4.979h6.117c0.801-2.665,1.62-5.549,2.465-8.52h5.286
				c-0.832,2.928-1.695,5.811-2.508,8.52H346.423z"/>
			<path fill="#11438A" d="M362.02,124.867c-0.645,2.272-1.443,3.539-3.138,4.281c-1.678,0.83-3.744,0.875-6.321,0.875
				c0.123-1.355-0.093-3.364-0.401-4.588c1.549,0.086,3.265,0.043,3.844,0c0.525,0,0.737-0.131,0.886-0.656l0.832-2.927h-6.509
				l-2.348,8.257h-4.806l7.128-25.077h16.47L362.02,124.867z M368.606,92.013c1.165,2.972,2.288,6.86,2.206,9.611l-5.253,1.879
				c0.055-0.656,0.003-1.399-0.078-2.184c-10.777,0.874-12.568,1.179-13.828,1.617c0.024-1.006-0.154-3.454-0.369-4.85
				c0.748-0.176,1.609-0.743,2.625-1.704c0.905-0.875,3.827-3.933,5.969-7.166l5.094,1.442c-1.931,2.49-4.412,5.068-6.667,7.166
				l6.489-0.394c-0.282-1.31-0.697-2.622-1.058-3.802L368.606,92.013z M358.814,118.008l0.721-2.534h-6.509l-0.721,2.534H358.814z
				 M354.777,109.314l-0.658,2.315h6.508l0.659-2.315H354.777z M377.361,125.304c1.528,0,2.026-0.83,3.487-5.199
				c0.88,0.743,2.711,1.528,4.01,1.879c-2.264,6.116-4.157,7.863-8.307,7.863h-6.117c-5.111,0-5.988-1.528-4.634-6.291l3.899-13.717
				h5.155l-1.675,5.897c3.448-1.223,6.873-2.665,9.368-4.062l2.328,3.801c-3.873,1.792-8.603,3.364-12.938,4.631l-0.982,3.451
				c-0.435,1.528-0.19,1.748,1.513,1.748H377.361z M376.263,108.877c-5.067,0-5.913-1.485-4.559-6.248l3.738-13.15h5.156
				l-1.789,6.291c3.305-1.18,6.605-2.49,8.951-3.67l2.252,3.757c-3.78,1.616-8.272,2.97-12.395,4.106l-0.733,2.579
				c-0.447,1.572-0.234,1.747,1.426,1.747h4.719c1.442,0,1.889-0.655,3.189-4.455c0.825,0.786,2.656,1.572,4.008,1.878
				c-2.156,5.592-4.002,7.165-7.976,7.165H376.263z"/>
			<path fill="#11438A" d="M405.889,114.208c1.166,3.58,2.477,8.344,2.789,11.402l-5.583,2.577c-0.039-1.091-0.19-2.402-0.462-3.756
				c-11.184,3.232-13.132,3.931-14.592,4.762c0.117-1.486-0.035-4.019-0.505-5.287c1.098-0.481,2.392-1.354,2.877-3.058
				l8.333-29.315h18.394l-6.135,21.581h-13.064l-2.446,8.607l6.283-1.659c-0.339-1.268-0.678-2.534-1.011-3.67L405.889,114.208z
				 M407.123,108.483l1.13-3.975h-7.864l-1.13,3.975H407.123z M402.76,96.164l-1.056,3.714h7.864l1.056-3.714H402.76z
				 M427.999,116.959c-0.671,2.36-1.449,3.714-3.182,4.588c-1.634,0.83-3.656,0.872-6.452,0.872c0.224-1.396,0.22-3.537-0.051-4.891
				c1.549,0.088,3.165,0.088,3.657,0.043c0.525,0,0.793-0.174,0.955-0.744l5.749-20.226h-5.286l-9.537,33.551h-5.242L419.5,91.839
				h15.639L427.999,116.959z"/>
			<path fill="#11438A" d="M447.974,89.393h5.024l-11.574,40.716h-5.024l3.925-13.805c-2.17,1.484-4.295,2.97-6.274,4.238
				l-1.254-4.5c2.295-1.311,5.745-3.452,9.229-5.723l1.999-7.034l-2.805,1.878c-0.514-1.878-2.062-4.891-3.418-7.033l4.389-2.841
				c0.926,1.354,2.014,3.058,2.803,4.588L447.974,89.393z M473.488,115.212h-4.719l-2.67,9.391
				c-0.707,2.492-1.572,3.845-3.575,4.589c-1.959,0.743-4.516,0.83-7.88,0.83c0.221-1.399,0.063-3.452-0.239-4.85
				c2.247,0.086,4.693,0.086,5.437,0.086c0.698,0,0.967-0.176,1.129-0.743l2.645-9.305h-9.873c1.345,2.184,2.791,5.244,3.198,7.339
				l-5.25,2.49c-0.265-2.141-1.53-5.373-2.869-7.733l4.659-2.095h-6.422l1.353-4.762h2.359c-0.219-1.223-0.741-2.927-1.341-3.888
				c3.363-0.612,6.769-1.53,10.001-2.753c-0.521-1.092-1.341-2.359-2.171-3.277l4.465-2.184c0.919,0.918,1.913,2.184,2.452,3.364
				c2.625-1.397,4.994-2.972,7.058-4.848h-8.826c-2.78,1.79-5.662,3.319-8.443,4.499c-0.501-1.004-1.715-2.577-2.483-3.408
				c5.296-1.879,10.602-5.33,13.849-8.607l4.989,1.354c-0.722,0.699-1.491,1.399-2.33,2.053h7.47l0.922-0.174l2.911,1.747
				c-6.721,9.043-17.018,13.761-27.693,16.121h13.369l1.204-4.238h5.155l-1.204,4.238h4.719L473.488,115.212z"/>
			<path fill="#11438A" d="M514.715,122.77l-1.49,5.241h-39.494l1.49-5.241h15.596l9.349-32.896h5.592l-3.563,12.537h15.465
				l-1.49,5.244h-15.465l-4.296,15.116H514.715z"/>
			<path fill="#11438A" d="M534.554,123.032c-5.476,1.747-11.353,3.67-15.988,5.068l0.343-4.893
				c3.942-0.961,10.131-2.751,16.063-4.413L534.554,123.032z M537.389,111.367c-0.545,1.31-1.148,3.277-1.361,4.326
				c-11.242,2.053-13.139,2.576-14.461,3.232c0.011-0.961-0.117-3.275-0.324-4.544c1.21-0.261,2.487-1.22,4.288-2.795
				c0.898-0.699,2.623-2.314,4.682-4.326c-4.013,0.437-5.136,0.699-5.935,1.048c0.012-0.96-0.123-3.408-0.307-4.76
				c0.992-0.262,1.995-1.18,3.354-2.577c1.322-1.268,5.796-6.552,8.784-11.534l4.179,2.359c-2.753,3.846-6.31,7.907-9.669,11.272
				l3.756-0.305c1.341-1.486,2.649-3.015,3.838-4.588l3.437,2.665c-3.483,4.107-7.478,8.169-11.442,11.665L537.389,111.367z
				 M561.57,112.984c-2.973,3.232-6.413,6.116-10.111,8.519c0.328,2.228,0.991,3.58,2.083,3.58c0.83,0,1.546-1.134,2.758-4.628
				c0.656,1.22,1.863,2.357,2.807,2.881c-2.359,5.375-4.11,6.772-7.561,6.772c-2.841,0-4.372-2.14-5.126-5.635
				c-3.815,2.053-7.814,3.67-11.956,5.024c-0.239-1.311-1.053-3.058-1.928-4.281c4.597-1.266,9.2-3.015,13.428-5.287
				c0.027-2.402,0.173-5.066,0.513-7.951l-8.173,1.399l0.474-4.589l8.415-1.484c0.212-1.354,0.478-2.753,0.745-4.15l-6.073,0.917
				l0.456-4.674l6.651-0.961c0.694-3.058,1.489-6.16,2.359-9.218h5.156c-0.852,2.841-1.615,5.68-2.265,8.433l9.745-1.399
				l-0.405,4.501l-10.365,1.572c-0.266,1.399-0.52,2.751-0.761,4.062l10.327-1.746l-0.45,4.499l-10.537,1.878
				c-0.221,2.01-0.419,3.933-0.51,5.637c2.438-1.661,4.644-3.583,6.495-5.637L561.57,112.984z M560.547,96.601
				c-0.901-1.135-2.838-2.927-4.249-4.106l3.784-2.71c1.492,1.049,3.479,2.665,4.436,3.757L560.547,96.601z"/>
		</g>
	</g>
	<g>
		<g>
			<path fill="#40BEEB" d="M699.475,263.7c3.531,0.018,6.556,2.306,8.005,5.456c1.404,3.051-0.061,5.6-2.205,7.747
				c-1.954,1.957-4.525,3.436-7.239,3.988c-3.088,0.628-6.16-1.145-6.36-4.504c-0.001,0.761-0.002,1.522-0.003,2.283
				c0.334-2.489,3.009-3.954,5.179-4.701c2.436-0.839,5.159-0.674,7.642-0.168c4.95,1.01,8.894,4.057,10.432,8.913
				c0.394,1.243,0.578,2.55,0.664,3.847c-0.104-1.564-0.2,0.479-0.263,0.834c-0.114,0.643-0.301,1.27-0.5,1.891
				c-0.664,2.072-2.11,4.485-4.13,5.479c-1.683,0.828-8.12,2.647-8.417-0.537c0.002,1.104,0.003,2.209,0.005,3.314
				c0.12-2.689,2.914-2.97,5.055-3.066c2.133-0.095,4.525,0.012,6.56,0.713c4.093,1.409,7.186,5.387,8.855,9.227
				c0.386,0.89,0.672,1.819,0.894,2.762c0.118,0.505,0.194,1.018,0.253,1.533c0.066,1.037,0.082,0.758,0.048-0.835
				c-0.014,0.392-0.066,0.778-0.123,1.165c-0.27,1.807-1.161,3.441-2.567,4.606c-3.603,2.988-12.693,2.497-12.849-3.46
				c-0.001,0.627-0.002,1.254-0.003,1.882c0.218-2.43,3.793-5.664,6.145-3.629c0.326,0.282,0.518,0.695,0.627,1.102
				c0.17,0.628,0.123-0.396-0.017,0.102c-0.047,0.17-0.154,0.322-0.254,0.463c-0.634,0.893-2.008,0.219-2.697-0.184
				c0.163,0.095-0.172,1.018,0,1.131c1.888,1.247,3.052,0.559,3.046-1.54c-0.005-1.995-1.394-3.5-3.479-3.007
				c-2.871,0.678-3.707,3.383-3.361,5.965c0.545,4.071,5.013,5.765,8.607,5.396c2.618-0.269,4.94-1.605,6.133-3.989
				c1.037-2.074,0.846-4.56,0.811-6.805c-0.084-5.526-3.101-11.317-7.749-14.339c-2.422-1.574-5.208-1.782-8.026-1.771
				c-2.804,0.011-5.892,0.4-5.925,3.761c-0.011,1.08-0.268,2.537,0.183,3.56c0.478,1.086,2.305,1.014,3.248,0.97
				c3.124-0.144,5.787-1.217,7.643-3.777c2.171-2.995,2.31-6.711,2.289-10.256c-0.021-3.603-0.649-7.267-3.014-10.123
				c-2.492-3.01-6.791-4.5-10.572-4.78c-3.93-0.29-9.111,1.177-10.307,5.432c-0.793,2.825,0.502,5.93,3.404,6.73
				c3.583,0.988,7.708-1.868,10.132-4.188c2.245-2.148,2.931-4.445,2.88-7.443c-0.08-4.676-4.145-8.103-8.68-7.75
				C699.462,263.098,699.476,263.7,699.475,263.7L699.475,263.7z"/>
		</g>
	</g>
	<circle fill="#EB953B" cx="449.685" cy="356.615" r="3.266"/>
	<circle fill="#EB953B" cx="522.171" cy="347.873" r="5.122"/>
	<circle fill="#EB953B" cx="693.197" cy="332.793" r="5.122"/>
	<circle fill="#EB953B" cx="374.791" cy="55.111" r="6.36"/>
	<circle fill="#EB953B" cx="434.093" cy="42.726" r="4.915"/>
	<circle fill="#EB953B" cx="266.432" cy="10.934" r="5.042"/>
	<circle fill="#EB953B" cx="716.719" cy="257.95" r="5.122"/>
	<circle fill="#EB953B" cx="766.978" cy="141.892" r="5.122"/>
	<circle fill="#EB953B" cx="775.839" cy="69.237" r="5.122"/>
	<circle fill="#EB953B" cx="122.778" cy="345.262" r="4.335"/>
	<circle fill="#EB953B" cx="211.289" cy="332.655" r="5.974"/>
	<g>
		<g>
			<path fill="#40BEEB" d="M282.169,11.479c-2.442,1.275-3.722,3.943-3.601,6.645c0.117,2.618,2.044,3.861,4.298,4.583
				c2.054,0.658,4.366,0.765,6.445,0.178c2.366-0.668,3.862-2.996,2.8-5.397c0.273,0.527,0.546,1.055,0.818,1.582
				c-1.121-1.607-3.5-1.666-5.271-1.408c-1.989,0.289-3.819,1.377-5.359,2.615c-3.072,2.47-4.717,5.992-4.048,9.91
				c0.171,1.003,0.511,1.975,0.915,2.905c-0.487-1.122,0.31,0.261,0.481,0.484c0.309,0.405,0.663,0.773,1.023,1.133
				c1.201,1.2,3.066,2.356,4.823,2.323c1.463-0.028,6.577-1.067,5.645-3.381c0.394,0.766,0.788,1.533,1.181,2.299
				c-1.044-1.822-3.082-1.018-4.601-0.319c-1.513,0.697-3.133,1.626-4.294,2.839c-2.334,2.44-3.057,6.304-2.842,9.563
				c0.05,0.755,0.184,1.502,0.367,2.235c0.098,0.392,0.23,0.775,0.373,1.153c0.325,0.743,0.214,0.555-0.332-0.562
				c0.149,0.267,0.324,0.516,0.502,0.764c0.833,1.157,2.035,1.971,3.426,2.276c3.566,0.784,9.694-2.806,7.672-6.992
				c0.225,0.435,0.449,0.869,0.675,1.304c-1.02-1.607-4.655-2.572-5.558-0.319c-0.125,0.312-0.111,0.667-0.041,0.988
				c0.107,0.496-0.227-0.23,0.048,0.065c0.094,0.101,0.222,0.168,0.342,0.23c0.759,0.392,1.471-0.566,1.805-1.092
				c-0.079,0.124,0.483,0.644,0.404,0.784c-0.864,1.54-1.917,1.478-2.663,0.021c-0.709-1.385-0.285-2.925,1.337-3.329
				c2.234-0.556,3.78,1.02,4.463,2.934c1.077,3.018-1.415,5.789-4.039,6.818c-1.912,0.749-3.999,0.653-5.678-0.573
				c-1.461-1.067-2.217-2.86-2.995-4.429c-1.917-3.861-1.896-8.956,0.247-12.712c1.117-1.957,2.974-3.098,4.932-4.097
				c1.948-0.995,4.229-1.829,5.453,0.49c0.393,0.745,1.092,1.663,1.145,2.534c0.057,0.924-1.236,1.527-1.906,1.834
				c-2.217,1.017-4.448,1.225-6.65,0.113c-2.576-1.3-4.001-3.828-5.254-6.293c-1.273-2.506-2.148-5.271-1.529-8.097
				c0.652-2.978,3.1-5.548,5.622-7.094c2.621-1.606,6.738-2.44,9.088,0.082c1.56,1.675,1.772,4.291,0.046,5.883
				c-2.131,1.966-6.012,1.46-8.522,0.718c-2.325-0.687-3.621-2.034-4.657-4.131c-1.616-3.271-0.023-7.1,3.248-8.476
				C281.964,11.057,282.169,11.479,282.169,11.479L282.169,11.479z"/>
		</g>
	</g>
</g>
</svg>
