<?xml version="1.0" encoding="utf-8"?>
<!-- Generator: Adobe Illustrator 17.0.0, SVG Export Plug-In . SVG Version: 6.00 Build 0)  -->
<!DOCTYPE svg PUBLIC "-//W3C//DTD SVG 1.1//EN" "http://www.w3.org/Graphics/SVG/1.1/DTD/svg11.dtd">
<svg version="1.1" id="图层_1" xmlns="http://www.w3.org/2000/svg" xmlns:xlink="http://www.w3.org/1999/xlink" x="0px" y="0px"
	 width="39px" height="39px" viewBox="0 0 39 39" enable-background="new 0 0 39 39" xml:space="preserve">
<g>
	<circle fill="#3FB3DE" cx="19.614" cy="19.708" r="18"/>
	<g>
		<g>
			<path fill="#FFFFFF" d="M19.614,29.642c-5.478,0-9.934-4.457-9.934-9.934s4.457-9.934,9.934-9.934s9.935,4.457,9.935,9.934
				S25.092,29.642,19.614,29.642z M19.614,10.905c-4.854,0-8.803,3.949-8.803,8.803s3.949,8.803,8.803,8.803
				c4.854,0,8.803-3.949,8.803-8.803S24.468,10.905,19.614,10.905z"/>
		</g>
		<g>
			<g>
				
					<rect x="16.824" y="12.244" transform="matrix(0.7273 0.6863 -0.6863 0.7273 15.3686 -7.7122)" fill="#FFFFFF" width="1.132" height="6.48"/>
			</g>
			<g>
				
					<rect x="18.599" y="14.918" transform="matrix(0.6866 0.727 -0.727 0.6866 18.1017 -11.0246)" fill="#FFFFFF" width="6.48" height="1.132"/>
			</g>
			<g>
				<rect x="19.048" y="13.129" fill="#FFFFFF" width="1.132" height="12.619"/>
			</g>
			<g>
				
					<rect x="19.046" y="12.582" transform="matrix(0.7071 0.7071 -0.7071 0.7071 15.0504 -10.0208)" fill="#FFFFFF" width="1.151" height="1.151"/>
			</g>
		</g>
		<g>
			<rect x="19.078" y="26.894" fill="#FFFFFF" width="1.073" height="1.073"/>
		</g>
	</g>
</g>
</svg>
