<?xml version="1.0" encoding="utf-8"?>
<!-- Generator: Adobe Illustrator 17.0.0, SVG Export Plug-In . SVG Version: 6.00 Build 0)  -->
<!DOCTYPE svg PUBLIC "-//W3C//DTD SVG 1.1//EN" "http://www.w3.org/Graphics/SVG/1.1/DTD/svg11.dtd">
<svg version="1.1" id="图层_1" xmlns="http://www.w3.org/2000/svg" xmlns:xlink="http://www.w3.org/1999/xlink" x="0px" y="0px"
	 width="39px" height="39px" viewBox="0 0 39 39" enable-background="new 0 0 39 39" xml:space="preserve">
<g>
	<circle fill="#E2933E" cx="19.669" cy="19.708" r="18"/>
	<g>
		<g>
			<path fill="#FFFFFF" d="M19.669,29.76c-5.074,0-9.202-4.128-9.202-9.202c0-5.074,4.128-9.202,9.202-9.202
				s9.202,4.128,9.202,9.202C28.87,25.632,24.743,29.76,19.669,29.76z M19.669,12.405c-4.496,0-8.153,3.658-8.153,8.153
				c0,4.496,3.658,8.154,8.153,8.154s8.153-3.658,8.153-8.154C27.822,16.063,24.164,12.405,19.669,12.405z"/>
		</g>
		<g>
			<g>
				<path fill="#FFFFFF" d="M11.208,14.586l-0.856-0.605c1.45-2.051,3.563-3.587,5.948-4.325l0.31,1.002
					C14.444,11.328,12.526,12.723,11.208,14.586z"/>
			</g>
			<g>
				<path fill="#FFFFFF" d="M28.129,14.586c-1.272-1.799-3.118-3.17-5.198-3.862l0.331-0.995c2.291,0.762,4.323,2.272,5.723,4.252
					L28.129,14.586z"/>
			</g>
			<g>
				<path fill="#FFFFFF" d="M16.455,10.156"/>
			</g>
			<g>
				<path fill="#FFFFFF" d="M23.096,10.226"/>
			</g>
		</g>
		<g>
			<rect x="19.145" y="14.283" fill="#FFFFFF" width="1.048" height="6.275"/>
		</g>
		<g>
			<rect x="19.669" y="20.034" fill="#FFFFFF" width="4.259" height="1.048"/>
		</g>
	</g>
</g>
</svg>
