<?xml version="1.0" encoding="utf-8"?>
<!-- Generator: Adobe Illustrator 17.0.0, SVG Export Plug-In . SVG Version: 6.00 Build 0)  -->
<!DOCTYPE svg PUBLIC "-//W3C//DTD SVG 1.1//EN" "http://www.w3.org/Graphics/SVG/1.1/DTD/svg11.dtd">
<svg version="1.1" id="图层_1" xmlns="http://www.w3.org/2000/svg" xmlns:xlink="http://www.w3.org/1999/xlink" x="0px" y="0px"
	 width="145px" height="145px" viewBox="0 0 145 145" enable-background="new 0 0 145 145" xml:space="preserve">
<g>
	<rect x="0" y="0" fill="#FFFFFF" width="143.535" height="143.535"/>
	<g>
		<path fill="#13438B" d="M69.803,12.135v3.273h-3.538V8.862h3.715v-3.98H59.189v11.056h-3.715v13.975h-3.626V19.299h-7.253v7.076
			h-3.98v3.45H37.43l-0.177,3.803H22.659v3.715h-3.715v3.803h3.803v3.626h7.165v-3.715h-3.626v-3.715h3.626v3.715h3.803V37.52h3.626
			v3.626h7.165v3.892h7.253v3.45h3.98v-3.803h-4.157V40.97h-3.45v-3.538h3.626v3.626h7.076V37.52h-3.45v-3.803h3.715V23.014h3.626
			v-6.988h3.626v3.626h3.626v-3.626h3.626v-3.892H69.803z M48.133,33.717h-3.715v3.803H40.88l0.088-7.165h3.892v-3.98h3.273V33.717z
			"/>
		<polygon fill="#13438B" points="41.145,19.653 41.145,12.223 48.398,12.223 48.398,8.685 51.671,8.685 51.671,12.046 
			55.74,12.046 55.74,4.882 47.956,4.882 47.956,8.42 40.792,8.42 40.792,11.958 37.342,11.958 37.342,8.154 33.627,8.154 
			33.45,29.825 37.43,29.825 37.43,19.653 		"/>
		<polygon fill="#13438B" points="11.795,33.672 15.659,33.672 15.659,40.984 18.944,40.984 18.944,44.848 8.348,44.848 
			8.348,55.501 11.899,55.501 11.899,51.95 15.45,51.95 15.45,48.399 19.315,48.399 19.315,52.159 15.868,52.159 15.868,59.052 
			12.108,59.052 12.108,66.155 8.662,66.155 8.662,69.497 12.004,69.497 12.108,66.155 18.793,66.155 18.793,55.292 22.448,55.292 
			22.448,51.532 26.208,51.532 26.208,48.399 29.864,48.399 29.864,52.055 26.626,52.055 26.626,55.188 29.968,55.188 
			29.968,58.844 34.042,58.844 34.042,62.812 29.864,62.812 29.864,59.47 26.417,59.47 26.417,55.501 22.97,55.501 22.97,62.708 
			29.864,62.812 29.864,66.259 26.522,66.259 26.522,69.392 33.624,69.392 33.624,76.808 30.177,76.808 30.177,73.57 26.522,73.57 
			26.522,77.33 22.97,77.33 22.97,80.568 19.002,80.568 19.002,73.779 15.764,73.779 15.764,80.568 8.348,80.568 8.348,84.537 
			4.379,84.537 4.379,77.121 11.69,77.121 11.69,73.57 8.139,73.57 8.139,70.124 4.588,70.124 4.588,66.259 8.035,66.259 
			8.035,62.708 4.588,62.708 4.588,40.984 8.348,40.984 8.348,37.955 11.899,37.955 		"/>
		<polygon fill="#13438B" points="34.006,48.293 37.291,48.293 37.291,52.04 40.722,52.04 40.722,48.056 51.566,48.056 
			51.566,51.376 44.816,51.376 44.816,59.122 48.246,59.122 48.246,55.359 52.009,55.359 52.009,51.486 59.091,51.486 
			59.091,62.663 48.468,62.663 48.468,66.204 51.456,66.204 51.456,73.397 54.333,73.397 54.333,77.381 51.898,77.381 51.898,73.95 
			47.914,73.95 47.914,66.536 44.705,66.536 44.705,62.663 40.943,62.663 40.943,66.536 43.931,66.536 43.931,73.508 47.029,73.508 
			47.029,77.602 51.013,77.602 51.013,80.369 48.136,80.369 48.136,84.463 58.98,84.463 58.98,95.308 73.256,95.308 73.256,98.849 
			69.825,98.849 69.825,102.501 73.698,102.501 73.698,109.029 77.571,109.029 77.571,106.263 81.223,106.263 81.223,98.849 
			84.764,98.849 84.764,91.877 88.416,91.877 88.416,102.169 84.986,102.169 84.986,109.472 80.891,109.472 80.891,113.124 
			70.378,113.124 70.378,109.915 62.522,109.915 62.522,106.263 66.505,106.263 66.505,102.279 62.411,102.279 62.411,98.627 
			51.677,98.627 51.677,102.39 61.981,102.39 61.981,105.855 51.62,105.855 51.62,113.282 48.044,113.282 48.044,106.497 
			44.743,106.497 44.743,102.738 48.319,102.738 48.319,95.219 51.803,95.219 51.803,87.792 48.227,87.792 48.319,95.219 
			44.376,95.219 44.376,87.975 41.167,87.975 41.167,94.852 33.74,94.852 33.74,91.735 36.949,91.735 36.949,84.399 44.376,84.399 
			44.376,76.881 40.8,76.881 40.8,69.912 37.041,69.912 37.041,59.092 40.892,59.092 40.892,55.333 37.224,55.333 37.291,52.04 
			33.74,52.04 		"/>
		<polygon fill="#13438B" points="134.787,66.457 134.787,62.71 131.243,62.71 131.243,66.153 127.598,66.153 127.598,73.342 
			120.813,73.342 120.813,66.356 117.067,66.356 117.067,62.812 120.51,62.812 120.51,58.964 123.952,58.964 123.952,62.407 
			127.497,62.407 127.497,59.369 131.344,59.369 131.344,51.268 127.8,51.268 127.8,55.622 120.712,55.622 120.712,58.356 
			117.067,58.356 117.067,62.204 113.219,62.204 113.219,66.254 109.878,66.254 109.878,62.71 112.713,62.71 112.713,59.065 
			116.156,59.065 116.156,55.42 120.105,55.42 120.105,51.876 116.763,51.876 116.763,48.23 109.979,48.23 109.979,52.179 
			102.688,52.179 102.688,59.369 105.827,59.369 105.827,56.027 109.472,56.027 109.472,58.862 106.435,58.862 106.435,62.71 
			102.486,62.71 102.486,70.305 98.638,70.305 98.638,76.279 95.6,76.279 95.6,73.747 91.955,73.747 91.955,70.203 94.992,70.203 
			94.992,59.065 91.752,59.065 91.752,55.723 98.84,55.723 98.84,51.673 91.853,51.673 91.853,44.99 95.6,44.99 95.6,40.838 
			80.715,40.838 80.715,33.75 84.36,33.75 84.36,37.598 88.107,37.598 88.107,23.219 84.563,23.219 84.563,15.422 81.019,15.422 
			81.019,12.283 88.309,12.283 88.309,8.537 91.55,8.537 91.55,12.081 95.094,12.081 95.094,19.169 91.752,19.169 91.752,15.625 
			87.904,15.625 87.904,19.068 91.347,19.068 91.347,23.017 95.195,23.017 95.195,19.574 98.84,19.574 98.84,16.131 102.688,16.131 
			102.688,4.892 94.891,4.892 94.891,8.334 91.55,8.334 91.55,4.892 87.803,4.892 87.803,8.132 81.019,8.132 81.019,4.892 
			77.171,4.892 77.171,15.625 80.512,15.625 80.512,26.257 84.462,26.257 84.462,30.409 80.715,30.409 80.715,26.662 77.272,26.662 
			77.272,30.51 73.627,30.51 73.627,22.409 66.134,22.409 66.134,25.852 62.502,25.852 62.502,30.118 66.118,30.118 66.118,26.321 
			69.735,26.321 69.735,33.915 59.101,33.915 59.101,37.52 65.938,37.52 65.938,44.583 69.735,44.583 69.735,37.17 73.17,37.17 
			73.17,34.096 76.967,34.096 76.967,44.402 73.894,44.402 73.894,54.166 76.606,54.166 76.606,51.997 80.584,51.997 80.584,62.484 
			89.444,62.484 91.975,62.484 91.975,69.717 87.093,69.717 87.093,73.876 91.786,73.876 91.786,77.45 95.201,77.45 95.201,80.333 
			87.461,80.333 87.461,87.846 98.616,87.846 98.616,84.279 95.201,84.279 95.201,80.713 99.223,80.713 99.223,76.994 
			105.901,76.994 105.901,80.409 102.638,80.409 102.638,87.998 98.995,87.998 98.995,91.412 113.261,91.412 113.261,95.131 
			116.904,95.131 116.904,102.34 120.698,102.34 120.698,88.074 124.264,88.074 124.264,84.481 131.648,84.481 131.648,81.038 
			135.496,81.038 135.496,77.494 138.736,77.494 138.736,66.457 		"/>
		<polygon fill="#13438B" points="19.774,84.409 22.915,84.409 22.915,87.982 26.162,87.982 26.162,84.152 30.075,84.152 
			30.075,87.899 33.821,87.899 33.821,91.735 30.158,91.735 30.158,87.982 26.578,87.982 26.578,91.562 29.825,91.562 
			29.825,94.726 26.412,94.726 26.412,98.972 30.075,98.972 30.075,95.308 33.905,95.308 33.905,102.468 22.915,102.468 
			22.915,98.805 19.002,98.805 19.002,95.225 22.915,95.225 22.915,91.645 19.002,91.645 19.002,84.568 15.172,84.568 
			15.172,80.568 19.774,80.568 		"/>
		<polygon fill="#13438B" points="98.858,48.415 102.058,48.415 102.058,44.735 105.898,44.735 105.898,40.895 109.739,40.895 
			109.739,45.055 120.14,45.055 120.14,37.054 135.021,37.054 135.021,41.055 131.661,41.055 131.661,45.055 134.861,45.055 
			134.861,48.095 131.661,48.095 131.661,52.096 135.181,52.096 135.181,59.777 138.702,59.777 138.702,37.054 135.821,37.054 
			135.821,33.054 116.78,33.054 116.78,36.894 113.259,36.894 113.259,41.215 109.739,40.895 109.739,37.694 102.538,37.694 
			102.538,43.935 98.858,43.935 		"/>
		<polygon fill="#13438B" points="120.62,48.575 124.14,48.575 124.14,44.415 127.821,44.415 127.821,51.936 120.62,51.936 		"/>
		<polygon fill="#13438B" points="102.698,33.694 109.579,33.694 109.579,23.133 106.218,23.133 106.218,29.854 102.538,29.854 
			102.538,26.813 99.018,26.813 99.018,30.494 102.416,30.494 		"/>
		<polygon fill="#13438B" points="91.806,26.671 95.343,26.759 95.343,33.567 98.791,33.567 98.791,38.076 95.255,38.076 
			95.255,34.186 91.541,34.186 		"/>
		<polygon fill="#13438B" points="113.261,95.33 110.037,95.33 110.037,98.853 106.378,98.853 106.378,95.194 102.448,95.194 
			102.448,102.241 99.06,102.241 99.06,99.395 95.401,99.395 95.401,94.652 99.06,94.652 99.06,91.806 91.742,91.806 
			91.607,102.783 88.083,102.783 88.083,105.765 91.742,105.765 91.742,113.219 95.401,113.219 95.401,117.42 99.06,117.42 
			99.06,109.153 95.13,109.153 95.13,102.783 98.789,102.783 98.789,106.307 106.378,106.307 106.378,101.97 113.261,101.97 		"/>
		<polygon fill="#13438B" points="124.264,88.074 127.926,88.074 127.926,91.535 132.127,91.535 132.127,88.283 135.244,88.283 
			135.244,84.895 138.632,84.895 138.632,91.671 135.109,91.671 135.109,94.652 138.632,94.652 138.632,106.171 131.043,106.171 
			131.043,102.648 135.515,102.648 135.515,98.853 131.179,98.853 131.179,95.059 123.996,95.059 		"/>
		<path fill="#13438B" d="M127.655,112.948v-3.524h-3.524v-3.117h3.524v-7.318h-3.252l-0.678,6.505h-6.821v-2.846h-4.291v3.659
			h-6.776v11.113h-7.047v6.64h3.388v6.64h4.066v-7.047h10.435v4.201h3.388v-3.252h3.93v-4.201h3.93v-3.795h3.252v-3.659H127.655z
			 M120.337,120.401h-10.571v-10.706h10.571V120.401z"/>
		<polygon fill="#13438B" points="4.841,98.873 8.358,98.873 8.358,95.503 4.841,95.503 4.841,91.839 8.358,91.839 8.358,95.063 
			12.168,95.063 12.168,99.313 19.203,99.313 19.203,101.805 22.915,101.805 22.915,106.201 18.91,106.201 18.91,109.426 
			15.393,109.426 15.393,105.615 12.168,105.615 12.168,109.719 4.841,109.719 4.841,105.908 11.436,105.908 11.436,102.244 
			4.841,102.244 		"/>
		<polygon fill="#13438B" points="33.859,109.719 37.523,109.719 37.523,105.762 34.152,105.762 34.152,102.468 37.523,102.468 
			37.523,99.02 40.307,99.02 40.307,94.852 44.376,94.852 44.376,102.244 41.187,102.244 41.187,109.719 44.704,109.719 
			44.704,112.943 48.044,112.943 48.044,116.753 44.997,116.753 44.997,113.822 37.523,113.822 37.523,120.71 33.859,120.71 		"/>
		<polygon fill="#13438B" points="33.859,127.892 37.23,127.892 37.23,123.935 40.894,123.935 40.894,116.753 44.997,116.753 
			44.997,120.417 48.368,120.417 48.368,116.753 51.592,116.753 51.592,123.935 47.782,123.935 47.782,127.745 44.704,127.745 
			44.704,124.374 41.04,124.374 41.04,131.116 48.222,131.116 48.222,134.78 44.265,134.78 44.265,138.297 40.601,138.297 
			40.601,131.556 33.859,131.556 		"/>
		<polygon fill="#13438B" points="88.154,127.439 98.582,127.439 98.582,131.205 95.251,131.205 95.251,135.55 91.775,135.55 
			91.775,131.639 87.864,131.639 		"/>
		<polygon fill="#13438B" points="99.306,131.495 102.347,131.495 102.347,135.405 105.678,135.405 105.678,131.495 
			110.168,131.495 110.168,127.874 113.209,127.874 113.209,131.929 110.214,131.929 110.214,138.399 99.303,138.399 		"/>
		<polygon fill="#13438B" points="113.4,134.807 116.992,134.807 116.992,131.08 120.245,131.08 120.245,127.487 124.244,127.487 
			124.244,124.302 131.496,124.302 131.496,127.759 127.836,127.759 127.836,131.215 124.04,131.215 124.04,134.943 
			127.904,134.943 127.904,138.941 120.516,138.941 120.516,134.875 117.06,134.875 117.06,138.535 113.468,138.535 		"/>
		<polygon fill="#13438B" points="131.97,124.031 135.02,124.031 135.02,116.847 138.951,116.847 138.951,109.663 131.767,109.663 
			131.767,113.255 135.02,113.255 135.02,116.576 131.179,116.576 131.179,124.031 		"/>
		<polygon fill="#13438B" points="135.294,124.381 135.204,127.737 131.61,127.737 131.61,131.242 138.769,131.242 138.769,123.965 
			135.264,123.965 		"/>
		<polygon fill="#13438B" points="80.871,117.059 84.59,117.059 84.59,113.271 88.098,113.271 88.098,117.2 91.676,117.2 
			91.676,120.287 87.537,120.287 87.537,124.566 95.535,124.566 95.535,116.638 91.887,116.638 91.887,112.99 88.098,112.99 
			88.098,109.692 84.45,109.692 84.45,112.639 80.801,112.639 		"/>
		<polygon fill="#13438B" points="77.153,120.497 84.309,120.497 84.309,123.795 80.871,123.795 80.871,127.864 84.52,127.864 
			84.52,131.793 80.942,131.793 80.942,135.582 76.732,135.582 76.732,131.372 80.38,131.372 80.38,128.145 77.223,128.145 		"/>
		<polygon fill="#13438B" points="59.141,116.577 65.995,116.577 65.995,113.049 69.826,113.049 69.826,117.081 73.657,117.081 
			73.657,120.609 69.524,120.609 69.524,117.787 65.895,117.787 65.895,124.541 62.568,124.541 62.568,131.597 66.499,131.597 
			66.499,128.17 69.826,128.17 69.826,131.597 73.455,131.597 73.455,135.629 55.411,135.629 55.411,138.654 48.455,138.654 
			48.455,134.924 55.411,134.924 55.411,131.698 52.185,131.698 52.185,123.835 55.108,123.835 55.108,130.791 58.737,130.791 
			58.737,124.137 62.266,124.137 62.266,120.912 58.939,120.912 58.939,123.734 55.511,123.734 55.511,120.206 59.141,120.206 		"/>
		<polygon fill="#13438B" points="11.711,91.524 15.368,91.524 15.368,95.486 19.002,95.486 19.002,91.645 15.673,91.645 
			15.673,87.41 11.711,87.41 		"/>
		<polygon fill="#13438B" points="33.958,80.858 37.462,80.858 37.462,77.506 40.815,77.506 40.815,80.714 37.742,80.714 
			37.742,84.399 33.872,84.399 		"/>
		<polygon fill="#13438B" points="70.009,91.513 73.385,91.513 73.385,95.179 77.34,95.179 77.34,91.899 80.909,91.899 
			80.909,89.391 69.913,89.391 		"/>
		<polygon fill="#13438B" points="61.867,51.917 65.746,51.917 65.746,54.244 70.012,54.244 70.012,47.844 66.133,47.844 
			66.133,44.583 62.643,44.583 62.643,40.862 58.836,40.862 58.836,44.353 61.867,44.353 		"/>
		<rect x="33.796" y="41.241" fill="#13438B" width="3.966" height="3.966"/>
		<rect x="26.726" y="77.625" fill="#13438B" width="3.621" height="3.621"/>
		<rect x="26.381" y="105.733" fill="#13438B" width="4.139" height="4.139"/>
		<rect x="55.351" y="109.526" fill="#13438B" width="7.07" height="3.966"/>
		<rect x="62.766" y="89.351" fill="#13438B" width="3.794" height="2.242"/>
		<rect x="106.22" y="8.478" fill="#13438B" width="3.104" height="10.691"/>
		<rect x="110.014" y="33.999" fill="#13438B" width="3.276" height="3.276"/>
		<rect x="98.978" y="59.258" fill="#13438B" width="3.71" height="3.71"/>
		<rect x="113.635" y="112.803" fill="#13438B" width="3.794" height="3.794"/>
		<rect x="84.321" y="134.702" fill="#13438B" width="4.139" height="4.139"/>
		<rect x="135.362" y="135.047" fill="#13438B" width="3.794" height="3.794"/>
		<path fill="#13438B" d="M113.104,4.594v26.002h26.002V4.594H113.104z M134.864,26.539h-17.888V8.651h17.888V26.539z"/>
		<rect x="120.849" y="12.155" fill="#13438B" width="10.88" height="10.88"/>
		<path fill="#13438B" d="M4.456,4.594v26.002h26.002V4.594H4.456z M26.216,26.539H8.328V8.651h17.888V26.539z"/>
		<rect x="12.201" y="12.155" fill="#13438B" width="10.88" height="10.88"/>
		<path fill="#13438B" d="M4.456,112.701v26.002h26.002v-26.002H4.456z M26.216,134.646H8.328v-17.888h17.888V134.646z"/>
		<rect x="12.201" y="120.262" fill="#13438B" width="10.88" height="10.88"/>
		<g>
			<path fill="#13438B" d="M87.928,88.891c0,0.895-0.725,1.62-1.62,1.62H55.409c-0.895,0-1.62-0.725-1.62-1.62V57.992
				c0-0.895,0.725-1.62,1.62-1.62h30.899c0.895,0,1.62,0.725,1.62,1.62V88.891z"/>
			<path fill="#FFFFFF" d="M87.159,88.195c0,0.854-0.693,1.547-1.547,1.547H56.105c-0.854,0-1.547-0.693-1.547-1.547V58.688
				c0-0.854,0.693-1.547,1.547-1.547h29.507c0.854,0,1.547,0.693,1.547,1.547V88.195z"/>
			<g>
				<path fill="#13438B" d="M79.633,69.21c2.372-2.434,2.335-6.32-0.07-8.71c-2.39-2.405-6.276-2.442-8.71-0.07
					c-1.165,1.135-1.41,2.118-1.709,3.402c-0.189,0.814-0.626,1.623-1.209,2.294c-0.671,0.584-1.48,1.021-2.294,1.21
					c-1.284,0.298-2.267,0.544-3.402,1.709c-0.008,0.008-0.015,0.017-0.023,0.025c-0.02,0.02-0.041,0.038-0.061,0.058
					c-2.405,2.39-2.442,6.276-0.07,8.71c1.135,1.165,2.118,1.411,3.402,1.709c0.815,0.189,1.623,0.626,2.294,1.21
					c0.583,0.671,1.02,1.48,1.21,2.294c0.298,1.284,0.544,2.267,1.709,3.403c2.434,2.372,6.32,2.335,8.71-0.07
					c2.405-2.39,2.442-6.276,0.07-8.71c-1.135-1.165-2.118-1.411-3.402-1.709c-0.815-0.189-1.623-0.626-2.294-1.21
					c-0.306-0.352-0.57-0.742-0.781-1.15c0.228-0.527,0.548-1.031,0.934-1.476c0.671-0.584,1.48-1.021,2.294-1.21
					c0.96-0.223,1.752-0.416,2.564-0.986"/>
				<g>
					<path fill="#40BFEC" d="M64.622,68.555c0,0-0.958-1.761,2.697-2.719c0,0,5.996-1.315,6.486-2.719c0,0,1.115,1.761-3.366,2.742
						C70.439,65.858,65.134,66.951,64.622,68.555z"/>
					<path fill="#D3D5E4" d="M64.561,71.933c0,0-0.958-1.761,2.697-2.719c0,0,5.996-1.315,6.486-2.719c0,0,1.115,1.761-3.366,2.742
						C70.379,69.236,65.074,70.328,64.561,71.933z"/>
					<path fill="#40BFEC" d="M64.129,79.993c0,0,0.043-2.458,7.074-3.292c0,0,2.344-0.437,2.483-1.589c0,0,0.973-2.086-3.198-3.436
						c0,0-5.496-1.632-5.867-3.12c0,0-0.589,1.591,2.192,2.703c0,0,5.005,1.569,5.84,2.622c0,0,1.569,1.529-2.662,2.185
						c0,0-2.761,0.457-3.814,0.874C66.178,76.939,63.743,77.592,64.129,79.993z"/>
					<path fill="#D3D5E4" d="M64.129,83.265c0,0,0.043-2.458,7.074-3.292c0,0,2.344-0.437,2.483-1.589c0,0,0.973-2.086-3.198-3.436
						c0,0-5.496-1.632-5.867-3.12c0,0-0.589,1.591,2.192,2.703c0,0,5.005,1.569,5.84,2.622c0,0,1.569,1.529-2.662,2.185
						c0,0-2.761,0.457-3.814,0.874C66.178,80.211,63.743,80.864,64.129,83.265z"/>
				</g>
			</g>
		</g>
	</g>
</g>
</svg>
