<?xml version="1.0" encoding="utf-8"?>
<!-- Generator: Adobe Illustrator 17.0.0, SVG Export Plug-In . SVG Version: 6.00 Build 0)  -->
<!DOCTYPE svg PUBLIC "-//W3C//DTD SVG 1.1//EN" "http://www.w3.org/Graphics/SVG/1.1/DTD/svg11.dtd">
<svg version="1.1" id="图层_1" xmlns="http://www.w3.org/2000/svg" xmlns:xlink="http://www.w3.org/1999/xlink" x="0px" y="0px"
	 width="505px" height="449px" viewBox="0 0 505 449" enable-background="new 0 0 505 449" xml:space="preserve">
<g>
	<defs>
		<circle id="SVGID_1_" cx="254.901" cy="217.985" r="245.868"/>
	</defs>
	<clipPath id="SVGID_2_">
		<use xlink:href="#SVGID_1_"  overflow="visible"/>
	</clipPath>
	<g clip-path="url(#SVGID_2_)">
		<g>
			<path fill="#B7292D" d="M374.873,213.792l0.05-10.236l63.806,0.31l-0.049,10.236c-0.011,2.155-1.767,3.894-3.921,3.883
				l-56.002-0.272C376.6,217.702,374.862,215.947,374.873,213.792z"/>
			<g>
				<path fill="#B7292D" d="M401.264,249.409c-0.011,2.155,1.31,3.909,2.947,3.917l4.746,0.022c1.636,0.009,2.973-1.732,2.983-3.887
					l0.196-40.39c0.011-2.155-1.309-3.909-2.946-3.916l-4.745-0.023c-1.637-0.008-2.975,1.732-2.986,3.888L401.264,249.409z"/>
				
					<rect x="374.915" y="203.667" transform="matrix(-1 -0.0049 0.0049 -1 812.6327 412.2193)" fill="#CBCBCB" width="63.807" height="2.905"/>
				<polygon fill="#040000" points="371.899,183.163 441.949,183.504 438.729,203.823 374.922,203.512 				"/>
			</g>
		</g>
		<path fill="#F8C298" d="M402.347,250.002l13.475,0.065c0.206,0.001,0.408-0.019,0.602-0.057
			c8.799-0.497,11.168-4.517,11.168-4.517s0.055-11.453,0.073-15.158c0.014-2.917-3.409-7.43-6.777-9.232
			c-0.495-0.73-1.494-0.785-2.648-0.79l-6.359-0.031l-0.028,5.85c0,0.01,0.001,0.02,0,0.029c-0.099-0.01-0.194-0.03-0.294-0.031
			l-13.475-0.065c-1.651-0.008-2.996,1.324-3.004,2.975c-0.008,1.651,1.324,2.996,2.975,3.004l0.589,0.003
			c-1.651-0.008-2.996,1.324-3.003,2.976c-0.008,1.65,1.323,2.995,2.975,3.004l1.684,0.007c-1.651-0.007-2.996,1.324-3.004,2.976
			c-0.008,1.651,1.324,2.996,2.975,3.004l2.106,0.01c-1.651-0.008-2.996,1.324-3.005,2.975
			C399.364,248.648,400.696,249.993,402.347,250.002z"/>
		<polygon fill="#77BD48" points="523.42,249.939 523.533,226.599 427.683,226.784 427.569,250.123 		"/>
	</g>
	<g clip-path="url(#SVGID_2_)">
		<g>
			<polyline fill="none" stroke="#808081" stroke-width="2.3415" stroke-linejoin="bevel" stroke-miterlimit="10" points="
				335.416,344.903 344.788,339.206 369.023,356.91 380.694,349.815 377.926,345.261 			"/>
			<g>
				<g>
					<g>
						<g>
							<path fill="#0D6BAF" d="M332.792,340.251c1.842-1.119,4.024-0.892,4.875,0.508l2.465,4.054
								c0.851,1.4,0.048,3.442-1.794,4.561l-25.733,15.644c-1.842,1.119-4.024,0.892-4.875-0.508l-2.465-4.055
								c-0.851-1.399-0.048-3.442,1.794-4.561L332.792,340.251z"/>
						</g>
					</g>
				</g>
			</g>
			<g>
				<path fill="#F0B587" d="M332.606,351.543l4.999-3.039l3.303,5.434c0.6,0.986,1.075,1.866,0.713,2.67
					c0.228,3.813-1.825,9.092-4.317,10.607c-3.167,1.925-12.953,7.874-12.953,7.874s-3.958,2.406-12.69-11.958
					C311.662,363.13,317.713,361.088,332.606,351.543z"/>
				<path fill="#F8C298" d="M329.317,353.198c0.857,1.411,2.844,1.769,4.436,0.802l0,0c1.593-0.968,2.188-2.897,1.331-4.308
					l-7-11.514c-0.857-1.411-2.844-1.77-4.437-0.802l0,0c-1.592,0.968-2.188,2.896-1.33,4.307L329.317,353.198z"/>
				<path fill="#F8C298" d="M323.857,357.207c0.857,1.41,2.843,1.769,4.436,0.801l0,0c1.592-0.968,2.189-2.896,1.331-4.307
					l-7-11.514c-0.857-1.41-2.843-1.77-4.436-0.801l0,0c-1.592,0.967-2.188,2.896-1.33,4.307L323.857,357.207z"/>
				<path fill="#F8C298" d="M318.965,362.152c0.857,1.411,2.844,1.769,4.436,0.802l0,0c1.593-0.968,2.189-2.897,1.331-4.307
					l-7-11.515c-0.858-1.411-2.844-1.769-4.437-0.801l0,0c-1.592,0.968-2.188,2.897-1.331,4.307L318.965,362.152z"/>
				<path fill="#F8C298" d="M314.291,367.456c0.858,1.41,2.844,1.769,4.436,0.801l0,0c1.592-0.968,2.188-2.896,1.331-4.307
					l-7-11.515c-0.858-1.411-2.844-1.769-4.437-0.802l0,0c-1.592,0.969-2.187,2.897-1.33,4.307L314.291,367.456z"/>
				<path fill="#F8C298" d="M340.057,354.486c1.556-0.552,2.179-2.8,1.391-5.02l0,0c-0.787-2.221-2.689-3.574-4.244-3.022
					l-12.698,4.506c-1.557,0.551-2.179,2.799-1.391,5.02l0,0c0.787,2.221,2.688,3.573,4.243,3.021L340.057,354.486z"/>
			</g>
			<path fill="#F1E534" d="M384.512,338.817c1.12,1.841,0.534,4.242-1.308,5.361l-8.67,5.271c-1.842,1.119-4.242,0.534-5.362-1.307
				l-27.143-44.651c-1.12-1.841-0.535-4.242,1.307-5.362l8.67-5.27c1.842-1.12,4.242-0.534,5.362,1.308L384.512,338.817z"/>
		</g>
		<polygon fill="#F18E2A" points="395.052,450.399 375.108,462.523 323.14,375.825 343.083,363.702 		"/>
	</g>
	<g clip-path="url(#SVGID_2_)">
		<g>
			<g>
				<path fill="#CECFCF" d="M212.592,100.347c-0.002-0.004-0.004-0.007-0.006-0.011l-19.598-33.874
					c-0.219-0.379-0.219-0.846-0.001-1.225c0.218-0.38,0.622-0.613,1.06-0.614l39.135-0.035c0.438-0.001,0.843,0.233,1.062,0.612
					c0.219,0.378,0.219,0.845,0,1.224L214.784,100.2c-0.098,0.242-0.276,0.453-0.519,0.594
					C213.68,101.133,212.931,100.932,212.592,100.347z"/>
			</g>
			<g>
				<g>
					<polygon fill="#CBCBCB" points="194.112,86.741 202.059,82.143 215.137,76.262 203.52,84.667 195.572,89.266 					"/>
					<g>
						<path fill="#DB2873" d="M167.958,109.724c-1.865,1.079-4.043,0.805-4.863-0.613l-2.376-4.107
							c-0.82-1.418,0.027-3.442,1.893-4.522l26.066-15.08c1.865-1.079,4.043-0.805,4.863,0.612l2.376,4.108
							c0.821,1.417-0.027,3.442-1.892,4.522L167.958,109.724z"/>
					</g>
				</g>
				<path fill="#F8C298" d="M172.208,110.405c1.429-0.827,1.917-2.656,1.091-4.085l0.576,0.997c0.828,1.429,3.134,2.743,4.563,1.916
					c1.429-0.828,1.917-2.656,1.09-4.084l0.366,0.633c0.827,1.429,2.655,1.916,4.084,1.09c1.43-0.827,1.918-2.656,1.091-4.084
					l0.295,0.51c0.827,1.429,2.655,1.918,4.084,1.091c1.43-0.827,1.919-2.656,1.092-4.085l-6.748-11.663
					c-0.051-0.088-0.116-0.16-0.174-0.24c0.009-0.006,0.017-0.009,0.026-0.015l5.063-2.93l-3.184-5.504
					c-0.578-0.999-1.122-1.838-2.002-1.905c-3.236-2.029-8.852-2.759-11.378-1.298c-3.207,1.856-13.121,7.591-13.121,7.591
					s-2.313,4.052,1.625,11.936c0.063,0.188,0.146,0.374,0.25,0.553l7.225,12.489C168.95,110.744,170.779,111.232,172.208,110.405z"
					/>
			</g>
		</g>
		<polygon fill="#F18E2A" points="105.147,-1.78 125.348,-13.467 176.936,74.641 156.734,86.329 		"/>
	</g>
	<g clip-path="url(#SVGID_2_)">
		<g>
			<path fill="#87BC43" d="M187.957,346.274c1.728,1.288,2.335,3.397,1.355,4.71l-2.836,3.804c-0.979,1.314-3.174,1.333-4.901,0.045
				l-32.381-24.143c-1.727-1.288-2.335-3.397-1.356-4.71l2.836-3.804c0.979-1.313,3.173-1.334,4.901-0.045L187.957,346.274z"/>
			<path fill="#87BC43" d="M142.071,336.108l6.302,4.698c1.513,1.128,3.533,0.978,4.512-0.335l13.118-17.594
				c0.979-1.313,0.545-3.292-0.967-4.42l-6.301-4.698L142.071,336.108z"/>
			
				<rect x="134.135" y="320.292" transform="matrix(0.5977 -0.8017 0.8017 0.5977 -199.5402 248.7206)" fill="#CBCBCB" width="27.878" height="5.809"/>
			
				<rect x="124.819" y="307.538" transform="matrix(0.5977 -0.8017 0.8017 0.5977 -197.7204 238.4618)" fill="#040000" width="27.878" height="17.429"/>
			<path fill="#CFD0D0" d="M123.44,322.218c0,0,3.19,2.186,5.064,1.185c1.875-1.002,2.511,0.452,4.384,0.722
				c1.873,0.27,3.597-2.95,1.114-5.144c-2.483-2.194-0.633-4.145,0.704-5.106c1.338-0.962,3.533,0.332,4.723-1.718
				c1.19-2.051-0.562-2.426-0.184-4.446c0.378-2.02-0.143-2.985,1.163-4.814c1.306-1.827-0.304-3.028-0.304-3.028
				S131.312,308.3,123.44,322.218z"/>
		</g>
		<path fill="#F8C298" d="M186.905,342.1c-1.324-0.987-3.197-0.714-4.184,0.609l0.688-0.923c0.987-1.323,1.284-3.961-0.039-4.948
			c-1.324-0.987-3.197-0.714-4.183,0.609l0.436-0.586c0.987-1.323,0.714-3.197-0.61-4.184c-1.324-0.987-3.197-0.714-4.184,0.61
			l0.352-0.472c0.987-1.324,0.714-3.196-0.61-4.183c-1.324-0.987-3.197-0.714-4.184,0.609l-8.054,10.803
			c-0.061,0.081-0.102,0.169-0.153,0.254c-0.008-0.006-0.015-0.012-0.023-0.018l-4.69-3.496l-3.801,5.098
			c-0.689,0.925-1.246,1.757-0.961,2.591c-0.587,3.774,0.958,9.223,3.297,10.967c2.971,2.215,12.152,9.06,12.152,9.06
			s4.635,0.526,10.325-6.203c0.148-0.132,0.286-0.282,0.409-0.447l8.624-11.567C188.502,344.96,188.229,343.087,186.905,342.1z"/>
		<polygon fill="#4A9ED8" points="106.862,456.461 88.15,442.511 153.158,353.318 171.869,367.269 		"/>
	</g>
	<g clip-path="url(#SVGID_2_)">
		<g>
			<g>
				<path fill="#333333" d="M90.403,220.453c0,0-5.356,1.202-7.14,6.112c-1.784,4.911-2.523-4.21-6.396-5.844
					c-3.873-1.634,8.598-7.514,8.598-7.514L90.403,220.453z"/>
				
					<rect x="98.594" y="210.909" transform="matrix(0.6937 0.7203 -0.7203 0.6937 191.759 -16.4732)" fill="#F1AA3F" width="33.307" height="12.618"/>
				<path fill="#4E4D4D" d="M63.766,238.624c-1.552,1.494-4.023,1.449-5.518-0.104l-8.491-8.816
					c-1.494-1.552-1.448-4.023,0.104-5.517l26.581-25.601c1.553-1.495,4.023-1.449,5.518,0.103l8.491,8.816
					c1.495,1.552,1.449,4.023-0.104,5.518c0,0-6.382,0.256-16.233,9.745C64.262,232.255,63.766,238.624,63.766,238.624z"/>
				<path fill="#F1E534" d="M121.594,214.714L94.15,186.218c-1.295-1.344-3.433-1.384-4.776-0.09L74.452,200.5
					c-1.344,1.294-1.384,3.432-0.09,4.776l27.444,28.494L121.594,214.714z"/>
				<path fill="#F1F1F1" d="M125.101,218.354l-4.409-4.578l-19.787,19.058l4.409,4.578c1.294,1.343,3.432,1.384,4.775,0.09
					l17.355-16.716C127.444,220.786,126.395,219.697,125.101,218.354z"/>
				<path fill="#F1F1F1" d="M88.698,220.159l-14.335-14.883c-1.294-1.344-1.254-3.482,0.09-4.776l14.922-14.372
					c1.344-1.294,3.481-1.254,4.776,0.09c0,0-8.349,11.134-2.032,17.692C98.436,210.469,89.992,221.504,88.698,220.159z"/>
				<path fill="#4E4D4D" d="M106.552,232.848c-0.621,0.598-1.609,0.579-2.207-0.042l-3.284-3.409
					c-0.598-0.62-0.579-1.608,0.042-2.206l4.871-4.693c0.622-0.598,1.609-0.579,2.208,0.042l3.283,3.408
					c0.598,0.621,0.579,1.609-0.041,2.208L106.552,232.848z"/>
				<path fill="#4E4D4D" d="M115.894,223.849c-0.311,0.299-0.804,0.29-1.103-0.021l-4.366-4.533
					c-0.299-0.311-0.29-0.804,0.021-1.103l0.949-0.915c0.311-0.299,0.805-0.29,1.104,0.021l4.366,4.533
					c0.299,0.311,0.29,0.804-0.021,1.103L115.894,223.849z"/>
				<path fill="#4E4D4D" d="M118.398,221.439c-0.311,0.298-0.805,0.29-1.104-0.021l-4.366-4.533
					c-0.299-0.311-0.29-0.805,0.021-1.104l0.95-0.914c0.31-0.299,0.805-0.29,1.103,0.021l4.366,4.532
					c0.299,0.311,0.29,0.805-0.02,1.104L118.398,221.439z"/>
				<g>
					
						<rect x="127.186" y="227.433" transform="matrix(0.6938 0.7202 -0.7202 0.6938 208.9824 -23.0614)" fill="#666767" width="8.845" height="13.544"/>
					<polygon fill="#E5E5E4" points="139.581,232.667 140.919,243.871 129.772,242.114 					"/>
					<polygon fill="#B2B2B2" points="139.813,234.615 131.71,242.419 140.919,243.871 					"/>
					<polygon fill="#CBCBCB" points="140.546,240.745 137.809,243.381 140.919,243.871 					"/>
					
						<rect x="123.063" y="220.846" transform="matrix(0.6937 0.7203 -0.7203 0.6937 203.6227 -21.0062)" fill="#1A1A1A" width="6.894" height="16.13"/>
				</g>
			</g>
			<path fill="#F8C298" d="M67.558,235.669c0.525-1.073,0.385-2.28-0.259-3.097l0.737,0.36c1.322,0.646,2.967-0.002,3.676-1.449
				c0.535-1.094,0.38-2.326-0.295-3.145l1.154,0.564c1.322,0.647,2.968-0.002,3.676-1.45c0.617-1.262,0.317-2.714-0.647-3.494
				l12.157,5.948c1.322,0.646,2.968-0.003,3.676-1.449c0.709-1.449,0.21-3.147-1.112-3.793l-19.532-9.556l0,0
				c-7.496-3.667-4.363-6.866-4.363-6.866l4.247-3.999c-3.319-3.338-6.385-2.958-11.562-1.796
				c-5.177,1.162-11.066,4.908-11.066,4.908l-5.8-0.408c0,0-1.125,9.874-0.511,14.552c0.614,4.678,5.39,6.705,5.39,6.705
				l10.879,6.037l5.878,2.875C65.205,237.763,66.85,237.114,67.558,235.669z"/>
		</g>
		<polygon fill="#77BD48" points="-19.066,226.318 -19.001,202.978 43,203.702 42.935,227.042 		"/>
	</g>
	<g clip-path="url(#SVGID_2_)">
		<g>
			<g>
				
					<rect x="295.929" y="70.733" transform="matrix(0.8267 0.5627 -0.5627 0.8267 94.5543 -162.5697)" fill="#CBCBCB" width="30.447" height="2.917"/>
				<g>
					<path fill="#F1AA3F" d="M348.962,104.385c1.782,1.213,3.973,1.098,4.895-0.257l2.67-3.922c0.922-1.354,0.225-3.434-1.557-4.648
						l-24.895-16.944c-1.781-1.213-3.973-1.098-4.895,0.255l-2.67,3.923c-0.921,1.354-0.225,3.435,1.558,4.648L348.962,104.385z"/>
				</g>
				<path fill="#EC8F26" d="M319.73,86.877c-0.203-0.138-0.383-0.296-0.55-0.462l8.149-11.973c0.217,0.096,0.429,0.205,0.632,0.343
					c1.782,1.213,2.243,3.641,1.031,5.423l-3.839,5.639C323.94,87.628,321.512,88.09,319.73,86.877z"/>
				<polygon fill="#CBCBCB" points="300.812,63.151 298.648,58.846 291.709,56.011 288.969,60.036 294.152,65.452 298.95,65.886 
									"/>
				<polygon fill="#F1F1F1" points="289.915,61.025 288.969,60.036 291.709,56.011 292.975,56.528 				"/>
			</g>
			<path fill="#F8C298" d="M348.828,103.964l8.119-11.928c0.116-0.171,0.212-0.35,0.289-0.532
				c4.503-7.576,2.492-11.785,2.492-11.785s-9.467-6.444-12.53-8.529c-2.411-1.641-8.067-1.323-11.443,0.463
				c-0.881,0.003-1.485,0.801-2.135,1.755l-3.578,5.257l4.836,3.292c0.008,0.005,0.016,0.01,0.025,0.016
				c-0.064,0.076-0.134,0.143-0.19,0.227l-7.582,11.139c-0.929,1.364-0.576,3.224,0.789,4.153c1.365,0.929,3.224,0.576,4.153-0.789
				l0.332-0.486c-0.929,1.364-0.576,3.224,0.789,4.153c1.365,0.929,3.224,0.575,4.153-0.79l0.411-0.604
				c-0.929,1.365-0.575,3.225,0.789,4.154c1.364,0.929,3.761-0.213,4.69-1.578l0.648-0.951c-0.929,1.365-0.575,3.223,0.79,4.154
				C346.039,105.682,347.898,105.329,348.828,103.964z"/>
		</g>
		<polygon fill="#4A9ED8" points="416.348,7.434 397.054,-5.699 342.693,68.872 361.987,82.004 		"/>
	</g>
	<g clip-path="url(#SVGID_2_)">
		<g>
			<path fill="#CBCBCB" d="M303.618,201.583l-2.156-5.381c-0.692-1.731,0.149-3.696,1.88-4.389l3.554-1.423
				c1.731-0.693,3.696,0.148,4.389,1.879l2.155,5.381c2.29-2.896,3.017-6.9,1.545-10.574c-0.551-1.375-1.356-2.571-2.34-3.558
				l11.288-26.367c1.39,0.03,2.81-0.213,4.182-0.763c5.462-2.187,8.119-8.39,5.931-13.853c-1.471-3.674-4.76-6.069-8.417-6.583
				l2.156,5.38c0.693,1.731-0.148,3.696-1.879,4.389l-3.555,1.423c-1.731,0.693-3.695-0.148-4.389-1.879l-2.154-5.381
				c-2.291,2.896-3.018,6.899-1.547,10.573c0.551,1.375,1.356,2.572,2.341,3.558l-11.289,26.367c-1.39-0.029-2.81,0.214-4.182,0.763
				c-5.462,2.188-8.118,8.391-5.931,13.853C296.673,198.672,299.961,201.068,303.618,201.583z"/>
			<path fill="#CBCBCB" d="M309.31,181.18c-0.942-0.404-1.379-1.494-0.976-2.436l9.168-21.415c0.403-0.941,1.494-1.378,2.435-0.975
				l0,0c0.942,0.403,1.378,1.493,0.976,2.435l-9.168,21.415C311.342,181.146,310.252,181.582,309.31,181.18L309.31,181.18z"/>
		</g>
		<g>
			<path fill="#40B2DD" d="M227.926,202.857l-4.261-0.465C223.666,202.392,226.098,202.9,227.926,202.857z"/>
			<path fill="#40B2DD" d="M323.518,163.749c0,0-11.098-12.025-21.644-9.417c0,0-6.942,1.97-6.746-12.994
				c0,0,2.43-17.223-18.543-14.673c0,0-31.073,1.847-39.88,35.836c-2.159,8.344-3.458,18.575,20.078,26.722
				c1.257-0.078,2.522-0.126,3.799-0.126c14.308,0,25.215,4.647,32.722,13.939c2.031,2.516,3.683,5.217,4.981,8.092
				c-0.162-10.246-3.053-22.829-14.54-30.378c0,0-1.055-2.568,1.117-2.271c0,0,21.68-2.066,25.318,9.308
				c0.922,2.888-0.272,8.914,0.649,12.065c0.545,1.913,2.06,2.447,7.816-1.391C318.643,198.459,340.943,184.713,323.518,163.749z"/>
			<g>
				<path fill="#40B2DD" d="M232.601,286.999c0.662,0.21,1.317,0.418,1.997,0.632c3.457,1.093,10.337,5.835,9.01,11.371
					c0,0-12.3-0.315-8.416,4.358c0.671,0.807,1.551,1.921,12.18,0.961c0,0,19.766,5.026,22.965,5.242
					c0.963,0.067,4.721-1.554,0.293-3.841l-9.967-2.951c0,0,11.182-0.479,11.601-0.814c0.74-0.614,2.612-2.64-2.444-3.027
					c-2.654-0.199-10.637-0.07-10.637-0.07l8.053-1.407c0,0,2.584-2.288-1.481-2.801l-12.18-0.367c0,0-5.392-1.334-5.392-6.576
					c0,0,2.884-0.254,5.773-1.001c-3.761,0.773-7.645,1.173-11.662,1.173C238.951,287.88,235.722,287.582,232.601,286.999z"/>
				<path fill="#40B2DD" d="M279.65,274.532c-6.463,5.584-13.479,9.113-21.04,11.384c0.204,0.342,0.354,0.687,0.133,1.467
					c0,0-7.166,0.274-8.27,1.601c0,0-2.347,2.784,1.997,2.906c2.047,0.059,6.161-0.74,8.192-0.471
					c3.248,0.433,7.452,2.429,12.628,3.386c0,0,6.711,2.285,9.296,1.691c0,0,2.66-1.843-1.551-3.837l-6.419-1.926
					c0,0,8.514,0.977,11.077-0.074c0.992-0.405,2.808-2.732-2.437-3.542l-6.966-0.761c-1.049-0.088-1.82-0.199-1.82-0.199
					l1.82,0.199c1.855,0.156,4.592,1.304,5.555,0.59c0.643-0.475,1.411,0.053-2.206,0.053h-11.231c0,0,17.727-5,26.582-32
					c0,0,0.125,0,0.302,0h-0.233C291.524,261,286.393,268.706,279.65,274.532z"/>
				<path fill="#40B2DD" d="M276.291,286.356l-1.82-0.199C274.471,286.157,275.242,286.268,276.291,286.356z"/>
			</g>
			<path fill="#40B2DD" d="M205.807,264.843c-2.762-7.57-3.185-16.788-1.269-27.654c0.808-4.584,2.248-9.084,4.274-13.505
				c-2.303,0.704-5.603,1.345-10.347,1.629c0,0-13.787-12.403-22.643,6.202c0,0-3.786,11.985,4.777,16.414
				c0,0-1.732,5.042,1.425,9.285c7.627,10.253,16.054,16.347,37.487,24.139C212.992,277.463,208.409,271.974,205.807,264.843z"/>
			<path fill="#40B2DD" d="M203.091,237.5c1.485-8.421,4.997-16.57,10.538-24.451c5.54-7.88,12.48-13.896,20.822-18.046
				c8.341-4.151,17.204-6.226,26.588-6.226c14.496,0,25.546,4.708,33.151,14.122c7.602,9.414,10.137,21.309,7.602,35.686
				c-2.556,14.497-9.353,26.513-20.387,36.046c-11.035,9.535-23.651,14.302-37.847,14.302c-8.783,0-16.808-1.984-24.078-5.955
				c-7.272-3.97-12.304-9.79-15.103-17.46C201.579,257.847,201.15,248.509,203.091,237.5z M228.839,238.854
				c-1.676,9.505-0.703,16.783,2.918,21.836c3.62,5.052,8.738,7.579,15.355,7.579c6.616,0,12.611-2.526,17.984-7.579
				c5.371-5.053,8.907-12.391,10.604-22.016c1.655-9.384,0.686-16.603-2.904-21.655c-3.591-5.052-8.695-7.58-15.311-7.58
				c-6.617,0-12.627,2.527-18.028,7.58C234.054,222.071,230.514,229.35,228.839,238.854z"/>
		</g>
	</g>
</g>
</svg>
