<?xml version="1.0" encoding="utf-8"?>
<!-- Generator: Adobe Illustrator 17.0.0, SVG Export Plug-In . SVG Version: 6.00 Build 0)  -->
<!DOCTYPE svg PUBLIC "-//W3C//DTD SVG 1.1//EN" "http://www.w3.org/Graphics/SVG/1.1/DTD/svg11.dtd">
<svg version="1.1" id="图层_1" xmlns="http://www.w3.org/2000/svg" xmlns:xlink="http://www.w3.org/1999/xlink" x="0px" y="0px"
	 width="144px" height="40px" viewBox="0 0 144 40" enable-background="new 0 0 144 40" xml:space="preserve">
<rect fill="#3EB3DE" width="144" height="40"/>
<g>
	<path fill="#FFFFFF" d="M37.581,31.329l-1.32-0.036c-0.308-5.95-8.378-7.443-10.843-7.761v7.504L14.816,20.164L25.418,8.671v7.247
		c3.766,0.062,6.737,1.273,8.834,3.605C38.304,24.026,37.612,31.032,37.581,31.329z M16.642,20.138l7.453,7.642v-5.693l0.707,0.048
		c0.402,0.027,8.028,0.6,11.311,4.974c-0.311-2.146-1.071-4.734-2.849-6.707c-1.891-2.099-4.633-3.164-8.149-3.164l-1.02,0.016
		v-5.196L16.642,20.138z"/>
</g>
<g>
	<path fill="#FFFFFF" d="M61.702,23.806c0.263,0.152,0.554,0.359,0.997,0.595c0.899,0.484,2.131,0.567,3.64,0.567
		c1.633,0,3.751-0.097,5.148-0.263c-0.125,0.277-0.291,0.775-0.318,1.08c-1.038,0.068-3.474,0.151-4.857,0.151
		c-1.647,0-2.851-0.151-3.833-0.664c-0.609-0.332-1.052-0.733-1.371-0.733c-0.442,0-1.065,0.762-1.688,1.55l-0.678-0.94
		c0.692-0.706,1.37-1.246,1.951-1.439v-3.917h-1.744V18.81h2.754v4.996H61.702z M61.204,16.941c-0.401-0.567-1.246-1.55-1.896-2.242
		l0.816-0.512c0.637,0.65,1.509,1.592,1.938,2.145L61.204,16.941z M64.581,18.145c-0.042,1.813-0.332,4.125-1.633,5.73
		c-0.18-0.18-0.623-0.471-0.858-0.581c1.329-1.62,1.481-3.903,1.481-5.592v-3.003c2.325-0.111,5.093-0.374,6.615-0.789l0.844,0.816
		c-1.688,0.457-4.208,0.72-6.449,0.831v1.661h5.19l0.193-0.042l0.623,0.235c-0.429,1.578-1.149,2.893-2.062,3.958
		c0.872,0.734,1.674,1.44,2.214,1.993l-0.789,0.72c-0.498-0.553-1.259-1.259-2.104-2.007c-0.927,0.886-2.035,1.564-3.183,2.035
		c-0.125-0.264-0.374-0.637-0.582-0.845c1.08-0.373,2.131-0.996,3.031-1.84c-0.761-0.637-1.522-1.287-2.214-1.827l0.706-0.595
		c0.665,0.512,1.426,1.121,2.173,1.73c0.65-0.734,1.204-1.605,1.564-2.588C69.341,18.145,64.581,18.145,64.581,18.145z"/>
	<path fill="#FFFFFF" d="M85.842,14.257v12.054h-1.093v-0.747h-9.342v0.747h-1.038V14.257H85.842z M84.749,24.595v-9.314h-9.342
		v9.314H84.749z M82.742,17.426v4.997h-5.343v-4.997H82.742z M81.731,18.353h-3.349v3.156h3.349V18.353z"/>
	<path fill="#FFFFFF" d="M95.673,16.54c-0.152,0.443-0.291,0.886-0.457,1.273h4.401v8.511h-1.052v-0.789h-7.059v0.789h-1.011v-8.511
		h3.626c0.125-0.401,0.25-0.872,0.333-1.273h-5.536v-0.955h3.57c-0.276-0.471-0.747-1.093-1.176-1.564l0.899-0.388
		c0.498,0.484,1.052,1.163,1.301,1.633l-0.596,0.318h3.654c0.442-0.567,0.955-1.356,1.259-1.924l1.121,0.291
		c-0.373,0.582-0.816,1.163-1.231,1.633h3.487v0.955L95.673,16.54L95.673,16.54z M98.565,18.727h-7.059v1.37h7.059V18.727z
		 M98.565,20.927h-7.059v1.412h7.059V20.927z M98.565,24.622v-1.467h-7.059v1.467C91.506,24.622,98.565,24.622,98.565,24.622z"/>
	<path fill="#FFFFFF" d="M109.517,18.879h1.038v2.491c0,1.882-0.762,3.792-6.104,4.968c-0.11-0.249-0.401-0.622-0.623-0.857
		c5.107-1.024,5.688-2.644,5.688-4.125L109.517,18.879L109.517,18.879z M115.966,14.436v0.969h-5.494
		c-0.235,0.567-0.513,1.163-0.762,1.647h4.941v6.394h-1.08v-5.438h-7.044v5.467h-1.024v-6.422h3.169
		c0.222-0.484,0.471-1.107,0.637-1.647h-5.162v-0.969L115.966,14.436L115.966,14.436z M111.205,23.017
		c1.577,0.692,3.667,1.771,4.719,2.533l-0.636,0.816c-1.011-0.775-3.059-1.924-4.664-2.644L111.205,23.017z"/>
</g>
</svg>
