<?xml version="1.0" encoding="utf-8"?>
<!-- Generator: Adobe Illustrator 17.0.0, SVG Export Plug-In . SVG Version: 6.00 Build 0)  -->
<!DOCTYPE svg PUBLIC "-//W3C//DTD SVG 1.1//EN" "http://www.w3.org/Graphics/SVG/1.1/DTD/svg11.dtd">
<svg version="1.1" id="图层_1" xmlns="http://www.w3.org/2000/svg" xmlns:xlink="http://www.w3.org/1999/xlink" x="0px" y="0px"
	 width="110px" height="131px" viewBox="0 0 110 131" enable-background="new 0 0 110 131" xml:space="preserve">
<g>
	<path fill="#114183" d="M37.91,54.957l-2.947-0.322C34.962,54.635,36.645,54.986,37.91,54.957z"/>
	<path fill="#114183" d="M104.039,27.902c0,0-7.677-8.319-14.973-6.514c0,0-4.803,1.363-4.667-8.989c0,0,1.681-11.915-12.828-10.151
		c0,0-21.496,1.278-27.589,24.791c-1.494,5.772-2.392,12.85,13.89,18.486c0.87-0.054,1.745-0.087,2.628-0.087
		c9.898,0,17.444,3.215,22.637,9.643c1.405,1.74,2.548,3.609,3.446,5.598c-0.112-7.088-2.112-15.793-10.059-21.015
		c0,0-0.73-1.776,0.773-1.571c0,0,14.998-1.429,17.515,6.439c0.638,1.998-0.188,6.167,0.449,8.346
		c0.377,1.323,1.425,1.693,5.407-0.962C100.667,51.914,116.094,42.404,104.039,27.902z"/>
	<g>
		<path fill="#114183" d="M41.143,113.165c0.458,0.145,0.911,0.289,1.381,0.437c2.392,0.756,7.151,4.037,6.233,7.866
			c0,0-8.509-0.218-5.822,3.015c0.464,0.558,1.073,1.329,8.426,0.664c0,0,13.674,3.477,15.887,3.626
			c0.666,0.046,3.266-1.075,0.203-2.657l-6.895-2.041c0,0,7.736-0.331,8.026-0.563c0.512-0.425,1.807-1.826-1.691-2.094
			c-1.836-0.138-7.359-0.049-7.359-0.049l5.571-0.973c0,0,1.788-1.583-1.025-1.937l-8.426-0.254c0,0-3.73-0.923-3.73-4.549
			c0,0,1.995-0.176,3.994-0.693c-2.602,0.535-5.289,0.812-8.068,0.812C45.536,113.775,43.302,113.568,41.143,113.165z"/>
		<path fill="#114183" d="M73.692,105.026c-4.471,3.863-9.325,6.062-14.555,7.632c0.141,0.237,0.245,0.354,0.092,0.894
			c0,0-4.958,0.129-5.721,1.047c0,0-1.623,1.896,1.382,1.98c1.416,0.041,4.262-0.527,5.668-0.341
			c2.247,0.299,5.155,1.673,8.736,2.335c0,0,4.643,1.577,6.431,1.166c0,0,1.84-1.277-1.073-2.656l-4.441-1.333
			c0,0,5.89,0.675,7.663-0.051c0.686-0.28,1.942-1.89-1.686-2.451l-4.819-0.527c-0.726-0.061-1.259-0.138-1.259-0.138l1.259,0.137
			c1.283,0.108,3.177,0.819,3.843,0.326c0.445-0.328,0.976-0.046-1.526-0.046h-7.77c0,0,12.263-3,18.389-21c0,0,0.087,0,0.209,0
			h-0.161C81.906,95,78.356,100.996,73.692,105.026z"/>
		<path fill="#114183" d="M71.368,112.72l-1.259-0.138C70.109,112.583,70.642,112.659,71.368,112.72z"/>
	</g>
	<path fill="#114183" d="M22.608,97.838c-1.911-5.237-2.204-11.613-0.878-19.13c0.559-3.171,1.555-6.284,2.957-9.343
		c-1.593,0.487-3.876,0.931-7.158,1.127c0,0-9.538-8.581-15.664,4.291c0,0-2.619,8.291,3.305,11.355c0,0-1.198,3.488,0.986,6.424
		c5.276,7.093,11.106,11.309,25.933,16.699C27.578,106.568,24.407,102.771,22.608,97.838z"/>
	<path fill="#114183" d="M20.729,78.922c1.027-5.825,3.457-11.463,7.29-16.915c3.833-5.451,8.633-9.613,14.404-12.484
		c5.77-2.871,11.901-4.307,18.393-4.307c10.028,0,17.672,3.257,22.934,9.769c5.259,6.513,7.013,14.741,5.259,24.687
		c-1.768,10.029-6.47,18.342-14.103,24.936c-7.634,6.596-16.361,9.894-26.182,9.894c-6.076,0-11.628-1.373-16.657-4.12
		c-5.031-2.746-8.512-6.773-10.448-12.078S19.386,86.538,20.729,78.922z M38.541,79.859c-1.159,6.576-0.486,11.61,2.018,15.106
		c2.504,3.495,6.045,5.243,10.623,5.243c4.577,0,8.724-1.748,12.441-5.243c3.716-3.496,6.162-8.572,7.336-15.231
		c1.145-6.492,0.474-11.486-2.009-14.981c-2.485-3.495-6.015-5.244-10.592-5.244c-4.578,0-8.735,1.748-12.472,5.244
		C42.149,68.248,39.7,73.284,38.541,79.859z"/>
</g>
</svg>
